<?xml version="1.0" standalone="no"?>
<!DOCTYPE svg PUBLIC "-//W3C//DTD SVG 20010904//EN"
 "http://www.w3.org/TR/2001/REC-SVG-20010904/DTD/svg10.dtd">
<svg version="1.0" xmlns="http://www.w3.org/2000/svg"
 width="300.000000pt" height="300.000000pt" viewBox="0 0 300.000000 300.000000"
 preserveAspectRatio="xMidYMid meet">
<metadata>
Created by potrace 1.10, written by Peter Selinger 2001-2011
</metadata>
<g transform="translate(0.000000,300.000000) scale(0.100000,-0.100000)"
fill="#000000" stroke="none">
<path d="M1432 2684 c-18 -9 -43 -31 -55 -48 -20 -29 -22 -44 -25 -208 l-3
-178 -288 0 c-233 0 -297 -3 -341 -16 -105 -31 -184 -100 -234 -204 l-31 -65
0 -720 c0 -716 0 -720 21 -766 28 -60 93 -125 153 -153 46 -21 51 -21 850 -24
900 -3 867 -5 959 67 34 27 59 59 78 98 l29 58 0 720 0 720 -31 65 c-50 104
-129 173 -234 204 -44 13 -108 16 -342 16 l-288 0 0 166 c0 184 -8 217 -63
256 -39 28 -112 34 -155 12z m150 -65 c28 -33 28 -34 28 -187 0 -175 8 -205
61 -216 17 -3 155 -6 306 -6 l275 0 63 -30 c78 -37 130 -88 164 -160 l26 -55
0 -720 c0 -810 5 -755 -77 -836 -73 -72 -38 -70 -944 -67 l-809 3 -52 27 c-53
28 -75 53 -112 126 l-22 42 3 718 3 717 30 54 c40 73 85 115 160 151 l63 30
279 0 c170 0 292 4 310 10 46 16 53 45 53 210 0 85 5 159 11 173 30 66 132 75
181 16z"/>
<path d="M997 1715 c-59 -15 -93 -39 -132 -94 -57 -81 -42 -209 32 -279 111
-103 281 -74 349 59 85 169 -68 362 -249 314z m128 -44 c139 -63 151 -244 22
-329 -81 -54 -202 -26 -255 60 -60 97 -22 222 83 269 51 24 99 24 150 0z"/>
<path d="M1887 1714 c-59 -18 -129 -84 -147 -139 -19 -59 -9 -146 24 -193 43
-63 97 -95 167 -100 133 -10 239 87 239 218 0 101 -64 185 -164 215 -59 18
-58 18 -119 -1z m138 -43 c137 -62 150 -244 23 -328 -55 -37 -141 -37 -196 0
-128 84 -115 266 23 328 51 24 99 24 150 0z"/>
<path d="M894 925 c-16 -11 -22 -29 -27 -76 -11 -120 14 -139 183 -139 168 0
197 21 187 137 -8 88 -19 93 -186 93 -103 0 -142 -4 -157 -15z m306 -100 l0
-75 -150 0 -150 0 0 75 0 75 150 0 150 0 0 -75z"/>
<path d="M1347 928 c-51 -39 -48 -187 4 -203 28 -9 287 -7 302 2 25 14 37 50
37 108 0 46 -4 60 -25 80 -23 24 -29 25 -163 25 -95 0 -143 -4 -155 -12z m303
-103 l0 -75 -150 0 -150 0 0 75 0 75 150 0 150 0 0 -75z"/>
<path d="M1791 923 c-18 -15 -22 -29 -22 -85 -1 -37 2 -76 5 -86 11 -35 55
-44 191 -40 126 3 127 3 152 32 22 26 25 36 21 94 -6 97 -16 102 -188 102
-116 0 -141 -3 -159 -17z m309 -98 l0 -75 -150 0 -150 0 0 75 0 75 150 0 150
0 0 -75z"/>
<path d="M80 1631 c-41 -21 -73 -70 -68 -103 3 -21 6 -19 31 18 36 53 62 64
148 64 l69 0 -2 -407 -3 -408 -55 -3 c-77 -5 -119 12 -155 61 -24 35 -30 39
-33 22 -7 -33 28 -83 73 -105 32 -15 62 -20 128 -20 l87 0 0 450 0 450 -93 0
c-71 0 -100 -4 -127 -19z"/>
<path d="M2700 1200 l0 -450 87 0 c66 0 96 5 128 20 43 21 75 64 75 101 0 21
-5 18 -43 -23 -48 -52 -69 -61 -148 -56 l-54 3 -3 408 -2 407 69 0 c85 0 107
-10 146 -63 27 -38 30 -40 33 -19 5 33 -27 82 -68 103 -27 15 -56 19 -127 19
l-93 0 0 -450z"/>
</g>
</svg>
