<svg width="100" height="100" viewBox="0 0 100 100" fill="none" xmlns="http://www.w3.org/2000/svg">
<path d="M35.0496 60.0099C48.8291 60.0099 59.9996 48.8394 59.9996 35.0599C59.9996 21.2804 48.8291 10.1099 35.0496 10.1099C21.2701 10.1099 10.0996 21.2804 10.0996 35.0599C10.0996 48.8394 21.2701 60.0099 35.0496 60.0099Z" stroke="black" stroke-width="6" stroke-miterlimit="10" stroke-linecap="square"/>
<path d="M42.8498 22.5898H33.4898C32.6708 22.5898 31.8599 22.7513 31.1033 23.065C30.3468 23.3787 29.6596 23.8385 29.081 24.4181C28.5023 24.9977 28.0436 25.6856 27.7311 26.4427C27.4186 27.1997 27.2585 28.0109 27.2598 28.8298V28.8298C27.2598 30.4821 27.9161 32.0668 29.0845 33.2351C30.2528 34.4035 31.8375 35.0598 33.4898 35.0598H36.6098C38.2647 35.0598 39.8519 35.7173 41.0221 36.8875C42.1923 38.0577 42.8498 39.6449 42.8498 41.2998C42.8498 42.9548 42.1923 44.542 41.0221 45.7122C39.8519 46.8824 38.2647 47.5398 36.6098 47.5398H27.2598" stroke="black" stroke-width="6" stroke-miterlimit="10" stroke-linecap="square"/>
<path d="M35.0498 18.6001V51.5301" stroke="black" stroke-width="6" stroke-miterlimit="10" stroke-linecap="square"/>
<path d="M65.82 20H73.35L90 37.5V90H40V68.12" stroke="black" stroke-width="6" stroke-miterlimit="10" stroke-linecap="square"/>
<path d="M70 20V40H89.97L70 20Z" fill="black"/>
</svg>
