<svg width="100" height="100" viewBox="0 0 100 100" fill="none" xmlns="http://www.w3.org/2000/svg">
<path d="M21.5703 21.1802H85.0003V55.7602H30.0003" stroke="black" stroke-width="6" stroke-miterlimit="10" stroke-linecap="square"/>
<path d="M85 67.2899H28.8L17.28 9.6499H10" stroke="black" stroke-width="6" stroke-miterlimit="10" stroke-linecap="square"/>
<path d="M43.1799 90.3501C46.3611 90.3501 48.9399 87.7712 48.9399 84.5901C48.9399 81.4089 46.3611 78.8301 43.1799 78.8301C39.9988 78.8301 37.4199 81.4089 37.4199 84.5901C37.4199 87.7712 39.9988 90.3501 43.1799 90.3501Z" stroke="black" stroke-width="6" stroke-miterlimit="10" stroke-linecap="square"/>
<path d="M72.0002 90.3501C75.1814 90.3501 77.7602 87.7712 77.7602 84.5901C77.7602 81.4089 75.1814 78.8301 72.0002 78.8301C68.8191 78.8301 66.2402 81.4089 66.2402 84.5901C66.2402 87.7712 68.8191 90.3501 72.0002 90.3501Z" stroke="black" stroke-width="6" stroke-miterlimit="10" stroke-linecap="square"/>
</svg>
