<svg width="100" height="100" viewBox="0 0 100 100" fill="none" xmlns="http://www.w3.org/2000/svg">
<path d="M60.07 40H10V60H60.07V40Z" stroke="black" stroke-width="6" stroke-miterlimit="10" stroke-linecap="square"/>
<path d="M35 50V40" stroke="black" stroke-width="6" stroke-miterlimit="10" stroke-linecap="square"/>
<path d="M40 90C41.9778 90 43.9112 89.4135 45.5557 88.3147C47.2002 87.2159 48.4819 85.6541 49.2388 83.8268C49.9957 81.9996 50.1937 79.9889 49.8079 78.0491C49.422 76.1093 48.4696 74.3275 47.0711 72.9289C45.6725 71.5304 43.8907 70.578 41.9509 70.1922C40.0111 69.8063 38.0004 70.0043 36.1732 70.7612C34.3459 71.5181 32.7841 72.7998 31.6853 74.4443C30.5865 76.0888 30 78.0222 30 80C30 82.6522 31.0536 85.1957 32.9289 87.0711C34.8043 88.9464 37.3478 90 40 90Z" stroke="black" stroke-width="6" stroke-miterlimit="10" stroke-linecap="square"/>
<path d="M80 50C81.9778 50 83.9112 49.4135 85.5557 48.3147C87.2002 47.2159 88.4819 45.6541 89.2388 43.8268C89.9957 41.9996 90.1937 39.9889 89.8079 38.0491C89.422 36.1093 88.4696 34.3275 87.0711 32.9289C85.6725 31.5304 83.8907 30.578 81.9509 30.1922C80.0111 29.8063 78.0004 30.0043 76.1732 30.7612C74.3459 31.5181 72.7841 32.7998 71.6853 34.4443C70.5865 36.0888 70 38.0222 70 40C70 42.6522 71.0536 45.1957 72.9289 47.0711C74.8043 48.9464 77.3478 50 80 50Z" stroke="black" stroke-width="6" stroke-miterlimit="10" stroke-linecap="square"/>
<path d="M50 80H80V50" stroke="black" stroke-width="6" stroke-miterlimit="10" stroke-linecap="square"/>
<path d="M80 10V30" stroke="black" stroke-width="6" stroke-miterlimit="10" stroke-linecap="square"/>
<path d="M10 80H30" stroke="black" stroke-width="6" stroke-miterlimit="10" stroke-linecap="square"/>
<path d="M50 40V25C50 21.0218 48.4196 17.2064 45.6066 14.3934C42.7936 11.5804 38.9782 10 35 10C31.0218 10 27.2064 11.5804 24.3934 14.3934C21.5804 17.2064 20 21.0218 20 25V40" stroke="black" stroke-width="6" stroke-miterlimit="10" stroke-linecap="square"/>
</svg>
