<svg width="100" height="100" viewBox="0 0 100 100" fill="none" xmlns="http://www.w3.org/2000/svg">
<path d="M20.1696 34.37C22.1637 34.3719 24.1135 33.7824 25.7725 32.676C27.4314 31.5696 28.725 29.996 29.4894 28.1543C30.2539 26.3126 30.455 24.2856 30.0671 22.3296C29.6793 20.3736 28.7201 18.5766 27.3108 17.1659C25.9015 15.7552 24.1054 14.7941 22.1498 14.4044C20.1942 14.0146 18.1669 14.2137 16.3245 14.9763C14.482 15.7389 12.9071 17.0309 11.7991 18.6888C10.691 20.3466 10.0996 22.2959 10.0996 24.29C10.0996 26.9616 11.1602 29.524 13.0484 31.4141C14.9366 33.3041 17.498 34.3673 20.1696 34.37V34.37Z" stroke="black" stroke-width="6" stroke-miterlimit="10"/>
<path d="M20.1699 14.22V8.72998" stroke="black" stroke-width="6" stroke-miterlimit="10"/>
<path d="M11.6108 18.8499L6.55078 15.9399" stroke="black" stroke-width="6" stroke-miterlimit="10"/>
<path d="M11.4108 28.6201L6.55078 31.4401" stroke="black" stroke-width="6" stroke-miterlimit="10"/>
<path d="M19.6699 33.7598V39.9098" stroke="black" stroke-width="6" stroke-miterlimit="10"/>
<path d="M28.3398 29.1299L33.4298 32.0599" stroke="black" stroke-width="6" stroke-miterlimit="10"/>
<path d="M28.5391 19.35L33.4291 16.52" stroke="black" stroke-width="6" stroke-miterlimit="10"/>
<path d="M60.0007 51.91L69.6407 42.27C72.7105 39.2 74.4351 35.0364 74.4351 30.695C74.4351 26.3536 72.7105 22.1899 69.6407 19.12L60.0007 9.47998L50.3607 19.12C47.291 22.1899 45.5664 26.3536 45.5664 30.695C45.5664 35.0364 47.291 39.2 50.3607 42.27L58.0007 50" stroke="black" stroke-width="6" stroke-miterlimit="10" stroke-linecap="square"/>
<path d="M59.9902 26.8701V47.9901" stroke="black" stroke-width="6" stroke-miterlimit="10" stroke-linecap="square"/>
<path d="M60 78.1602V64.5302C60 60.1886 58.2753 56.0248 55.2053 52.9548C52.1354 49.8848 47.9716 48.1602 43.63 48.1602H30V61.7902C30 66.1318 31.7247 70.2955 34.7947 73.3655C37.8646 76.4355 42.0284 78.1602 46.37 78.1602H57.23" stroke="black" stroke-width="6" stroke-miterlimit="10" stroke-linecap="square"/>
<path d="M42.3008 60.46L57.2308 75.39" stroke="black" stroke-width="6" stroke-miterlimit="10" stroke-linecap="square"/>
<path d="M62.74 72.1899H73.6C75.7523 72.1939 77.8842 71.7734 79.8737 70.9525C81.8633 70.1316 83.6715 68.9264 85.1947 67.4059C86.718 65.8854 87.9265 64.0795 88.751 62.0914C89.5756 60.1034 90 57.9722 90 55.8199V42.1899H76.35C74.2016 42.1913 72.0744 42.6157 70.0901 43.4391C68.1057 44.2625 66.3029 45.4687 64.7847 46.9887C63.2664 48.5088 62.0625 50.3131 61.2415 52.2985C60.4206 54.2839 59.9987 56.4115 60 58.5599V90.5599" stroke="black" stroke-width="6" stroke-miterlimit="10" stroke-linecap="square"/>
<path d="M77.6802 54.4902L62.7402 69.4202" stroke="black" stroke-width="6" stroke-miterlimit="10" stroke-linecap="square"/>
</svg>
