<?xml version="1.0" encoding="iso-8859-1"?>
<!-- Generator: Adobe Illustrator 19.0.0, SVG Export Plug-In . SVG Version: 6.00 Build 0)  -->
<svg version="1.1" id="Capa_1" xmlns="http://www.w3.org/2000/svg" xmlns:xlink="http://www.w3.org/1999/xlink" x="0px" y="0px"
	 viewBox="0 0 512 512" style="enable-background:new 0 0 512 512;" xml:space="preserve">
<g>
	<g>
		<path d="M201.949,278.072c5.522,0,9.997-4.476,9.997-9.997v-70.045c0-16.538-13.455-29.992-29.992-29.992H29.992
			C13.455,168.037,0,181.492,0,198.029v256.935c0,16.538,13.455,29.992,29.992,29.992h151.961c16.538,0,29.992-13.455,29.992-29.992
			V344.992c0-5.522-4.476-9.997-9.997-9.997s-9.997,4.476-9.997,9.997v71.899H19.995v-186.9h171.956v38.083
			C191.951,273.596,196.427,278.072,201.949,278.072z M191.951,436.886v18.078c0,5.513-4.485,9.997-9.997,9.997H29.992
			c-5.513,0-9.997-4.485-9.997-9.997v-18.078H191.951z M19.995,209.996v-11.967c0-5.513,4.485-9.997,9.997-9.997h151.961
			c5.513,0,9.997,4.485,9.997,9.997v11.967H19.995z"/>
	</g>
</g>
<g>
	<g>
		<path d="M209.017,297.934c-1.859-1.859-4.439-2.929-7.068-2.929s-5.209,1.07-7.068,2.929c-1.859,1.859-2.929,4.439-2.929,7.068
			s1.07,5.209,2.929,7.068c1.86,1.859,4.439,2.929,7.068,2.929s5.209-1.07,7.068-2.929c1.86-1.859,2.929-4.439,2.929-7.068
			S210.876,299.794,209.017,297.934z"/>
	</g>
</g>
<g>
	<g>
		<path d="M114.591,443.897c-1.859-1.859-4.439-2.929-7.068-2.929s-5.209,1.07-7.068,2.929c-1.859,1.859-2.929,4.439-2.929,7.068
			s1.07,5.209,2.929,7.068c1.86,1.86,4.439,2.929,7.068,2.929s5.209-1.07,7.068-2.929c1.86-1.859,2.929-4.439,2.929-7.068
			S116.45,445.757,114.591,443.897z"/>
	</g>
</g>
<g>
	<g>
		<path d="M142.664,84.162c-20.231-20.23-53.149-20.23-73.38,0c-3.904,3.904-3.905,10.234,0,14.138
			c3.905,3.905,10.235,3.905,14.138,0c12.435-12.435,32.67-12.435,45.105,0c1.951,1.953,4.51,2.928,7.068,2.928
			c2.558,0,5.118-0.977,7.069-2.928C146.568,94.397,146.568,88.066,142.664,84.162z"/>
	</g>
</g>
<g>
	<g>
		<path d="M172.284,54.54c-17.711-17.711-41.262-27.467-66.311-27.467s-48.6,9.755-66.312,27.467
			c-3.904,3.904-3.904,10.234,0,14.139c3.904,3.904,10.234,3.904,14.138,0c28.768-28.769,75.579-28.769,104.347,0
			c1.952,1.953,4.511,2.928,7.069,2.928c2.558,0,5.118-0.976,7.069-2.928C176.188,64.775,176.188,58.445,172.284,54.54z"/>
	</g>
</g>
<g>
	<g>
		<path d="M113.041,113.981c-1.86-1.86-4.439-2.929-7.068-2.929s-5.209,1.07-7.068,2.929c-1.86,1.859-2.929,4.439-2.929,7.068
			s1.07,5.209,2.929,7.068c1.859,1.859,4.439,2.929,7.068,2.929s5.209-1.07,7.068-2.929c1.859-1.86,2.929-4.439,2.929-7.068
			S114.901,115.84,113.041,113.981z"/>
	</g>
</g>
<g>
	<g>
		<path d="M501.873,464.962H394.078V288.057c4.288,0.553,9.732,1.018,15.969,1.018c20.615,0,49.761-5.068,73.436-28.743
			c40.554-40.555,26.16-96.771,25.527-99.145c-0.922-3.46-3.625-6.163-7.085-7.085c-2.374-0.632-58.59-15.026-99.145,25.528
			c-3.239,3.239-6.126,6.581-8.704,9.989v-71.451c0.409-17.995-3.401-44.764-24.963-66.325c-35.26-35.26-84.11-22.753-86.172-22.202
			c-3.46,0.922-6.163,3.625-7.085,7.085c-0.55,2.063-13.057,50.912,22.203,86.172c20.588,20.588,45.922,24.993,63.835,24.993
			c4.632,0,8.758-0.296,12.187-0.682v144.857c-3.159-4.412-6.785-8.732-10.948-12.895c-43.737-43.737-104.381-28.21-106.942-27.527
			c-3.46,0.922-6.163,3.625-7.085,7.085c-0.683,2.56-16.21,63.206,27.526,106.942c25.533,25.532,56.969,30.997,79.208,30.997
			c7.226,0,13.476-0.578,18.241-1.231v69.524h-75.158c-5.522,0-9.997,4.476-9.997,9.997s4.476,9.997,9.997,9.997h202.948
			c5.522,0,9.997-4.476,9.997-9.997S507.394,464.962,501.873,464.962z M351.783,91.422c-3.904-3.904-10.234-3.904-14.139,0
			s-3.904,10.234,0,14.139l22.294,22.294c-13.907-0.324-32.711-4.073-47.737-19.1c-20.982-20.98-19.877-48.803-18.152-60.896
			c12.077-1.678,40.061-2.749,60.927,18.119c14.905,14.905,18.665,33.719,19.026,47.662L351.783,91.422z M373.96,362.357
			l-32.863-32.862c-3.904-3.904-10.234-3.904-14.138,0c-3.904,3.904-3.904,10.234,0,14.138l32.861,32.86
			c-18.535,0.563-47-2.912-69.047-24.961c-28.335-28.335-25.735-67.044-23.481-81.703c14.681-2.255,53.378-4.847,81.705,23.48
			C371.047,315.36,374.522,343.828,373.96,362.357z M394.076,251.967c0.202-16.703,4.456-39.811,22.844-58.199
			c25.466-25.467,60.182-23.484,73.916-21.459c2.075,13.724,4.116,48.275-21.493,73.883c-19.354,19.354-44.156,22.987-61.052,22.765
			l28.898-28.898c3.904-3.904,3.905-10.234,0-14.138c-3.904-3.904-10.234-3.904-14.138,0l-28.966,28.965
			c-0.003-0.182-0.008-0.359-0.01-0.543V251.967z"/>
	</g>
</g>
<g>
	<g>
		<path d="M263.133,467.891c-1.859-1.859-4.439-2.929-7.068-2.929c-2.639,0-5.209,1.07-7.068,2.929
			c-1.87,1.859-2.929,4.439-2.929,7.068c0,2.629,1.06,5.209,2.929,7.068c1.86,1.859,4.439,2.929,7.068,2.929s5.199-1.07,7.068-2.929
			c1.86-1.859,2.929-4.439,2.929-7.068C266.062,472.33,264.993,469.75,263.133,467.891z"/>
	</g>
</g>
<g>
</g>
<g>
</g>
<g>
</g>
<g>
</g>
<g>
</g>
<g>
</g>
<g>
</g>
<g>
</g>
<g>
</g>
<g>
</g>
<g>
</g>
<g>
</g>
<g>
</g>
<g>
</g>
<g>
</g>
</svg>
