<svg width="100" height="100" viewBox="0 0 100 100" fill="none" xmlns="http://www.w3.org/2000/svg">
<path d="M28.3391 47.9999C30.8221 47.9999 33.2493 47.2634 35.3136 45.8835C37.3778 44.5036 38.9864 42.5423 39.9357 40.248C40.885 37.9536 41.1323 35.4292 40.6465 32.9942C40.1606 30.5592 38.9633 28.323 37.2062 26.5686C35.449 24.8143 33.211 23.6206 30.7752 23.1386C28.3394 22.6566 25.8154 22.908 23.5225 23.861C21.2297 24.8139 19.271 26.4256 17.8944 28.4921C16.5178 30.5585 15.7851 32.9869 15.7891 35.4699C15.7944 38.7949 17.1189 41.9819 19.472 44.3312C21.825 46.6804 25.0141 47.9999 28.3391 47.9999V47.9999Z" stroke="black" stroke-width="6" stroke-miterlimit="10"/>
<path d="M28.3398 22.9201V16.0801" stroke="black" stroke-width="6" stroke-miterlimit="10"/>
<path d="M17.6694 28.6901L11.3594 25.0601" stroke="black" stroke-width="6" stroke-miterlimit="10"/>
<path d="M17.4194 40.8599L11.3594 44.3799" stroke="black" stroke-width="6" stroke-miterlimit="10"/>
<path d="M27.7109 47.2598V54.9198" stroke="black" stroke-width="6" stroke-miterlimit="10"/>
<path d="M38.5 41.4902L44.85 45.1402" stroke="black" stroke-width="6" stroke-miterlimit="10"/>
<path d="M38.75 29.3198L44.85 25.7798" stroke="black" stroke-width="6" stroke-miterlimit="10"/>
<path d="M88.6406 83.9199V73.9199C88.6406 68.6156 86.5335 63.5285 82.7828 59.7778C79.032 56.0271 73.945 53.9199 68.6406 53.9199C63.3363 53.9199 58.2492 56.0271 54.4985 59.7778C50.7478 63.5285 48.6406 68.6156 48.6406 73.9199V83.9199" stroke="black" stroke-width="6" stroke-miterlimit="10" stroke-linecap="square"/>
<path d="M68.6406 43.9302C70.6184 43.9302 72.5518 43.3437 74.1963 42.2449C75.8408 41.1461 77.1225 39.5843 77.8794 37.757C78.6363 35.9298 78.8343 33.9191 78.4485 31.9793C78.0626 30.0395 77.1102 28.2576 75.7117 26.8591C74.3132 25.4606 72.5313 24.5082 70.5915 24.1223C68.6517 23.7365 66.6411 23.9345 64.8138 24.6914C62.9865 25.4483 61.4247 26.73 60.3259 28.3745C59.2271 30.019 58.6406 31.9524 58.6406 33.9302C58.6406 36.5823 59.6942 39.1259 61.5696 41.0012C63.4449 42.8766 65.9885 43.9302 68.6406 43.9302V43.9302Z" stroke="black" stroke-width="6" stroke-miterlimit="10" stroke-linecap="square"/>
</svg>
