<svg width="100" height="100" viewBox="0 0 100 100" fill="none" xmlns="http://www.w3.org/2000/svg">
<path d="M75.4091 84.53C77.3612 84.53 79.2694 83.9512 80.8925 82.8666C82.5157 81.7821 83.7807 80.2406 84.5278 78.4371C85.2748 76.6336 85.4702 74.6491 85.0894 72.7345C84.7086 70.8199 83.7686 69.0612 82.3882 67.6809C81.0079 66.3006 79.2492 65.3605 77.3346 64.9797C75.42 64.5989 73.4355 64.7943 71.632 65.5413C69.8285 66.2884 68.287 67.5535 67.2025 69.1766C66.1179 70.7997 65.5391 72.7079 65.5391 74.66C65.5391 75.9562 65.7944 77.2396 66.2904 78.4371C66.7864 79.6346 67.5134 80.7227 68.4299 81.6392C69.3464 82.5557 70.4345 83.2827 71.632 83.7787C72.8295 84.2748 74.1129 84.53 75.4091 84.53V84.53Z" stroke="black" stroke-width="6" stroke-miterlimit="10"/>
<path d="M75.4102 64.7899V55.6099" stroke="black" stroke-width="6" stroke-miterlimit="10"/>
<path d="M66.9996 69.33L59.0996 64.79" stroke="black" stroke-width="6" stroke-miterlimit="10"/>
<path d="M66.8203 78.8999L58.8203 83.5399" stroke="black" stroke-width="6" stroke-miterlimit="10"/>
<path d="M74.9102 83.9399V93.1199" stroke="black" stroke-width="6" stroke-miterlimit="10"/>
<path d="M83.4004 79.3999L91.3004 83.9399" stroke="black" stroke-width="6" stroke-miterlimit="10"/>
<path d="M83.5996 69.8199L91.5996 65.1899" stroke="black" stroke-width="6" stroke-miterlimit="10"/>
<path d="M69.6096 32.54C71.3446 32.542 73.0411 32.0293 74.4847 31.0669C75.9282 30.1044 77.0538 28.7354 77.7192 27.1331C78.3845 25.5307 78.5596 23.7671 78.2223 22.0652C77.8851 20.3633 77.0506 18.7997 75.8245 17.5722C74.5984 16.3447 73.0357 15.5085 71.3342 15.1693C69.6328 14.83 67.8689 15.0031 66.2658 15.6666C64.6627 16.3301 63.2924 17.4542 62.3283 18.8966C61.3642 20.339 60.8496 22.035 60.8496 23.77C60.8496 26.0942 61.7722 28.3234 63.4147 29.9678C65.0573 31.6122 67.2854 32.5373 69.6096 32.54V32.54Z" stroke="black" stroke-width="6" stroke-miterlimit="10"/>
<path d="M69.6094 14.9999V6.87988" stroke="black" stroke-width="6" stroke-miterlimit="10"/>
<path d="M62.1504 19.12L55.1504 15" stroke="black" stroke-width="6" stroke-miterlimit="10"/>
<path d="M61.9297 27.5601L54.9297 31.6701" stroke="black" stroke-width="6" stroke-miterlimit="10"/>
<path d="M69.1797 32V40.12" stroke="black" stroke-width="6" stroke-miterlimit="10"/>
<path d="M76.6504 27.8799L83.6504 31.9999" stroke="black" stroke-width="6" stroke-miterlimit="10"/>
<path d="M76.8691 19.4401L83.8691 15.3301" stroke="black" stroke-width="6" stroke-miterlimit="10"/>
<path d="M31.78 68.8398C35.0498 68.8398 38.2461 67.8701 40.9646 66.0533C43.6832 64.2365 45.8019 61.6543 47.0527 58.6332C48.3035 55.6122 48.6303 52.288 47.9916 49.0813C47.353 45.8745 45.7777 42.9291 43.4649 40.6178C41.1522 38.3064 38.2059 36.7329 34.9987 36.0962C31.7915 35.4595 28.4676 35.7883 25.4473 37.0409C22.427 38.2936 19.8461 40.4138 18.0309 43.1335C16.2158 45.8532 15.248 49.05 15.25 52.3198C15.25 54.4901 15.6776 56.6391 16.5085 58.644C17.3393 60.649 18.5571 62.4706 20.0921 64.0047C21.6272 65.5389 23.4495 66.7555 25.455 67.5851C27.4605 68.4148 29.6097 68.8411 31.78 68.8398V68.8398Z" stroke="black" stroke-width="6" stroke-miterlimit="10"/>
<path d="M31.7793 35.8998V24.8198" stroke="black" stroke-width="6" stroke-miterlimit="10"/>
<path d="M17.7505 43.51L8.73047 38" stroke="black" stroke-width="6" stroke-miterlimit="10"/>
<path d="M17.3202 59.3799L8.41016 64.9299" stroke="black" stroke-width="6" stroke-miterlimit="10"/>
<path d="M30.9102 67.75V79.82" stroke="black" stroke-width="6" stroke-miterlimit="10"/>
<path d="M44.9297 60.1401L53.8397 65.6901" stroke="black" stroke-width="6" stroke-miterlimit="10"/>
<path d="M45.3594 44.16L54.2794 38.73" stroke="black" stroke-width="6" stroke-miterlimit="10"/>
</svg>
