<svg width="100" height="100" viewBox="0 0 100 100" fill="none" xmlns="http://www.w3.org/2000/svg">
<path d="M90 50C90 57.9113 87.6541 65.6448 83.2588 72.2228C78.8635 78.8008 72.6164 83.9277 65.3074 86.9552C57.9983 89.9827 49.9556 90.7748 42.1964 89.2314C34.4372 87.688 27.3098 83.8784 21.7157 78.2843C16.1216 72.6902 12.312 65.5629 10.7686 57.8036C9.2252 50.0444 10.0173 42.0017 13.0448 34.6927C16.0723 27.3836 21.1992 21.1365 27.7772 16.7412C34.3552 12.346 42.0888 10 50 10V50H90Z" stroke="black" stroke-width="6" stroke-miterlimit="10" stroke-linecap="square"/>
<path d="M60 40V10C67.9565 10 75.5871 13.1607 81.2132 18.7868C86.8393 24.4129 90 32.0435 90 40H60Z" stroke="black" stroke-width="6" stroke-miterlimit="10" stroke-linecap="square"/>
</svg>
