<?xml version="1.0" encoding="utf-8"?>
<!-- Generator: Adobe Illustrator 20.1.0, SVG Export Plug-In . SVG Version: 6.00 Build 0)  -->
<svg version="1.1" id="Calque_1" xmlns="http://www.w3.org/2000/svg" xmlns:xlink="http://www.w3.org/1999/xlink" x="0px" y="0px"
	 viewBox="0 0 595.3 841.9" style="enable-background:new 0 0 595.3 841.9;" xml:space="preserve">
<path d="M196.5,613.6c0-7.4,0-14.7,0-22.5c30,0,59.8,0,89.8,0c0-16.3,0-32.3,0-48.5c-31.6,1.8-60.7-4.2-83-28.6
	c-18.7-20.4-24.9-45.6-26.5-72.4c28-9.5,79.9-9.4,109.4,27.7c0-19.5,0-38.6,0-58.2c-29.7,0-59.4,0-89.5,0c0-45.2,0-90,0-135.1
	c18.6,0,37,0,56,0c0-15.7,0-31.2,0-46.6c30,0,60,0,90,0c0,15.3,0,30.7,0,46.5c18.8,0,37.4,0,56.1,0c0,45.1,0,89.8,0,134.9
	c-29.8,0-59.6,0-89.6,0c0,19.6,0,38.8,0,58.2c30.2-34.2,68.1-37.4,109.3-28.3c-0.9,36.1-15.2,75.1-52.6,92.6
	c-16.8,7.9-34.6,10.1-53,9.3c-1.1-0.1-2.2-0.2-3.7-0.3c0,16.1,0,32,0,48.4c29.6,0,59.4,0,89.7,0c0,7.8,0,15.3,0,22.7
	C331.5,613.6,264,613.6,196.5,613.6z M219.2,388.4c52.6,0,104.8,0,157.1,0c0-15,0-29.7,0-44.5c-22.5,0-44.8,0-67.4,0
	c0,7.5,0,14.7,0,22c-7.6,0-14.9,0-22.6,0c0-7.5,0-14.8,0-22.1c-22.6,0-44.8,0-67.2,0C219.2,358.7,219.2,373.4,219.2,388.4z
	 M219.2,320.9c52.5,0,104.8,0,157,0c0-7.5,0-14.8,0-22.1c-52.5,0-104.6,0-157,0C219.2,306.2,219.2,313.4,219.2,320.9z M311.2,519.7
	c37.3,8.7,80.3-22.8,81.7-59.6C349.8,455.1,320.7,475.8,311.2,519.7z M284,519.7c-8.5-44.2-39.7-64.7-81.6-59.6
	C211.1,504.8,242.8,524.8,284,519.7z M320.1,252.4c-15.1,0-29.8,0-44.5,0c0,8,0,15.8,0,23.5c15,0,29.7,0,44.5,0
	C320.1,268.1,320.1,260.4,320.1,252.4z"/>
</svg>
