<svg width="100" height="100" viewBox="0 0 100 100" fill="none" xmlns="http://www.w3.org/2000/svg">
<path d="M55.7598 26.7102H63.5998C66.0946 26.7049 68.4855 25.7101 70.2478 23.9441C72.0101 22.1781 72.9998 19.7851 72.9998 17.2902V9.4502H65.1798C62.6814 9.4502 60.2854 10.4427 58.5188 12.2092C56.7522 13.9758 55.7598 16.3719 55.7598 18.8702V25.1102" stroke="black" stroke-width="6" stroke-miterlimit="10" stroke-linecap="square"/>
<path d="M83.7008 56.8398H16.3008V90.5498H83.7008V56.8398Z" stroke="black" stroke-width="6" stroke-miterlimit="10" stroke-linecap="square"/>
<path d="M16.3008 56.8399C16.3008 51.0211 18.6123 45.4405 22.7269 41.326C26.8414 37.2114 32.4219 34.8999 38.2408 34.8999C44.0596 34.8999 49.6402 37.2114 53.7547 41.326C57.8693 45.4405 60.1808 51.0211 60.1808 56.8399" stroke="black" stroke-width="6" stroke-miterlimit="10"/>
<path d="M62.5293 39.4898C65.0503 38.8799 67.6768 38.8502 70.211 39.4028C72.7452 39.9554 75.1209 41.0759 77.1592 42.68C79.1974 44.284 80.845 46.3297 81.9779 48.6629C83.1108 50.9961 83.6994 53.5561 83.6993 56.1498" stroke="black" stroke-width="6" stroke-miterlimit="10"/>
</svg>
