<svg width="110" height="110" viewBox="0 0 110 110" fill="none" xmlns="http://www.w3.org/2000/svg">
<path d="M67.6 42.2002H16V69.7002H67.6V42.2002Z" stroke="#000000" stroke-width="6" stroke-miterlimit="6"/>
<path d="M41.8 56.2002V42.2002" stroke="#000000" stroke-width="6" stroke-miterlimit="6"/>
<path d="M25.1001 42.2V27.9C25.1001 19.1 32.6001 12 41.8001 12C51.0001 12 58.5001 19.1 58.5001 27.9V42.2" stroke="#000000" stroke-width="6" stroke-miterlimit="6"/>
<path d="M47.7 102.4C52.5049 102.4 56.4 98.5049 56.4 93.7C56.4 88.8951 52.5049 85 47.7 85C42.8951 85 39 88.8951 39 93.7C39 98.5049 42.8951 102.4 47.7 102.4Z" stroke="#000000" stroke-width="6" stroke-miterlimit="6"/>
<path d="M91.2 55.1998C96.0049 55.1998 99.9 51.3047 99.9 46.4998C99.9 41.6949 96.0049 37.7998 91.2 37.7998C86.3951 37.7998 82.5 41.6949 82.5 46.4998C82.5 51.3047 86.3951 55.1998 91.2 55.1998Z" stroke="#000000" stroke-width="6" stroke-miterlimit="6"/>
<path d="M52.6001 93.7001H91.2001V53.1001" stroke="#000000" stroke-width="6" stroke-miterlimit="6"/>
<path d="M91.2 7V36.5" stroke="#000000" stroke-width="6" stroke-miterlimit="6"/>
<path d="M11 93.7002H43.6" stroke="#000000" stroke-width="6" stroke-miterlimit="6"/>
</svg>
