<svg width="122" height="132" viewBox="0 0 122 132" fill="none" xmlns="http://www.w3.org/2000/svg">
<path fill-rule="evenodd" clip-rule="evenodd" d="M121.41 39.9786C121.512 40.677 121.539 41.3844 121.49 42.0886C121.493 46.0149 121.492 49.9412 121.492 53.8695C121.49 66.4397 121.489 79.0306 121.58 91.7086C121.565 96.1901 119.878 100.505 116.85 103.809C115.243 105.725 113.268 107.3 111.04 108.439C110.784 108.596 110.528 108.753 110.272 108.911C106.148 111.445 102.024 113.979 97.7404 116.239C95.7523 117.589 93.7017 118.748 91.6319 119.918C90.7139 120.437 89.7922 120.958 88.8704 121.499C87.8513 122.104 86.805 122.677 85.7595 123.249C85.3893 123.452 85.0192 123.655 84.6504 123.859C83.1876 124.697 81.7232 125.533 80.2591 126.369C77.9 127.715 75.5414 129.061 73.1904 130.419C72.5004 130.789 72.2904 130.599 72.1904 129.929C71.7804 126.929 71.2804 123.929 70.7804 120.929C70.6904 120.409 70.7404 120.089 71.3304 119.929C73.0831 119.443 74.8275 118.908 76.5743 118.372C79.1432 117.585 81.7173 116.795 84.3304 116.159C87.2436 115.032 90.2406 114.207 93.2293 113.385C93.5031 113.309 93.7769 113.234 94.0504 113.159C94.9949 112.785 95.894 112.305 96.7304 111.729C97.7055 110.44 98.3633 108.939 98.6504 107.349C99.2791 104.748 99.9488 102.159 100.618 99.5702C101.046 97.9174 101.474 96.2645 101.89 94.6086C101.931 94.2893 102.066 93.9895 102.278 93.7472C102.49 93.505 102.769 93.3314 103.08 93.2486C104.62 92.757 106.042 91.9561 107.261 90.895C108.48 89.8339 109.469 88.535 110.167 87.0779C110.866 85.6208 111.259 84.0364 111.323 82.4218C111.388 80.8072 111.121 79.1965 110.54 77.6886C110.367 77.1744 110.161 76.6969 109.959 76.2258C109.882 76.0463 109.805 75.8678 109.73 75.6886C108.761 74.0276 107.412 72.6193 105.795 71.5783C104.178 70.5373 102.337 69.8931 100.424 69.6981C98.5105 69.5032 96.578 69.763 94.7841 70.4565C92.9901 71.1499 91.3853 72.2574 90.1004 73.6886C87.0004 77.6886 86.1004 81.9786 88.1004 86.6886C88.6928 88.116 89.5865 89.3985 90.7204 90.4486C90.9258 90.6128 91.0761 90.8358 91.1512 91.0878C91.2262 91.3398 91.2225 91.6088 91.1404 91.8586C90.8303 93.1897 90.5429 94.5255 90.2555 95.8614C89.9406 97.3255 89.6255 98.7897 89.2804 100.249C89.11 101.234 88.6438 102.145 87.9436 102.859C87.2434 103.574 86.3425 104.058 85.3604 104.249C84.1739 104.542 83.005 104.871 81.8362 105.2C81.2517 105.364 80.6672 105.529 80.0804 105.689C78.3054 106.236 76.509 106.78 74.7077 107.326C73.0183 107.838 71.3247 108.351 69.6404 108.869C69.1704 109.009 68.8604 109.019 68.7804 108.399C68.539 106.489 68.1989 104.593 67.8588 102.698C67.2551 99.3335 66.6516 95.9699 66.6004 92.5286C66.5436 89.2132 67.4917 86.0952 68.4419 82.9706C68.4948 82.7966 68.5477 82.6226 68.6004 82.4486C72.1604 70.5019 75.7204 58.5286 79.2804 46.5286C79.317 46.4126 79.3686 46.2967 79.419 46.1831C79.4513 46.1104 79.4832 46.0387 79.5104 45.9686C79.7549 45.1526 79.9799 44.3327 80.2047 43.5141C80.6051 42.0554 81.0044 40.6006 81.5104 39.1786C82.1917 37.5054 82.4619 35.6933 82.2983 33.8942C82.1348 32.0951 81.5422 30.3614 80.5704 28.8386C79.6127 27.5069 78.3488 26.425 76.8853 25.6842C75.4218 24.9435 73.8016 24.5655 72.1613 24.5821C70.5211 24.5988 68.9089 25.0096 67.4608 25.78C66.0126 26.5504 64.7709 27.6577 63.8404 29.0086C62.5121 31.2003 61.9353 33.637 61.3586 36.0737C61.1537 36.939 60.9489 37.8043 60.7104 38.6586C59.2507 43.8876 57.8373 49.1335 56.4237 54.3799C55.6585 57.2202 54.8932 60.0606 54.1204 62.8986C54.0778 63.0121 54.0206 63.1197 53.9504 63.2186C53.8436 63.6457 53.7369 64.0723 53.6293 64.5019C53.3038 65.8022 52.9712 67.1304 52.6104 68.5886L48.1604 64.4786C47.4491 63.8176 46.7438 63.1487 46.0385 62.4797C44.3643 60.8917 42.6894 59.3032 40.9304 57.8186C38.8604 56.0886 38.5604 54.0686 39.3104 51.6886C39.7751 50.218 40.2485 48.7474 40.7218 47.2769C41.8579 43.7474 42.994 40.218 44.0104 36.6886C44.5404 34.8286 45.3204 33.7986 47.3204 33.4086C49.6504 32.9586 51.4304 31.3386 53.1204 29.7186C55.1634 27.1698 56.2464 23.9844 56.1804 20.7186C56.0292 17.3878 54.6039 14.2425 52.1993 11.9328C49.7947 9.62315 46.5946 8.32566 43.2604 8.30857C43.0489 8.31437 42.8331 8.36889 42.6133 8.42442C42.0749 8.56045 41.5128 8.70249 40.9304 8.14857C42.2335 7.42694 43.5081 6.65408 44.7798 5.88291C49.0418 3.29851 53.2725 0.733104 58.4404 0.178573C60.2535 -0.08937 62.0984 -0.0555806 63.9004 0.278573L64.9004 0.388573C64.9834 0.35814 65.074 0.355328 65.1587 0.380556C65.2434 0.405784 65.3177 0.457702 65.3704 0.528573C67.8423 0.951868 70.2151 1.82643 72.3704 3.10857C75.4704 4.78857 78.5404 6.45857 81.4704 8.45857C84.4604 9.96857 87.3204 11.6986 90.1604 13.4586C93.4304 15.1986 96.6404 17.0186 99.8004 19.0186C101.97 20.109 104.027 21.3661 106.081 22.6213C107.549 23.5186 109.016 24.4148 110.52 25.2486C113.31 26.7487 115.733 28.8472 117.615 31.3939C119.498 33.9405 120.794 36.8721 121.41 39.9786ZM80.9604 9.01857C80.9879 8.91182 81.0392 8.81268 81.1104 8.72857H81.0604C81.0069 8.81707 80.9729 8.91592 80.9604 9.01857ZM26.7138 23.7239C26.2844 23.9836 25.8536 24.2423 25.4105 24.4786C23.2601 25.6461 21.1403 26.8745 19.0193 28.1036L19.0192 28.1036C17.9247 28.7379 16.8299 29.3723 15.7305 29.9986C11.8305 32.2186 7.91712 34.4319 3.99046 36.6386C3.15939 37.226 2.24623 37.6876 1.28046 38.0086C2.12958 34.9163 3.73046 32.0821 5.94046 29.7586C8.54046 26.8186 11.8805 24.8686 15.2505 22.9686C18.5553 21.1089 21.8526 19.2268 25.1494 17.3452L25.1496 17.345L25.15 17.3448C27.2598 16.1406 29.3694 14.9366 31.4805 13.7386C31.7347 13.5157 32.0315 13.3468 32.3529 13.2419C32.6744 13.1371 33.0137 13.0985 33.3505 13.1286C31.3681 15.6569 30.3285 18.7968 30.4105 22.0086L30.4105 22.0086C30.7138 25.285 32.1463 28.3538 34.4623 30.6903L34.4804 30.6786C35.6804 31.1686 35.8504 31.9286 35.3904 33.1386C34.8104 34.6594 34.3154 36.2153 33.8205 37.7708L33.8202 37.7718C33.6156 38.4149 33.411 39.058 33.2004 39.6986C30.7017 40.9088 28.2653 42.2439 25.9004 43.6986C22.7964 45.4336 19.7061 47.2008 16.614 48.969L16.613 48.9695C15.1431 49.8101 13.6728 50.6509 12.2004 51.4886L1.52044 57.5186C1.2338 57.6852 0.92938 57.8163 0.624959 57.9474L0.624877 57.9475C0.472659 58.013 0.320441 58.0786 0.170445 58.1486C0.0304455 55.4086 0.0404453 52.6786 0.120445 49.9386L0.120476 49.9385C-0.0412155 47.6938 -0.0178026 45.4395 0.190478 43.1986C0.480478 43.1986 0.750478 43.1386 0.780478 42.7586C0.795928 42.6896 0.795255 42.6179 0.778511 42.5492C0.761767 42.4805 0.729404 42.4165 0.683936 42.3624C0.638468 42.3082 0.58112 42.2652 0.51635 42.2368C0.45344 42.2092 0.385173 42.1961 0.316566 42.1983C0.374968 42.2002 0.432588 42.2133 0.486303 42.2368C0.551073 42.2652 0.608421 42.3082 0.653889 42.3624C0.699357 42.4165 0.73172 42.4805 0.748464 42.5492C0.765208 42.6179 0.765881 42.6896 0.750431 42.7586C0.750431 43.1386 0.450431 43.1886 0.160431 43.1986C0.0879745 42.9812 0.146767 42.7821 0.204727 42.5857C0.242758 42.4569 0.280431 42.3293 0.280431 42.1986C0.290465 42.1981 0.300495 42.198 0.310505 42.1982C0.412087 40.7594 0.739414 39.3456 1.28046 38.0086C2.25904 37.6975 3.18585 37.2425 4.03048 36.6586C7.96381 34.4586 11.8771 32.2452 15.7705 30.0186C16.8694 29.3925 17.9638 28.7584 19.0578 28.1244L19.0579 28.1244L19.0586 28.124L19.0593 28.1236C21.1803 26.8945 23.3001 25.6661 25.4505 24.4986C25.8415 24.2727 26.2249 24.0315 26.6081 23.7904L26.7138 23.7239ZM29.6854 50.9286C29.7629 50.6786 29.8404 50.4286 29.9204 50.1786L30.4529 48.463L30.4804 48.4486C30.839 47.6536 31.0977 46.8172 31.2504 45.9586C30.9417 45.6823 31.0357 45.5645 31.2642 45.4925C31.058 45.5654 30.9856 45.6847 31.2805 45.9486C31.358 45.891 31.4172 45.8122 31.4509 45.7217C31.4847 45.6312 31.4914 45.5328 31.4705 45.4386L31.4415 45.4447C31.5511 45.036 31.6608 44.6273 31.7804 44.2286L31.7649 44.2136C31.8544 44.112 31.9225 43.9933 31.9648 43.8647C32.0065 43.7379 32.0224 43.6041 32.0116 43.4712L32.0304 43.4686L32.2104 42.9586L32.1958 42.9393C32.4978 42.4143 32.6766 41.8276 32.7188 41.2235L32.7404 41.2086C33.0372 40.7631 33.2034 40.2436 33.2204 39.7086C30.7217 40.9189 28.2853 42.2539 25.9204 43.7086C22.8164 45.4436 19.7261 47.2108 16.634 48.979L16.6314 48.9805C15.162 49.8208 13.6923 50.6612 12.2204 51.4986L1.54045 57.5586C1.25378 57.7253 0.949327 57.8564 0.644878 57.9875C0.49266 58.053 0.340441 58.1186 0.190445 58.1886C0.0404409 60.4328 0.0404409 62.6844 0.190445 64.9286L0.21565 64.9291C0.0406234 66.4172 0.0422265 67.9208 0.220461 69.4086H0.220448C0.00778184 72.5309 0.0661037 75.6532 0.124426 78.7755L0.130343 79.0929L0.120465 79.0986C-0.0195348 82.6086 -0.0595349 86.1086 0.120465 89.6086C2.32786 88.5937 4.41456 87.3816 6.49795 86.1715L6.498 86.1715L6.49809 86.1714C7.69915 85.4738 8.89911 84.7768 10.1205 84.1186C10.9485 83.5743 11.8513 83.1532 12.8005 82.8686C13.5537 80.5792 14.8992 78.5299 16.7005 76.9286C18.3025 75.567 20.2044 74.6042 22.2502 74.1193C24.2961 73.6343 26.4277 73.6409 28.4705 74.1386L28.4838 74.1157L28.4953 74.0963C31.0519 74.8973 33.3491 76.365 35.1505 78.3486L42.5005 74.3486C42.6427 74.2645 42.7619 74.1466 42.8474 74.0052C42.9329 73.8639 42.982 73.7036 42.9905 73.5386L38.0105 68.5686C37.9887 68.5694 37.967 68.5706 37.9452 68.5721C35.5021 66.0596 33.0484 63.5479 30.4566 61.1742L30.4604 61.1686C28.5409 59.189 27.6309 56.9296 28.4599 54.1704C28.4734 54.1696 28.4869 54.169 28.5004 54.1686C28.7527 53.8892 28.9163 53.5411 28.9704 53.1686L28.9705 53.1686C29.2295 52.7094 29.3928 52.2026 29.4504 51.6786C29.5304 51.4286 29.6079 51.1786 29.6854 50.9286ZM0.790448 69.1386L0.823157 69.1209C0.901428 68.6086 0.95957 68.0937 0.997496 67.5773C0.949194 68.1 0.88014 68.6209 0.790448 69.1386ZM24.1372 56.3359C23.7139 56.5659 23.2907 56.7958 22.868 57.0267C23.4892 56.6843 24.1181 56.344 24.7507 56.0025L24.1372 56.3359ZM47.1805 91.3386C47.0702 93.4799 47.3102 95.5976 47.5505 97.7191L47.5506 97.7193C47.7233 99.2438 47.8963 100.77 47.9396 102.309L47.9405 102.309C48.3515 104.571 48.5988 106.86 48.6805 109.159C48.6496 109.941 48.7202 110.724 48.8905 111.489C49.27 112.96 49.4813 114.47 49.5205 115.989C49.6823 117.18 49.7981 118.379 49.9138 119.579C49.9769 120.233 50.0399 120.886 50.1105 121.539L50.1471 121.814C50.4753 124.283 50.8048 126.762 50.9205 129.259C51.1235 129.636 51.1484 130.037 51.1746 130.457C51.1948 130.782 51.2158 131.12 51.3205 131.469C50.4894 131.298 49.7233 130.895 49.1105 130.309C46.7973 129.212 44.6136 127.9 42.4311 126.589L41.9305 126.289C38.7105 124.549 35.5005 122.769 32.4105 120.809C32.282 120.738 32.1773 120.631 32.1096 120.501C32.042 120.371 32.0144 120.224 32.0305 120.079C32.0439 118.729 31.9589 117.382 31.8736 116.03C31.7686 114.367 31.6632 112.697 31.7405 111.009C31.4521 107.379 31.2923 103.74 31.2217 100.071L31.1805 100.089C30.7505 98.7086 31.2905 97.9186 32.5005 97.0886C34.0418 96.0506 35.3349 94.6851 36.2874 93.0896C37.2398 91.494 37.8282 89.7078 38.0105 87.8586C38.2126 84.4655 37.1986 81.1114 35.1505 78.3986L42.5005 74.3986C42.6427 74.3145 42.7619 74.1966 42.8474 74.0552C42.9329 73.9139 42.982 73.7536 42.9905 73.5886C44.2902 74.6628 45.4772 75.8708 46.6581 77.0727L46.6581 77.0727C47.467 77.8959 48.273 78.7162 49.1105 79.4886C49.2491 79.6119 49.3378 79.7817 49.3599 79.9659C49.382 80.1501 49.336 80.336 49.2305 80.4886C49.0072 80.9999 48.8099 81.5268 48.6123 82.0543L48.6123 82.0543L48.6123 82.0544L48.6122 82.0545L48.6122 82.0545L48.6122 82.0546L48.6122 82.0547L48.6122 82.0547L48.6121 82.0548L48.6121 82.0549L48.6121 82.0549L48.6121 82.055L48.612 82.0551L48.612 82.0551L48.612 82.0552L48.612 82.0553C48.5353 82.2599 48.4587 82.4646 48.3805 82.6686C48.3651 82.668 48.3498 82.6675 48.3345 82.6673C47.7437 85.5337 47.3448 88.4363 47.1407 91.3558L47.1805 91.3386ZM46.9534 91.4381C45.6215 92.0127 44.3588 92.7408 43.1021 93.4817C44.3595 92.7572 45.6221 92.0308 46.9534 91.4381ZM2.81047 96.6886C2.44832 96.9412 2.01804 97.0772 1.5772 97.0789C2.02501 97.0813 2.46285 96.9451 2.83048 96.6886C3.39228 96.3804 3.95856 96.0789 4.52483 95.7774C6.03492 94.9735 7.54501 94.1695 8.97048 93.2386C9.41358 92.9489 9.90315 92.7242 10.3925 92.4997C11.3387 92.0654 12.2841 91.6316 12.8905 90.7286C14.1178 93.9627 16.4646 96.649 19.504 98.2997L19.5205 98.2886C20.0405 98.2886 20.2305 98.6286 20.2405 99.1086C20.2871 101.575 20.3438 104.045 20.4105 106.519L20.3931 106.526C20.4957 107.581 20.5087 108.638 20.522 109.72C20.5391 111.121 20.5568 112.564 20.7704 114.099C20.3422 113.855 19.9201 113.617 19.5039 113.382L19.5038 113.382L19.5037 113.382L19.5036 113.382C17.5489 112.281 15.7253 111.253 14.0105 110.009C11.5649 108.869 9.29785 107.38 7.28048 105.589C4.59945 103.355 2.61161 100.403 1.55055 97.0788L1.53047 97.0786C0.581806 94.7038 0.109508 92.1656 0.140467 89.6086C2.29687 88.6114 4.34451 87.4239 6.39475 86.2349C7.63417 85.5161 8.87454 84.7967 10.1405 84.1186C10.9685 83.5743 11.8713 83.1532 12.8205 82.8686C11.8205 85.4986 12.2805 88.1086 12.8705 90.7286C12.2117 91.6311 11.2839 92.0649 10.3558 92.4989L10.3557 92.4989C9.87492 92.7237 9.39406 92.9485 8.95047 93.2386C7.4756 94.1825 5.95722 94.9959 4.43545 95.8111C3.89361 96.1014 3.35135 96.3919 2.81047 96.6886ZM7.28133 105.587C7.9037 104.77 8.78206 104.349 9.65661 103.931L9.65669 103.931C9.89573 103.817 10.1345 103.702 10.3677 103.58C10.1735 103.676 9.976 103.769 9.77808 103.861C8.85403 104.292 7.92126 104.728 7.28133 105.587Z" fill="#484848"/>
</svg>
