<svg width="118" height="24" viewBox="0 0 118 24" fill="none" xmlns="http://www.w3.org/2000/svg">
<path d="M27.7116 9.19482C23.4823 9.19482 20.0586 12.5064 20.0586 16.5973C20.0586 20.6881 23.4823 23.9997 27.7116 23.9997C30.3699 23.9997 32.7867 22.714 34.1964 20.5322L31.82 19.0518C30.9338 20.4154 29.4033 21.2335 27.7518 21.2335C25.5768 21.2335 23.7642 19.831 23.1601 17.9609H35.4048V16.5973C35.3242 12.5064 31.9005 9.19482 27.7116 9.19482ZM23.0795 15.1947C23.6837 13.2856 25.5365 11.922 27.6713 11.922C29.806 11.922 31.6589 13.3246 32.263 15.1947H23.0795Z" fill="black"/>
<path d="M44.6666 9.19482C40.4374 9.19482 37.0137 12.5064 37.0137 16.5973C37.0137 20.6881 40.4374 23.9997 44.6666 23.9997C47.325 23.9997 49.7418 22.714 51.1515 20.5322L48.7751 19.0518C47.8889 20.4154 46.3583 21.2335 44.7069 21.2335C42.5319 21.2335 40.7193 19.831 40.1151 17.9609H52.3599V16.5973C52.3196 12.5064 48.8959 9.19482 44.6666 9.19482ZM40.0749 15.1947C40.679 13.2856 42.5319 11.922 44.6666 11.922C46.8417 11.922 48.6542 13.3246 49.2584 15.1947H40.0749Z" fill="black"/>
<path d="M112.421 16.5973C112.421 12.5064 108.997 9.19482 104.768 9.19482C100.539 9.19482 97.1152 12.5064 97.1152 16.5973C97.1152 20.6881 100.539 23.9997 104.768 23.9997C107.427 23.9997 109.843 22.714 111.253 20.5322L108.877 19.0518C107.99 20.4154 106.46 21.2335 104.808 21.2335C102.633 21.2335 100.821 19.831 100.217 17.9609H112.461V16.5973H112.421ZM100.176 15.1947C100.781 13.2856 102.633 11.922 104.768 11.922C106.903 11.922 108.756 13.3246 109.36 15.1947H100.176Z" fill="black"/>
<path d="M13.8962 11.2205C15.0642 10.0128 15.749 8.41541 15.749 6.6622C15.749 2.96098 12.6475 0 8.82104 0H2.81951H1.57087H0V23.9605H1.57087H2.81951H10.9961C14.8226 23.9605 17.924 20.9606 17.924 17.2983C17.9643 14.6101 16.3129 12.2725 13.8962 11.2205ZM8.82104 2.72721C11.0766 2.72721 12.9295 4.48043 12.9295 6.6622C12.9295 8.84397 11.0766 10.5972 8.82104 10.5972H2.81951V2.72721H8.82104ZM11.0364 21.2333H2.81951V13.3633H8.82104H10.9961C13.2517 13.3633 15.1045 15.1166 15.1045 17.2983C15.1448 19.4801 13.292 21.2333 11.0364 21.2333Z" fill="black"/>
<path d="M66.6207 0C59.7733 0 54.2148 5.37648 54.2148 11.9997C54.2148 18.6229 59.7733 23.9994 66.6207 23.9994C73.4681 23.9994 79.0265 18.6229 79.0265 11.9997C79.0265 5.37648 73.4681 0 66.6207 0ZM66.6207 21.2332C61.3442 21.2332 57.0746 17.1034 57.0746 11.9997C57.0746 6.89592 61.3442 2.76616 66.6207 2.76616C71.8972 2.76616 76.1667 6.89592 76.1667 11.9997C76.1667 17.1034 71.8972 21.2332 66.6207 21.2332Z" fill="black"/>
<path d="M88.2463 9.15576C86.8366 9.15576 85.5477 9.58432 84.4601 10.3246V9.15576H81.6406V15.5452V23.9606H84.4601V15.5452C84.4601 13.5193 86.1518 11.883 88.2463 11.883C90.3408 11.883 92.0325 13.5193 92.0325 15.5452V23.9606H94.852V15.5452C94.852 12.0388 91.9117 9.15576 88.2463 9.15576Z" fill="black"/>
<path d="M113.909 10.9074C113.587 10.7126 113.305 10.4399 113.103 10.0893C112.902 9.73863 112.821 9.34902 112.821 8.95942C112.821 8.56981 112.902 8.18021 113.103 7.82957C113.305 7.47893 113.546 7.2062 113.909 7.0114C114.231 6.8166 114.634 6.69971 115.077 6.69971C115.52 6.69971 115.883 6.8166 116.245 7.0114C116.567 7.2062 116.849 7.47893 117.051 7.82957C117.252 8.18021 117.333 8.56981 117.333 8.95942C117.333 9.38798 117.252 9.77759 117.051 10.0893C116.849 10.4399 116.608 10.7126 116.245 10.9074C115.883 11.1022 115.52 11.2191 115.117 11.2191C114.634 11.1802 114.271 11.1022 113.909 10.9074ZM116.044 10.6347C116.326 10.4789 116.567 10.2451 116.728 9.93343C116.89 9.62175 116.97 9.31006 116.97 8.95942C116.97 8.60878 116.89 8.25813 116.728 7.98541C116.567 7.67372 116.326 7.43996 116.044 7.28411C115.762 7.12827 115.44 7.0114 115.077 7.0114C114.715 7.0114 114.392 7.08931 114.11 7.28411C113.828 7.43996 113.587 7.67372 113.426 7.98541C113.264 8.29709 113.184 8.60878 113.184 8.95942C113.184 9.31006 113.264 9.66071 113.426 9.93343C113.587 10.2451 113.828 10.4789 114.11 10.6347C114.392 10.7906 114.715 10.9074 115.077 10.9074C115.399 10.8685 115.721 10.7906 116.044 10.6347ZM114.151 7.67372H114.996C115.319 7.67372 115.601 7.71269 115.762 7.82957C115.923 7.94645 116.003 8.10229 116.003 8.37501C116.003 8.60878 115.963 8.80357 115.883 8.92046C115.802 9.03734 115.681 9.11526 115.48 9.19318L116.003 10.1672H115.601L115.077 9.23213H114.433V10.1672H114.07V7.67372H114.151ZM115.117 8.92046C115.319 8.92046 115.44 8.8815 115.52 8.80358C115.601 8.72566 115.641 8.60877 115.641 8.45293C115.641 8.14124 115.44 7.98541 114.996 7.98541H114.513V8.92046H115.117Z" fill="black"/>
</svg>
