<svg width="147" height="31" viewBox="0 0 147 31" fill="none" xmlns="http://www.w3.org/2000/svg">
<path d="M34.6393 11.6289C29.3527 11.6289 25.073 15.7684 25.073 20.8819C25.073 25.9954 29.3527 30.1349 34.6393 30.1349C37.9624 30.1349 40.9833 28.5278 42.7455 25.8006L39.7749 23.95C38.6672 25.6545 36.754 26.6772 34.6897 26.6772C31.9708 26.6772 29.7051 24.924 28.9499 22.5864H44.256V20.8819C44.1553 15.7684 39.8756 11.6289 34.6393 11.6289ZM28.8492 19.1287C29.6044 16.7424 31.9205 15.0379 34.589 15.0379C37.2575 15.0379 39.5735 16.7911 40.3288 19.1287H28.8492Z" fill="white"/>
<path d="M55.8339 11.6289C50.5473 11.6289 46.2676 15.7684 46.2676 20.8819C46.2676 25.9954 50.5473 30.1349 55.8339 30.1349C59.157 30.1349 62.1779 28.5278 63.9401 25.8006L60.9695 23.95C59.8618 25.6545 57.9486 26.6772 55.8843 26.6772C53.1654 26.6772 50.8997 24.924 50.1445 22.5864H65.4506V20.8819C65.4002 15.7684 61.1206 11.6289 55.8339 11.6289ZM50.0941 19.1287C50.8493 16.7424 53.1654 15.0379 55.8339 15.0379C58.5528 15.0379 60.8185 16.7911 61.5737 19.1287H50.0941Z" fill="white"/>
<path d="M140.528 20.8809C140.528 15.7674 136.248 11.6279 130.962 11.6279C125.675 11.6279 121.396 15.7674 121.396 20.8809C121.396 25.9944 125.675 30.1339 130.962 30.1339C134.285 30.1339 137.306 28.5268 139.068 25.7996L136.097 23.949C134.99 25.6535 133.076 26.6762 131.012 26.6762C128.293 26.6762 126.028 24.923 125.272 22.5854H140.578V20.8809H140.528ZM125.222 19.1277C125.977 16.7414 128.293 15.0369 130.962 15.0369C133.63 15.0369 135.946 16.7901 136.702 19.1277H125.222Z" fill="white"/>
<path d="M17.3704 14.1603C18.8305 12.6506 19.6865 10.6539 19.6865 8.46245C19.6865 3.83596 15.8096 0.134766 11.0264 0.134766H3.52443H1.96361H0V30.0852H1.96361H3.52443H13.7453C18.5285 30.0852 22.4053 26.3353 22.4053 21.7575C22.4557 18.3972 20.3914 15.4752 17.3704 14.1603ZM11.0264 3.54376C13.846 3.54376 16.162 5.73525 16.162 8.46245C16.162 11.1896 13.846 13.3811 11.0264 13.3811H3.52443V3.54376H11.0264ZM13.7956 26.6762H3.52443V16.8388H11.0264H13.7453C16.5648 16.8388 18.8809 19.0303 18.8809 21.7575C18.9312 24.4847 16.6152 26.6762 13.7956 26.6762Z" fill="white"/>
<path d="M83.277 0.134766C74.7177 0.134766 67.7695 6.85531 67.7695 15.1343C67.7695 23.4132 74.7177 30.1338 83.277 30.1338C91.8364 30.1338 98.7845 23.4132 98.7845 15.1343C98.7845 6.85531 91.8364 0.134766 83.277 0.134766ZM83.277 26.6761C76.6813 26.6761 71.3443 21.5139 71.3443 15.1343C71.3443 8.7546 76.6813 3.59244 83.277 3.59244C89.8727 3.59244 95.2098 8.7546 95.2098 15.1343C95.2098 21.5139 89.8727 26.6761 83.277 26.6761Z" fill="white"/>
<path d="M110.309 11.5801C108.547 11.5801 106.935 12.1158 105.576 13.0411V11.5801H102.052V19.5669V30.086H105.576V19.5669C105.576 17.0345 107.691 14.9891 110.309 14.9891C112.927 14.9891 115.042 17.0345 115.042 19.5669V30.086H118.566V19.5669C118.566 15.1839 114.891 11.5801 110.309 11.5801Z" fill="white"/>
<path d="M142.388 13.7694C141.985 13.5259 141.632 13.185 141.381 12.7467C141.129 12.3084 141.028 11.8214 141.028 11.3344C141.028 10.8474 141.129 10.3604 141.381 9.92208C141.632 9.48378 141.935 9.14288 142.388 8.89938C142.791 8.65587 143.294 8.50977 143.848 8.50977C144.402 8.50977 144.855 8.65587 145.308 8.89938C145.711 9.14288 146.063 9.48378 146.315 9.92208C146.567 10.3604 146.667 10.8474 146.667 11.3344C146.667 11.8701 146.567 12.3571 146.315 12.7467C146.063 13.185 145.761 13.5259 145.308 13.7694C144.855 14.0129 144.402 14.159 143.898 14.159C143.294 14.1103 142.841 14.0129 142.388 13.7694ZM145.056 13.4285C145.409 13.2337 145.711 12.9415 145.912 12.5519C146.114 12.1623 146.214 11.7727 146.214 11.3344C146.214 10.8961 146.114 10.4578 145.912 10.1169C145.711 9.72728 145.409 9.43507 145.056 9.24027C144.704 9.04547 144.301 8.89938 143.848 8.89938C143.395 8.89938 142.992 8.99677 142.639 9.24027C142.287 9.43507 141.985 9.72728 141.784 10.1169C141.582 10.5065 141.481 10.8961 141.481 11.3344C141.481 11.7727 141.582 12.211 141.784 12.5519C141.985 12.9415 142.287 13.2337 142.639 13.4285C142.992 13.6233 143.395 13.7694 143.848 13.7694C144.251 13.7207 144.653 13.6233 145.056 13.4285ZM142.69 9.72727H143.747C144.15 9.72727 144.502 9.77598 144.704 9.92208C144.905 10.0682 145.006 10.263 145.006 10.6039C145.006 10.8961 144.956 11.1396 144.855 11.2857C144.754 11.4318 144.603 11.5292 144.351 11.6266L145.006 12.8441H144.502L143.848 11.6753H143.042V12.8441H142.589V9.72727H142.69ZM143.898 11.2857C144.15 11.2857 144.301 11.237 144.402 11.1396C144.502 11.0422 144.553 10.8961 144.553 10.7013C144.553 10.3117 144.301 10.1169 143.747 10.1169H143.143V11.2857H143.898Z" fill="white"/>
</svg>
