<?xml version="1.0" encoding="utf-8"?><!--Generator: Adobe Illustrator 23.0.6, SVG Export Plug-In . SVG Version: 6.00 Build 0)--><svg version="1.1" id="圖層_1" xmlns="http://www.w3.org/2000/svg" xmlns:xlink="http://www.w3.org/1999/xlink" x="0px" y="0px" viewBox="0 0 128 128" style="enable-background:new 0 0 128 128" xml:space="preserve"><style type="text/css">.st0{fill:none}.st1{fill:#849b87}.st2{fill:#abbd81}.st3{fill:#c8dc96}.st4{fill:#66503a}.st5{fill:#4a3827}</style><path class="st0" d="z"/><g><g><path id="XMLID_58_" class="st1" d="M69.6,63.5l1.6,0.4c2.6,0.6,5.6,1.8,8.5,2.9c1.1,0.4,2.2,0.8,3.2,1.2 c3.1,1.1,6.9,2.4,10.7,2.4c0.4,0,0.9,0,1.3-0.1c4.6-0.4,8-2.7,11.2-5c2.3-1.6,4.5-3.2,7.1-3.9l3.8-1.1l-3.1-2.5 c-1.7-1.4-3.3-3-4.9-4.7c-1.5-1.6-3-3.2-4.8-4.7c-2.9-2.4-6.5-4.4-10.3-5.7c-6.6-2.3-13.1-2.1-17.6,0.4l-0.2,0.1 c-1.9,1.4-4.1,3.7-5.2,5.6c-1.2,2-2.7,5-3.2,7.4c-0.3,1.3-0.3,2.7-0.3,3.7C67.3,61.9,68.1,63.1,69.6,63.5z"/><path id="XMLID_56_" class="st2" d="M55.1,56.9c1.1-0.7,1.8-1.8,1.9-3c0.1-1.6,0.4-3.1,0.7-4.8c0.4-2.3,0.8-4.8,0.8-7.2 c0-4.1-1-8.5-3-12.6C52,22.2,46.2,17,39.5,15l-0.2,0c-3.4-0.7-7.8-0.8-10.3-0.5c-2.6,0.3-7.5,1-10.6,2.3c-3.1,1.2-5.8,3.3-5.9,3.3 L11,21.3l2.5,3.8c1.7,2.6,3.1,5.8,4.4,9c0.5,1.2,1,2.4,1.5,3.5c1.7,3.7,4.2,8.4,8.2,11.6c4.4,3.5,9.9,4.6,15.1,5.7 c3.1,0.6,6.1,1.3,8.8,2.3C52.8,57.6,54.1,57.5,55.1,56.9z"/><path id="XMLID_83_" class="st3" d="M77.7,35.9c0.5-0.1,0.9-0.2,1.3-0.4c0.6-0.3,1.3-0.5,1.9-0.7c1.2-0.4,2.5-0.8,3.9-1.6 c2-1.2,4.5-2.9,6.1-5.3c1.7-2.6,1.9-5.4,2-7.9c0.1-1.7,0.2-3.4,0.8-4.8l1.5-3.7l-3.8,0.9c-1.3,0.3-2.7,0.4-4.1,0.5 c-1.4,0.1-2.8,0.2-4.3,0.5c-2.4,0.5-4.9,1.5-7.1,2.9c-3.9,2.5-6.4,5.9-7,9.4l0,0.1l0,0.1c-0.1,1.6,0.2,3.7,0.8,5.1 c0.1,0.2,0.1,0.4,0.2,0.6c0.3,0.9,0.7,2.1,1.7,3.3c0.1,0.1,1.1,0.4,1.2,0.6l1.5,0.4c0.8,0.2,1.6,0.2,2.4,0.1 C76.5,36.1,77.7,35.9,77.7,35.9z"/></g><g><path class="st4" d="M111.5,58c-4.5-0.6-9-0.6-13.6-0.5c-2.3,0-4.5,0.1-6.8,0.3L87.8,58c-1.1,0.1-2.2,0.2-3.3,0.4 c-7.9,1.2-15.5,3.9-22.2,8.1c-1.2,0.7-2.7,0.3-3.5-0.8c-0.8-1.3-0.3-2.9,1.1-3.6c7.7-3.8,16-5.9,24.4-6.3c1.2-0.1,2.3-0.1,3.5-0.1 l3.4,0.2c2.3,0.1,4.6,0.2,6.8,0.4C102.5,56.6,107.1,57,111.5,58L111.5,58z"/><path class="st4" d="M85.1,19.4c-0.8,2.1-2,4-3.2,5.9c-1.2,1.9-2.5,3.7-3.8,5.6c-1.3,1.8-2.7,3.6-4,5.4c-1.4,1.8-2.9,3.5-4.5,5.2 c-2.8,3.2-4.9,6.8-6.1,10.7c-0.6,1.9-1,3.9-1.1,5.8c-0.1,1.9,0.1,4,0.4,6c0.3,2.1,0.7,4.2,1.1,6.5c0.4,2.2,0.7,4.6,0.9,6.9 c0.4,4.6,0.3,9.3-0.1,13.9c-0.5,4.6-1.3,9.2-2.5,13.7c-1.1,3.9-2.1,6.2-2.9,10.6c-0.2,1.3-1.3,2.2-2.6,2.2h-3.1 c-1.5,0-2.7-1.2-2.7-2.7c0-0.4,0.1-0.7,0.2-1c1.5-3.6,3.3-8,4.1-11c1.2-4.1,2.1-8.2,2.5-12.5c0.5-4.2,0.6-8.5,0.4-12.7 c-0.1-2.1-0.3-4.3-0.6-6.4c-0.3-2.2-0.6-4.4-0.8-6.7c-0.2-2.3-0.2-4.8,0.1-7.3c0.3-2.5,1-4.8,2-7.1c1.9-4.4,4.8-8.3,8.6-11.3 c3.3-2.8,6.3-6.1,9.3-9.3c1.5-1.6,3-3.3,4.4-5C82.5,22.9,84,21.3,85.1,19.4L85.1,19.4z"/><path class="st4" d="M21.2,23.4c9.9,5.6,18.8,12.7,26.4,21.1c3.8,4.2,7.4,8.7,10.3,13.7c2.5,4.2,4.5,8.9,5.6,13.8 c0.3,1.4-0.6,2.7-1.9,3c-0.1,0-0.2,0-0.3,0l0,0c-1.3,0.1-2.6-0.8-2.8-2.1c-0.6-4.4-2.1-8.7-4.1-12.8c-2.4-4.9-5.5-9.5-8.9-13.9 C38.8,37.3,30.5,29.6,21.2,23.4z"/><path id="XMLID_86_" class="st5" d="M53.4,113c-0.6,0.2-1.2,0.4-1.8,0.7c-1.8,0.8-3.5,2-5.1,3.2c-1.3,1-2.7,2.1-3.7,3.4h31.4 c-2.5-2.9-5.6-5.2-9.1-6.7c-2.2-0.9-4.5-1.3-6.9-1.4C56.6,112.3,55,112.6,53.4,113z"/></g></g><path class="st0" d="z"/><metadata xmlns:d="https://loading.io/stock/">
<d:name>entrepreneur</d:name>
<d:tags>startup,grow,newborn,leaf,plant,environment,csr,entrepreneur,business</d:tags>
<d:license>by</d:license>
<d:slug>c4d14p</d:slug>
</metadata></svg>