<svg width="160" height="160" fill="none" xmlns="http://www.w3.org/2000/svg"><rect width="160" height="160" rx="80" fill="#ff3636"/><path d="m42.5 56 6.335-7.138c4.11-4.63 11.4-4.444 15.267.39l.198.248c3.896 4.87 11.304 4.87 15.2 0 3.896-4.87 11.304-4.87 15.2 0 3.896 4.87 11.304 4.87 15.2 0l7.6-9.5m-75 46.5 6.335-7.138c4.11-4.63 11.4-4.444 15.267.39L64.3 80c3.896 4.87 11.304 4.87 15.2 0 3.896-4.87 11.304-4.87 15.2 0 3.896 4.87 11.304 4.87 15.2 0l7.6-9.5m-75 46.5 6.335-7.138c4.11-4.631 11.4-4.444 15.267.39l.198.248c3.896 4.87 11.304 4.87 15.2 0 3.896-4.87 11.304-4.87 15.2 0 3.896 4.87 11.304 4.87 15.2 0l7.6-9.5" stroke="#fff" stroke-width="6" stroke-miterlimit="10"/></svg>
