<?xml version="1.0" standalone="no"?>
<!DOCTYPE svg PUBLIC "-//W3C//DTD SVG 20010904//EN"
 "http://www.w3.org/TR/2001/REC-SVG-20010904/DTD/svg10.dtd">
<svg version="1.0" xmlns="http://www.w3.org/2000/svg"
 width="246.000000pt" height="272.000000pt" viewBox="0 0 246.000000 272.000000"
 preserveAspectRatio="xMidYMid meet">

<g transform="translate(0.000000,272.000000) scale(0.100000,-0.100000)"
fill="#000000" stroke="none">
<path d="M75 2701 c-38 -16 -58 -50 -63 -104 -5 -60 92 -454 280 -1142 138
-505 256 -960 308 -1185 47 -201 55 -225 84 -245 27 -19 96 -19 123 0 12 9 72
81 133 161 444 579 733 808 1243 984 207 71 269 114 269 185 0 68 -15 80 -387
295 -408 236 -1710 955 -1860 1026 -71 35 -95 39 -130 25z m317 -192 c559
-302 1426 -785 1773 -988 191 -112 239 -149 229 -176 -12 -30 -101 -76 -234
-119 -145 -48 -293 -109 -367 -153 -43 -25 -46 -25 -117 -14 -78 13 -175 36
-183 45 -3 3 -9 67 -13 143 -6 104 -14 156 -33 213 -16 47 -23 87 -20 108 l6
34 -32 -16 c-17 -9 -43 -35 -59 -58 -24 -37 -27 -51 -27 -122 0 -92 23 -153
88 -239 21 -26 37 -49 37 -51 0 -6 -153 45 -162 53 -5 4 -19 61 -32 126 -13
66 -29 134 -36 150 -11 28 -150 218 -156 213 -5 -6 36 -294 47 -326 6 -18 26
-53 45 -78 l34 -44 -60 30 c-89 45 -93 56 -100 291 -6 195 -6 196 -38 260 -34
69 -130 204 -138 196 -3 -3 0 -22 6 -44 6 -21 15 -128 19 -238 7 -197 8 -202
39 -268 26 -56 28 -66 12 -57 -36 19 -120 125 -126 160 -4 19 0 107 9 195 10
103 12 178 7 210 -10 60 -44 151 -69 184 l-18 24 -1 -64 c0 -35 -8 -113 -17
-174 -10 -64 -15 -137 -13 -175 l5 -65 -25 55 c-23 49 -26 73 -32 220 -6 136
-10 173 -28 212 -29 65 -84 122 -142 147 -57 25 -154 37 -189 24 -23 -9 -23
-10 21 -36 91 -53 145 -131 218 -316 22 -54 49 -102 77 -133 24 -27 43 -53 43
-58 0 -4 3 -17 7 -27 3 -10 -23 20 -58 66 -83 108 -138 142 -245 149 l-74 5
-21 71 c-12 39 -55 184 -94 321 -76 261 -78 283 -28 270 12 -3 132 -64 265
-136z m-2 -647 c73 -76 101 -97 190 -143 81 -42 109 -62 124 -88 14 -24 16
-32 5 -26 -7 5 -34 21 -58 37 -61 38 -131 60 -219 67 l-75 6 -14 40 c-40 117
-61 195 -50 195 6 0 49 -40 97 -88z m55 -223 c35 -31 110 -58 191 -69 109 -15
107 -14 151 -73 l39 -53 -75 38 c-85 43 -174 59 -256 48 -49 -6 -48 -9 10 -28
17 -5 58 -28 93 -50 64 -41 110 -55 227 -68 61 -6 82 -19 190 -108 28 -24 24
-23 -70 12 -97 35 -104 36 -235 36 -77 0 -146 -5 -160 -12 l-25 -11 30 0 c17
-1 89 -22 160 -48 l130 -47 145 -1 c137 -1 148 -3 198 -29 30 -15 52 -30 49
-32 -3 -3 -63 -9 -134 -14 -110 -8 -136 -13 -183 -37 -49 -25 -120 -98 -120
-123 0 -5 19 0 43 10 29 14 65 20 118 20 97 0 188 28 253 78 27 20 54 41 60
45 6 5 38 -2 76 -16 50 -20 59 -26 37 -26 -15 -1 -95 -26 -178 -56 -82 -30
-184 -64 -227 -75 -42 -12 -88 -29 -101 -39 -24 -19 -23 -19 121 -26 80 -4
160 -4 179 0 49 11 118 48 169 90 24 20 66 48 93 62 l50 25 86 -16 c47 -8 95
-17 106 -18 14 -2 -4 -19 -65 -60 -133 -89 -235 -175 -371 -314 -113 -116
-134 -133 -215 -173 -51 -25 -108 -46 -134 -49 -66 -6 -86 21 -163 218 -132
338 -367 999 -367 1033 0 10 43 -15 75 -44z"/>
</g>
</svg>
