<svg width="100" height="100" viewBox="0 0 100 100" fill="none" xmlns="http://www.w3.org/2000/svg">
<path d="M30 80L70 40" stroke="black" stroke-width="6" stroke-miterlimit="10" stroke-linecap="square"/>
<path d="M42.22 70H62.7C66.2838 70.0013 69.8327 69.2967 73.1442 67.9265C76.4557 66.5563 79.4648 64.5472 81.9999 62.014C84.5349 59.4808 86.5462 56.4731 87.9188 53.1627C89.2915 49.8522 89.9987 46.3038 90 42.72V20H67.27C60.0366 20.0027 53.1004 22.878 47.9866 27.9937C42.8728 33.1094 40 40.0466 40 47.28V55.71" stroke="black" stroke-width="6" stroke-miterlimit="10" stroke-linecap="square"/>
<path d="M40 60V46.37C40 42.0301 38.2767 37.8679 35.2089 34.7982C32.1411 31.7285 27.9799 30.0027 23.64 30H10V43.63C10 45.7806 10.4238 47.9101 11.247 49.8968C12.0703 51.8836 13.277 53.6886 14.7982 55.2089C16.3194 56.7291 18.1251 57.9347 20.1124 58.7568C22.0997 59.5789 24.2294 60.0013 26.38 60H37.24" stroke="black" stroke-width="6" stroke-miterlimit="10" stroke-linecap="square"/>
<path d="M22.3105 42.2998L37.2405 57.2298" stroke="black" stroke-width="6" stroke-miterlimit="10" stroke-linecap="square"/>
</svg>
