<svg width="98" height="28" fill="none" xmlns="http://www.w3.org/2000/svg"><path d="M25.783 11.896c-3.172 0-5.74 2.484-5.74 5.552 0 3.068 2.568 5.552 5.74 5.552 1.993 0 3.806-.964 4.863-2.6l-1.782-1.111a3.627 3.627 0 0 1-3.051 1.636c-1.631 0-2.99-1.052-3.444-2.454h9.184v-1.023c-.06-3.068-2.629-5.552-5.77-5.552Zm-3.474 4.5c.453-1.432 1.842-2.454 3.444-2.454 1.6 0 2.99 1.052 3.443 2.454H22.31Zm16.193-4.5c-3.172 0-5.74 2.484-5.74 5.552 0 3.068 2.568 5.552 5.74 5.552 1.993 0 3.806-.964 4.863-2.6l-1.782-1.111a3.627 3.627 0 0 1-3.051 1.636c-1.632 0-2.991-1.052-3.444-2.454h9.183v-1.023c-.03-3.068-2.598-5.552-5.77-5.552Zm-3.444 4.5c.453-1.432 1.842-2.454 3.444-2.454 1.63 0 2.99 1.052 3.443 2.454h-6.887Zm54.258 1.052c0-3.068-2.567-5.552-5.74-5.552-3.171 0-5.74 2.484-5.74 5.552 0 3.068 2.569 5.552 5.74 5.552 1.995 0 3.807-.964 4.864-2.6l-1.782-1.111a3.627 3.627 0 0 1-3.051 1.636c-1.631 0-2.99-1.052-3.444-2.454h9.184v-1.023h-.03Zm-9.183-1.052c.453-1.432 1.843-2.454 3.444-2.454 1.6 0 2.99 1.052 3.444 2.454h-6.888Zm-64.711-2.981a4.882 4.882 0 0 0 1.39-3.418C16.812 7.22 14.486 5 11.616 5H5v17.97h8.247c2.87 0 5.196-2.25 5.196-4.996.03-2.016-1.208-3.77-3.02-4.559Zm-3.806-6.37c1.691 0 3.081 1.315 3.081 2.952 0 1.636-1.39 2.951-3.081 2.951H7.115V7.045h4.5Zm1.661 13.88H7.115v-5.902h6.132c1.692 0 3.081 1.315 3.081 2.95.03 1.637-1.359 2.952-3.05 2.952ZM54.967 5c-5.136 0-9.305 4.032-9.305 9 0 4.967 4.169 9 9.305 9 5.135 0 9.304-4.033 9.304-9 0-4.968-4.169-9-9.304-9Zm0 15.925c-3.958 0-7.16-3.097-7.16-6.925s3.202-6.925 7.16-6.925c3.957 0 7.16 3.097 7.16 6.925s-3.203 6.925-7.16 6.925Zm16.22-9.058a5.003 5.003 0 0 0-2.84.876v-.876h-2.115V22.97h2.115v-6.312c0-1.52 1.269-2.747 2.84-2.747 1.57 0 2.84 1.227 2.84 2.747v6.312h2.114v-6.312c0-2.63-2.205-4.792-4.954-4.792Zm19.245 1.313a1.713 1.713 0 0 1-.604-.613 1.683 1.683 0 0 1-.212-.847c0-.293.06-.585.212-.848.15-.263.332-.467.604-.613.242-.146.544-.234.876-.234.332 0 .604.088.876.234.242.146.453.35.604.613.151.263.212.556.212.848 0 .321-.06.613-.212.847a1.502 1.502 0 0 1-.604.614 1.752 1.752 0 0 1-.846.234c-.362-.03-.634-.088-.906-.234Zm1.6-.204c.212-.117.394-.292.514-.526.121-.233.182-.467.182-.73 0-.263-.06-.526-.181-.73a1.256 1.256 0 0 0-.514-.527 1.49 1.49 0 0 0-.725-.204c-.272 0-.514.058-.725.204a1.257 1.257 0 0 0-.514.526c-.12.234-.18.468-.18.73 0 .264.06.527.18.731.121.234.302.41.514.526.211.117.453.205.725.205.242-.03.483-.088.725-.205Zm-1.419-2.22h.635c.241 0 .453.029.573.116.121.088.182.205.182.41 0 .175-.03.32-.09.409-.061.087-.152.146-.303.204l.393.73H91.7l-.393-.7h-.483v.7h-.272v-1.87h.06Zm.725.934c.151 0 .242-.029.302-.087.06-.059.09-.146.09-.263 0-.234-.15-.35-.483-.35h-.362v.7h.453Z" fill="#000"/></svg>