<svg width="100" height="100" viewBox="0 0 100 100" fill="none" xmlns="http://www.w3.org/2000/svg">
<path d="M46 45.9998H39.75L22.25 19.1498V45.9998H16.25V10.5498H23.9L40 35.6998V10.5498H46V45.9998Z" fill="black"/>
<path d="M38 91.9998L26.95 76.6498L22.25 81.7998V91.9998H16.25V56.5498H22.25V73.5498L37.5 56.5498H45.4L31.05 72.1998L45.55 91.9998H38Z" fill="black"/>
<path d="M67.25 51.8498H73.5C75.4 51.8498 76.8833 51.3665 77.95 50.3998C79.05 49.3998 79.6 48.0665 79.6 46.3998C79.6 44.6998 79.05 43.3498 77.95 42.3498C76.8833 41.3498 75.4 40.8498 73.5 40.8498H67.25V51.8498ZM74.4 57.1498H67.25V70.9998H61.25V35.5498H74.4C77.7667 35.5498 80.4833 36.5665 82.55 38.5998C84.65 40.6331 85.7 43.2165 85.7 46.3498C85.7 49.5165 84.65 52.1165 82.55 54.1498C80.4833 56.1498 77.7667 57.1498 74.4 57.1498Z" fill="black"/>
</svg>
