<svg width="110" height="110" viewBox="0 0 110 110" fill="none" xmlns="http://www.w3.org/2000/svg">
<path d="M79.8 88.6997C85.3229 88.6997 89.8 84.2226 89.8 78.6997C89.8 73.1769 85.3229 68.6997 79.8 68.6997C74.2772 68.6997 69.8 73.1769 69.8 78.6997C69.8 84.2226 74.2772 88.6997 79.8 88.6997Z" stroke="#000000" stroke-width="6" stroke-miterlimit="6"/>
<path d="M79.8 68.6999V59.3999" stroke="#000000" stroke-width="6" stroke-miterlimit="6"/>
<path d="M71.3 73.2997L63.3 68.6997" stroke="#000000" stroke-width="6" stroke-miterlimit="6"/>
<path d="M71.1 83L63 87.7" stroke="#000000" stroke-width="6" stroke-miterlimit="6"/>
<path d="M79.3 88.1001V97.4001" stroke="#000000" stroke-width="6" stroke-miterlimit="6"/>
<path d="M87.8999 83.5L95.8999 88.1" stroke="#000000" stroke-width="6" stroke-miterlimit="6"/>
<path d="M88.1001 73.8001L96.2001 69.1001" stroke="#000000" stroke-width="6" stroke-miterlimit="6"/>
<path d="M73.7999 36.7C78.2734 36.7 81.9 33.0735 81.9 28.6C81.9 24.1265 78.2734 20.5 73.7999 20.5C69.3264 20.5 65.7 24.1265 65.7 28.6C65.7 33.0735 69.3264 36.7 73.7999 36.7Z" stroke="#000000" stroke-width="6" stroke-miterlimit="6"/>
<path d="M73.7998 20.5V13" stroke="#000000" stroke-width="6" stroke-miterlimit="6"/>
<path d="M66.8999 24.3L60.3999 20.5" stroke="#000000" stroke-width="6" stroke-miterlimit="6"/>
<path d="M66.7 32.1001L60.2 35.9001" stroke="#000000" stroke-width="6" stroke-miterlimit="6"/>
<path d="M73.3999 36.2002V43.7002" stroke="#000000" stroke-width="6" stroke-miterlimit="6"/>
<path d="M80.2998 32.3999L86.7998 36.1999" stroke="#000000" stroke-width="6" stroke-miterlimit="6"/>
<path d="M80.5 24.5998L87 20.7998" stroke="#000000" stroke-width="6" stroke-miterlimit="6"/>
<path d="M35.5001 71.2003C43.8948 71.2003 50.7001 64.395 50.7001 56.0003C50.7001 47.6056 43.8948 40.8003 35.5001 40.8003C27.1053 40.8003 20.3 47.6056 20.3 56.0003C20.3 64.395 27.1053 71.2003 35.5001 71.2003Z" stroke="#000000" stroke-width="6" stroke-miterlimit="6"/>
<path d="M35.5 40.9002V30.7002" stroke="#000000" stroke-width="6" stroke-miterlimit="6"/>
<path d="M22.6001 47.9003L14.3 42.8003" stroke="#000000" stroke-width="6" stroke-miterlimit="6"/>
<path d="M22.2 62.5L14 67.6" stroke="#000000" stroke-width="6" stroke-miterlimit="6"/>
<path d="M34.7 70.2002V81.3002" stroke="#000000" stroke-width="6" stroke-miterlimit="6"/>
<path d="M47.6001 63.2002L55.8 68.3002" stroke="#000000" stroke-width="6" stroke-miterlimit="6"/>
<path d="M48 48.5L56.2 43.5" stroke="#000000" stroke-width="6" stroke-miterlimit="6"/>
</svg>
