<svg width="15" height="16" viewBox="0 0 15 16" fill="none" xmlns="http://www.w3.org/2000/svg">
<path d="M7.5 13.25C10.3995 13.25 12.75 10.8995 12.75 8C12.75 5.10051 10.3995 2.75 7.5 2.75C4.60051 2.75 2.25 5.10051 2.25 8C2.25 10.8995 4.60051 13.25 7.5 13.25Z" fill="#737373"/>
<path d="M5.71777 7.12552C5.71763 6.79239 5.81088 6.46589 5.98692 6.18308C6.16296 5.90027 6.41475 5.67246 6.71371 5.52551C7.01268 5.37857 7.34685 5.31837 7.6783 5.35174C8.00976 5.38511 8.32522 5.51073 8.58889 5.71433C8.85256 5.91793 9.05388 6.19136 9.17 6.50359C9.28612 6.81583 9.3124 7.15436 9.24585 7.48077C9.1793 7.80718 9.02259 8.10841 8.79349 8.35026C8.5644 8.5921 8.2721 8.7649 7.94977 8.84902C7.82276 8.87967 7.70958 8.95175 7.6281 9.05388C7.54661 9.15601 7.50146 9.28237 7.49977 9.41302V9.50002" stroke="white" stroke-miterlimit="10" stroke-linecap="square"/>
<path d="M7.5 10.916V10.964" stroke="white" stroke-miterlimit="10" stroke-linecap="square"/>
</svg>
