<svg width="110" height="110" viewBox="0 0 110 110" fill="none" xmlns="http://www.w3.org/2000/svg">
<path d="M38.9 33.4C43.7048 33.4 47.5999 29.5049 47.5999 24.7C47.5999 19.8951 43.7048 16 38.9 16C34.0951 16 30.2 19.8951 30.2 24.7C30.2 29.5049 34.0951 33.4 38.9 33.4Z" stroke="#000000" stroke-width="6" stroke-miterlimit="6"/>
<path d="M63.9 88H14V72C14 58.2 25.2 47 39 47C52.8 47 64 58.2 64 72V88H63.9Z" stroke="#000000" stroke-width="6" stroke-miterlimit="6"/>
<path d="M70.6001 35.7003C75.405 35.7003 79.3001 31.8052 79.3001 27.0003C79.3001 22.1954 75.405 18.3003 70.6001 18.3003C65.7953 18.3003 61.9001 22.1954 61.9001 27.0003C61.9001 31.8052 65.7953 35.7003 70.6001 35.7003Z" stroke="#000000" stroke-width="6" stroke-miterlimit="6"/>
<path d="M70.6001 49.3003C84.4001 49.3003 95.6001 60.5003 95.6001 74.3003V93.6003" stroke="#000000" stroke-width="6" stroke-miterlimit="6"/>
</svg>
