<svg width="100" height="100" viewBox="0 0 100 100" fill="none" xmlns="http://www.w3.org/2000/svg">
<path d="M88.4763 65.9834L72.2541 65.9834C72.2541 78.1425 62.3972 87.9993 50.2382 87.9993C38.0791 87.9993 28.2223 78.1425 28.2223 65.9834L12 65.9834" stroke="black" stroke-width="6" stroke-miterlimit="10" stroke-linecap="square"/>
<path fill-rule="evenodd" clip-rule="evenodd" d="M42.3786 16.3003C43.4404 19.3887 43.1417 22.9136 41.2605 25.8885C39.3793 28.8634 36.3229 30.6443 33.0777 31.0091C32.0159 27.9207 32.3145 24.3958 34.1958 21.4209C36.077 18.446 39.1333 16.6651 42.3786 16.3003Z" fill="black"/>
<path fill-rule="evenodd" clip-rule="evenodd" d="M59.2676 35.0135C61.2772 32.4392 64.3946 30.7672 67.9142 30.7217C71.4342 30.6761 74.5942 32.2672 76.6698 34.7891C74.6602 37.3633 71.5428 39.0353 68.0232 39.0809C64.5032 39.1265 61.3432 37.5354 59.2676 35.0135Z" fill="black"/>
<path fill-rule="evenodd" clip-rule="evenodd" d="M55.0033 57.4474C51.7446 57.666 48.4197 56.4572 46.0391 53.8641C43.6584 51.271 42.7376 47.855 43.2334 44.6267C46.4922 44.4081 49.817 45.6169 52.1976 48.21C54.5783 50.8032 55.4991 54.2192 55.0033 57.4474Z" fill="black"/>
</svg>
