<svg width="100" height="100" viewBox="0 0 100 100" fill="none" xmlns="http://www.w3.org/2000/svg">
<path d="M55 82C74.33 82 90 66.33 90 47C90 27.67 74.33 12 55 12C35.67 12 20 27.67 20 47" stroke="black" stroke-width="6" stroke-miterlimit="10" stroke-linecap="square"/>
<path d="M31.5 59L31.5 77L39 77L26 94L13 77L21 77L21 59L31.5 59Z" stroke="black" stroke-width="6"/>
<path d="M65.9405 29.5H52.8105C50.4899 29.5 48.2643 30.4219 46.6234 32.0628C44.9824 33.7038 44.0605 35.9294 44.0605 38.25V38.25C44.0605 40.5706 44.9824 42.7962 46.6234 44.4372C48.2643 46.0781 50.4899 47 52.8105 47H57.1905C59.5112 47 61.7368 47.9219 63.3777 49.5628C65.0187 51.2038 65.9405 53.4294 65.9405 55.75V55.75C65.9405 58.0706 65.0187 60.2962 63.3777 61.9372C61.7368 63.5781 59.5112 64.5 57.1905 64.5H44.0605" stroke="black" stroke-width="6" stroke-miterlimit="10" stroke-linecap="square"/>
<path d="M55 23.8999V70.0999" stroke="black" stroke-width="6" stroke-miterlimit="10" stroke-linecap="square"/>
</svg>
