<svg width="100" height="100" viewBox="0 0 100 100" fill="none" xmlns="http://www.w3.org/2000/svg">
<path d="M53.9993 51.5599C61.8993 66.2899 52.0693 84.6999 35.3693 85.5599C34.9493 85.5599 34.5193 85.5599 34.0893 85.5599C33.6593 85.5599 33.2393 85.5599 32.8093 85.5599C16.1193 84.7099 6.27933 66.2999 14.1793 51.5599L34.0893 14.4199L53.9993 51.5599Z" stroke="black" stroke-width="6" stroke-miterlimit="10" stroke-linecap="square"/>
<path d="M87.2007 32.9199C91.1107 40.2099 86.3907 49.4099 78.1307 49.9199C77.8507 49.9199 77.5707 49.9199 77.2807 49.9199C76.9907 49.9199 76.7107 49.9199 76.4307 49.9199C68.1807 49.3599 63.4307 40.1599 67.3607 32.9199L77.2807 14.4199L87.2007 32.9199Z" stroke="black" stroke-width="6" stroke-miterlimit="10" stroke-linecap="square"/>
</svg>
