<svg width="25" height="25" viewBox="0 0 25 25" fill="none" xmlns="http://www.w3.org/2000/svg">
<g clip-path="url(#clip0_0_6758)">
<path d="M12.713 15.5437C14.3997 15.5437 15.7671 14.1763 15.7671 12.4896C15.7671 10.8029 14.3997 9.43555 12.713 9.43555C11.0263 9.43555 9.65894 10.8029 9.65894 12.4896C9.65894 14.1763 11.0263 15.5437 12.713 15.5437Z" stroke="#181515" stroke-width="2.03605" stroke-linecap="round" stroke-linejoin="round"/>
<path d="M20.2466 15.5439C20.111 15.8509 20.0706 16.1915 20.1305 16.5218C20.1904 16.852 20.3478 17.1567 20.5825 17.3967L20.6436 17.4577C20.8329 17.6468 20.9831 17.8714 21.0855 18.1186C21.188 18.3657 21.2407 18.6307 21.2407 18.8982C21.2407 19.1658 21.188 19.4308 21.0855 19.6779C20.9831 19.9251 20.8329 20.1497 20.6436 20.3388C20.4545 20.5281 20.2299 20.6782 19.9828 20.7807C19.7356 20.8832 19.4706 20.9359 19.2031 20.9359C18.9355 20.9359 18.6706 20.8832 18.4234 20.7807C18.1762 20.6782 17.9517 20.5281 17.7626 20.3388L17.7015 20.2777C17.4616 20.043 17.1568 19.8855 16.8266 19.8257C16.4963 19.7658 16.1557 19.8062 15.8487 19.9417C15.5476 20.0708 15.2908 20.285 15.1099 20.5582C14.929 20.8313 14.832 21.1514 14.8307 21.4789V21.652C14.8307 22.192 14.6161 22.7099 14.2343 23.0917C13.8525 23.4735 13.3346 23.6881 12.7946 23.6881C12.2546 23.6881 11.7367 23.4735 11.3549 23.0917C10.9731 22.7099 10.7586 22.192 10.7586 21.652V21.5604C10.7507 21.2234 10.6416 20.8966 10.4455 20.6225C10.2494 20.3483 9.97543 20.1395 9.65909 20.0232C9.35204 19.8876 9.01143 19.8472 8.68119 19.9071C8.35095 19.967 8.04621 20.1244 7.80629 20.3591L7.74521 20.4202C7.55611 20.6095 7.33156 20.7597 7.08439 20.8621C6.83721 20.9646 6.57227 21.0173 6.3047 21.0173C6.03713 21.0173 5.77219 20.9646 5.52501 20.8621C5.27784 20.7597 5.05329 20.6095 4.86419 20.4202C4.67489 20.2311 4.52471 20.0065 4.42225 19.7594C4.31979 19.5122 4.26705 19.2473 4.26705 18.9797C4.26705 18.7121 4.31979 18.4472 4.42225 18.2C4.52471 17.9528 4.67489 17.7283 4.86419 17.5392L4.92528 17.4781C5.15997 17.2382 5.3174 16.9334 5.37728 16.6032C5.43716 16.273 5.39674 15.9323 5.26122 15.6253C5.13218 15.3242 4.9179 15.0674 4.64478 14.8865C4.37165 14.7056 4.05159 14.6086 3.72401 14.6073H3.55094C3.01095 14.6073 2.49307 14.3928 2.11124 14.0109C1.7294 13.6291 1.51489 13.1112 1.51489 12.5712C1.51489 12.0312 1.7294 11.5134 2.11124 11.1315C2.49307 10.7497 3.01095 10.5352 3.55094 10.5352H3.64256C3.97953 10.5273 4.30632 10.4182 4.58047 10.2221C4.85462 10.0261 5.06344 9.75204 5.17978 9.4357C5.3153 9.12865 5.35572 8.78804 5.29584 8.4578C5.23596 8.12756 5.07853 7.82283 4.84383 7.5829L4.78275 7.52182C4.59345 7.33272 4.44327 7.10817 4.34081 6.861C4.23835 6.61382 4.18561 6.34888 4.18561 6.08131C4.18561 5.81374 4.23835 5.5488 4.34081 5.30163C4.44327 5.05445 4.59345 4.8299 4.78275 4.64081C4.97185 4.4515 5.1964 4.30132 5.44357 4.19886C5.69075 4.0964 5.95569 4.04366 6.22326 4.04366C6.49083 4.04366 6.75577 4.0964 7.00294 4.19886C7.25012 4.30132 7.47467 4.4515 7.66376 4.64081L7.72485 4.70189C7.96477 4.93658 8.2695 5.09402 8.59975 5.1539C8.92999 5.21377 9.2706 5.17335 9.57765 5.03784H9.65909C9.96019 4.90879 10.217 4.69451 10.3979 4.42139C10.5787 4.14826 10.6758 3.82821 10.6771 3.50062V3.32755C10.6771 2.78756 10.8916 2.26968 11.2735 1.88785C11.6553 1.50602 12.1732 1.2915 12.7132 1.2915C13.2532 1.2915 13.771 1.50602 14.1529 1.88785C14.5347 2.26968 14.7492 2.78756 14.7492 3.32755V3.41918C14.7505 3.74676 14.8476 4.06682 15.0285 4.33994C15.2093 4.61307 15.4661 4.82735 15.7672 4.95639C16.0743 5.09191 16.4149 5.13233 16.7451 5.07245C17.0754 5.01257 17.3801 4.85514 17.62 4.62045L17.6811 4.55936C17.8702 4.37006 18.0948 4.21988 18.342 4.11742C18.5891 4.01496 18.8541 3.96222 19.1216 3.96222C19.3892 3.96222 19.6541 4.01496 19.9013 4.11742C20.1485 4.21988 20.373 4.37006 20.5621 4.55936C20.7514 4.74846 20.9016 4.97301 21.0041 5.22018C21.1065 5.46736 21.1593 5.7323 21.1593 5.99987C21.1593 6.26744 21.1065 6.53238 21.0041 6.77956C20.9016 7.02673 20.7514 7.25128 20.5621 7.44038L20.5011 7.50146C20.2664 7.74138 20.1089 8.04612 20.0491 8.37636C19.9892 8.7066 20.0296 9.04721 20.1651 9.35426V9.4357C20.2942 9.7368 20.5084 9.9936 20.7816 10.1745C21.0547 10.3554 21.3747 10.4524 21.7023 10.4537H21.8754C22.4154 10.4537 22.9333 10.6682 23.3151 11.0501C23.6969 11.4319 23.9114 11.9498 23.9114 12.4898C23.9114 13.0298 23.6969 13.5477 23.3151 13.9295C22.9333 14.3113 22.4154 14.5258 21.8754 14.5258H21.7838C21.4562 14.5271 21.1361 14.6242 20.863 14.8051C20.5899 14.986 20.3756 15.2428 20.2466 15.5439Z" stroke="#181515" stroke-width="2.03605" stroke-linecap="round" stroke-linejoin="round"/>
</g>
<defs>
<clipPath id="clip0_0_6758">
<rect width="24.4326" height="24.4326" fill="white" transform="translate(0.496826 0.273438)"/>
</clipPath>
</defs>
</svg>
