<svg width="30" height="36" viewBox="0 0 30 36" fill="none" xmlns="http://www.w3.org/2000/svg">
<path fill-rule="evenodd" clip-rule="evenodd" d="M22.9649 3.00809C22.8813 3.55387 22.7215 3.89945 22.4966 4.04563C22.4456 4.12269 22.3686 4.18386 22.2533 4.22994L13.3825 7.69531C13.2737 7.75648 13.1583 7.83354 13.0556 7.9257C12.9468 8.0258 12.8825 8.08697 12.8566 8.09491C12.8825 7.74139 12.9468 7.48001 13.043 7.33384C13.1451 7.18051 13.3056 7.05737 13.5364 6.95012L22.3494 3.50779C22.4582 3.46171 22.5802 3.38465 22.7022 3.28535C22.7274 3.25436 22.8176 3.16221 22.9649 3.00809ZM17.93 1.61781C17.8656 2.13976 17.7184 2.49408 17.481 2.67045C17.4299 2.7626 17.3464 2.81663 17.2376 2.83172L13.0105 4.58347C12.8181 4.7217 12.6384 4.85994 12.4653 4.99102C12.4978 4.61445 12.5681 4.36023 12.6576 4.21485C12.7538 4.07661 12.9143 3.94474 13.1391 3.84623L17.3464 2.13181C17.475 2.07144 17.5771 2.00153 17.6673 1.93241C17.7569 1.85614 17.8404 1.7481 17.93 1.61781ZM8.4053 4.16083L8.38607 4.89886C8.30914 4.92826 8.23884 4.96004 8.18115 4.99102C8.15528 4.99102 8.10422 4.9219 8.03989 4.77573C7.96959 4.63749 7.89863 4.56043 7.8217 4.56043C7.69371 4.56043 7.59091 4.69866 7.50138 4.96798C7.37936 5.34455 7.21224 6.13581 7.01394 7.33384H6.80836C6.70556 6.81904 6.59017 6.42738 6.46217 6.14296C6.32755 5.8514 6.21812 5.71317 6.12859 5.71317C5.92964 5.75845 5.74991 5.73621 5.58345 5.64405C5.34604 5.51297 5.23064 5.25875 5.23064 4.89886C5.23064 4.51435 5.35864 4.31495 5.62192 4.31495C5.87194 4.31495 6.09013 4.45318 6.28245 4.7217C6.35275 4.82975 6.57757 5.35964 6.93635 6.32013C7.10347 5.32866 7.23147 4.68357 7.33426 4.38406C7.50735 3.8923 7.69968 3.63808 7.91786 3.63808C8.02729 3.63808 8.12942 3.70799 8.21298 3.84623C8.26405 3.92249 8.32837 4.02259 8.4053 4.16083ZM27.8525 30.0454C27.8525 30.615 27.692 31.0146 27.3651 31.2371C27.198 31.3443 26.8836 31.4365 26.4028 31.5064C26.371 31.5215 26.3066 31.5986 26.2171 31.7368C26.1269 31.8671 26.0758 31.9513 26.05 31.9823C25.9989 31.8583 26.0049 31.7209 26.0692 31.5525C26.0049 31.4905 25.9538 31.4516 25.9087 31.4214C25.8643 31.3904 25.7807 31.3753 25.6521 31.3753C25.351 31.3753 24.9663 31.6518 24.4915 32.2055C23.9271 32.8657 23.3051 33.3273 22.6313 33.5807L21.99 33.734C22.3554 33.5108 22.6445 33.3193 22.8753 33.1501C23.5485 32.6432 24.1772 32.0442 24.7548 31.3523C24.9279 31.1298 25.0943 30.9686 25.2615 30.8685C25.4213 30.7684 25.5625 30.7223 25.672 30.7223C25.7489 30.7223 25.8451 30.7453 25.9664 30.7993C26.0825 30.8534 26.1654 30.8454 26.2171 30.7906C26.2682 30.5761 26.4028 30.3457 26.6336 30.0923C26.9095 29.7769 27.1787 29.6156 27.442 29.6156C27.7179 29.6156 27.8525 29.7618 27.8525 30.0454ZM4.21066 10.661C4.21066 10.9533 4.14037 11.2218 3.98651 11.4753C3.80015 11.7907 3.56273 11.944 3.27425 11.944C2.98576 11.944 2.76757 11.7907 2.61372 11.4832C2.46649 11.1758 2.3889 10.8071 2.3889 10.3686C2.3889 9.80059 2.50495 9.10148 2.73574 8.26413C2.97316 7.43394 3.24838 6.74992 3.576 6.20493C3.576 6.55051 3.4732 7.12649 3.26762 7.9257C3.05606 8.73285 2.95393 9.33186 2.95393 9.71558C2.95393 9.90069 2.99836 10.1144 3.07529 10.3615C3.15885 10.6069 3.27425 10.7301 3.42214 10.7301C3.61446 10.7301 3.83265 10.3384 4.08267 9.56225C4.1722 9.69334 4.21066 9.91578 4.21066 10.2153V10.661ZM17.1414 25.3209L16.3715 26.2654L15.6599 25.4289L14.813 26.4426L13.9084 25.3669L14.6976 24.4144L15.4284 25.2978L16.2561 24.2841L17.1414 25.3209ZM10.2463 30.1765C10.2463 30.8224 10.1309 31.3753 9.90609 31.821C9.64347 32.3501 9.25816 32.6123 8.74552 32.6123C8.18115 32.6123 7.71891 32.2587 7.37273 31.5525C7.09684 30.7604 6.93038 30.2909 6.87865 30.1614C6.79576 30.8454 6.61603 31.4436 6.35275 31.9362C5.9555 32.6742 5.3971 33.0429 4.6855 33.0429C4.09527 33.0429 3.67216 32.6742 3.42214 31.9362C3.24838 31.4293 3.15885 30.7302 3.15885 29.8468C3.15885 29.7697 3.19069 29.3924 3.25501 28.7171C3.28088 28.4478 3.29348 28.1944 3.29348 27.9489C3.29348 27.7566 3.28751 27.6104 3.27425 27.5262C3.02423 27.956 2.81864 28.5789 2.65218 29.3924C2.51755 30.2766 2.40813 30.9455 2.3312 31.3984C2.2609 31.844 2.15811 32.1825 2.03675 32.4129C1.86962 32.6973 1.65144 32.8355 1.37555 32.8355C1.0486 32.8355 0.766748 32.513 0.529328 31.8671C0.291908 31.222 0.176514 30.4998 0.176514 29.7078C0.176514 29.3622 0.202378 28.8323 0.260075 28.1101C0.317772 27.388 0.368837 26.8883 0.419902 26.6039L0.510095 26.65V27.4341C0.510095 28.4859 0.56116 29.3241 0.663954 29.9541C0.824445 30.9606 1.1063 31.4603 1.51084 31.4603C1.77346 31.4603 2.05598 30.592 2.35043 28.8553C2.65218 27.1115 3.15885 26.066 3.87708 25.7205L3.85785 26.9185C3.80678 27.411 3.77429 27.7948 3.76169 28.0641C3.68476 28.9777 3.65293 29.5084 3.65293 29.6387C3.65293 30.1074 3.75506 30.5149 3.96727 30.8685C4.1848 31.222 4.47395 31.3984 4.85196 31.3984C5.3142 31.3984 5.73731 31.191 6.10936 30.7906C6.48737 30.3838 6.67373 29.877 6.67373 29.278L6.14782 25.8357C6.14782 25.6283 6.26985 25.266 6.50661 24.752C6.6419 24.9673 6.75729 25.266 6.84682 25.6593C6.87865 25.7896 6.91712 25.9898 6.95558 26.2432C7.12271 27.3189 7.2832 28.4009 7.44369 29.4853C7.57168 29.9461 7.7514 30.3076 7.98219 30.5531C8.21298 30.7993 8.5207 30.9225 8.91198 30.9225C9.1368 30.9225 9.31652 30.8994 9.44451 30.8534C9.57914 30.8144 9.68193 30.6913 9.75886 30.4919C9.59174 30.1924 9.36758 29.4543 9.0791 28.2794C8.79061 27.1036 8.61089 26.4506 8.53396 26.3354L8.36684 25.927C8.3927 25.6593 8.4504 25.3669 8.54656 25.0595C8.63609 24.752 8.70705 24.4986 8.74552 24.3071C8.86754 24.4684 9.0214 24.7449 9.21373 25.1286C9.39942 25.5131 9.57914 25.8817 9.75886 26.2432V26.6039C9.733 26.5737 9.6753 26.5268 9.58577 26.4656C9.45115 26.3584 9.37422 26.3123 9.36095 26.3123C9.34835 26.3505 9.33575 26.3886 9.32249 26.4116C9.30989 26.4347 9.29662 26.4506 9.28402 26.4656C9.45115 26.9034 9.605 27.3419 9.75886 27.7948C10.0858 28.725 10.2463 29.5235 10.2463 30.1765ZM24.0167 9.63137C23.9464 9.43196 23.8184 9.27784 23.632 9.1555C23.4523 9.0403 23.3051 8.97834 23.1897 8.97834C23.0802 8.97834 22.9781 9.0403 22.8946 9.17059C22.8044 9.29373 22.7467 9.44706 22.7215 9.63137H24.0167ZM29.3725 25.3669C29.2379 25.0754 28.9746 24.814 28.5966 24.5757C28.2113 24.3373 27.8074 24.2142 27.3843 24.2142C26.871 24.2142 26.3325 24.5606 25.7681 25.2517C25.3636 25.7896 24.9723 26.3354 24.581 26.8732C24.7223 26.8883 24.8761 26.9113 25.0433 26.9423C25.2097 26.9725 25.3384 26.9804 25.4279 26.9804C26.1143 26.9804 26.8199 26.8335 27.5315 26.5348C28.4746 26.1431 29.0841 25.7514 29.3725 25.3669ZM21.4833 18.2749L21.3679 17.2151C21.0343 17.4527 20.6948 17.6529 20.3672 17.8141C20.0336 17.9683 19.7066 18.0755 19.3989 18.1367C19.3989 18.6054 19.4307 19.1361 19.4884 19.7351C19.5528 20.3341 19.5979 20.7727 19.6231 21.0412V21.1794C20.1364 21.011 20.5727 20.6416 20.9382 20.0735C21.3036 19.5047 21.4833 18.9057 21.4833 18.2749ZM27.6854 30.3155H27.0633C26.9221 30.3759 26.8067 30.4601 26.7045 30.561C26.6084 30.6683 26.5182 30.7684 26.4413 30.8534C26.5567 30.8685 26.6402 30.8756 26.6853 30.8756C26.7364 30.8756 26.8325 30.8605 26.9672 30.8303C27.1084 30.8065 27.2238 30.7533 27.3266 30.6841C27.4294 30.6214 27.5448 30.4919 27.6854 30.3155ZM9.19449 13.4344C9.0791 13.2961 8.94447 13.173 8.77735 13.0507C8.61686 12.9275 8.46963 12.8584 8.32837 12.8282C8.22558 12.7972 8.12942 12.7972 8.02729 12.8346C7.93046 12.8743 7.8668 12.8894 7.84093 12.8894L8.34761 13.6346C8.39933 13.6036 8.48886 13.5734 8.63012 13.5424C8.90601 13.4733 9.0917 13.4344 9.19449 13.4344ZM12.9528 21.2406C13.8766 20.9721 14.9092 20.5494 16.0505 19.9576C16.6281 19.643 17.2117 19.3276 17.802 19.0122C17.802 19.4205 17.9048 19.8733 18.1097 20.3802C18.3153 20.8799 18.5971 21.1723 18.9433 21.2406L18.6614 18.1367C17.8723 18.0143 17.2628 17.5989 16.8204 16.8767C16.4484 16.2626 16.2561 15.5325 16.2561 14.6952C16.2561 14.2407 16.3264 13.7347 16.4676 13.1651H16.2945C15.9351 13.1651 15.6658 13.0356 15.4861 12.7821C15.4032 12.6431 15.3004 12.2745 15.185 11.6755C14.8899 12.0671 14.6333 12.3595 14.4343 12.5589C13.8255 13.1428 13.2545 13.4344 12.7286 13.4344C11.9845 13.4344 11.452 12.9585 11.1317 12.0123C10.9771 11.5674 10.8425 10.7754 10.7145 9.65441C10.503 10.1613 10.2397 10.6141 9.92532 10.9994C9.75223 11.2298 9.50221 11.4753 9.17526 11.7446C9.46375 11.9361 9.73963 12.1442 10.0023 12.3666C10.2655 12.5819 10.4453 12.7512 10.5474 12.8743C10.5474 13.1277 10.4963 13.4272 10.4068 13.7808C10.3106 14.1343 10.2271 14.3567 10.1627 14.4568C10.0924 14.5569 9.84839 14.6491 9.42528 14.7484C9.00814 14.8485 8.72628 14.9406 8.57243 15.0328C8.55916 15.0479 8.54656 15.148 8.53396 15.3323C8.5207 15.5246 8.46963 15.7017 8.36684 15.863C8.34097 15.7168 8.25808 15.5246 8.12345 15.3021C8.11019 15.2711 8.07835 15.2243 8.02729 15.1639C7.78987 15.1639 7.48215 15.2632 7.11011 15.4475C6.73143 15.6326 6.32092 15.9321 5.86531 16.3389C5.25651 16.9847 4.82676 17.4304 4.58934 17.6902C4.16557 18.1216 3.78092 18.3369 3.44137 18.3369C2.92807 18.3369 2.54939 18.1828 2.29937 17.8682C1.97242 17.4606 1.80529 16.7385 1.80529 15.7089C1.80529 15.1639 2.01751 14.4409 2.44062 13.5345C2.8571 12.628 3.30608 11.9361 3.78092 11.4753V11.944C3.39627 12.4588 3.07529 12.9815 2.82527 13.5273C2.51092 14.1955 2.35043 14.8104 2.35043 15.3712C2.35043 15.639 2.44062 15.9551 2.61372 16.3158C2.79344 16.6773 3.00499 16.8537 3.25501 16.8537C3.46657 16.8537 3.80015 16.6304 4.24913 16.1776C4.60194 15.832 4.96736 15.5015 5.3394 15.1869C5.76915 14.8254 6.16043 14.541 6.52584 14.3337C7.10347 14.0803 7.46292 13.9102 7.61678 13.8419C7.52658 13.6425 7.46889 13.4812 7.44369 13.3422C7.41782 13.2119 7.41119 13.0507 7.41119 12.8743C7.41119 12.3428 7.61015 11.8979 8.00806 11.5206C8.18712 11.3529 8.32241 11.2838 8.42454 11.314C9.01477 10.8071 9.45115 10.3305 9.73963 9.90069C10.2397 9.13246 10.4897 8.28717 10.4897 7.35688L10.1117 1.93241C10.1627 1.71791 10.2012 1.54869 10.2271 1.41046C10.3425 0.933793 10.4068 0.588209 10.432 0.380859C10.4837 0.418993 10.5474 0.557226 10.6184 0.780465C10.6568 0.902809 10.7463 1.24124 10.8876 1.79418C10.9327 2.01742 10.9645 2.32486 10.9771 2.69349C11.0415 4.13779 11.1184 5.41366 11.2146 6.51953C11.3047 7.63414 11.4009 8.68678 11.4845 9.67745C11.6768 11.0987 12.1894 11.8137 13.0237 11.8137C13.4402 11.8137 13.992 11.4753 14.6784 10.8071C15.3707 10.1462 15.7176 9.80059 15.7302 9.78549C15.7176 9.90784 15.7043 10.031 15.6917 10.1613C15.6851 10.2836 15.6791 10.4449 15.6791 10.6459C15.6791 10.8381 15.6917 10.9915 15.7302 11.1138C15.8071 11.2838 15.9033 11.399 16.012 11.4753C16.1281 11.5523 16.2879 11.5905 16.4995 11.5905C16.904 11.5905 17.2502 11.4062 17.5387 11.0455C17.802 10.5839 18.0646 10.108 18.3279 9.63137L18.4943 9.51618C18.4691 9.6703 18.4559 9.90069 18.4559 10.2153C18.4559 10.3464 18.4751 10.4918 18.501 10.6459C18.5328 10.7921 18.6038 10.8993 18.7125 10.9684C18.8153 11.0375 18.9373 11.0685 19.0779 11.0685C19.2132 11.0987 19.3797 11.0606 19.5654 10.9605C19.6171 10.9303 19.694 10.8763 19.7902 10.7992C19.8028 10.738 19.7517 10.5768 19.6423 10.3074C19.6297 10.2614 19.6038 10.1922 19.5654 10.1001L19.7325 8.8401C19.899 8.97834 20.021 9.20873 20.1105 9.54636C20.2007 9.8848 20.2392 10.1692 20.2392 10.3924C20.2392 10.9374 20.149 11.4062 19.9633 11.8137C19.7199 12.3365 19.3797 12.597 18.9241 12.597C18.6999 12.597 18.501 12.5208 18.3345 12.3666C18.1674 12.2054 18.0261 11.9901 17.9107 11.7216C17.7376 12.006 17.5645 12.2896 17.4041 12.574C17.231 12.8346 17.032 13.0038 16.8012 13.0967C16.7628 13.3502 16.7369 13.6036 16.7117 13.857C16.6858 14.1184 16.6792 14.3027 16.6925 14.4258C16.7561 14.9017 16.9551 15.3323 17.3013 15.7168C17.6481 16.1013 18.0646 16.3317 18.552 16.408L18.3663 14.2876L18.552 12.8894C18.629 12.9815 18.7191 13.1508 18.8213 13.3962C18.9307 13.6497 19.0076 13.865 19.0461 14.0493C19.0912 14.2407 19.1423 14.6411 19.1874 15.2481C19.2384 15.855 19.2709 16.2396 19.2835 16.408C19.572 16.3468 19.8671 16.2547 20.1748 16.1474C20.4826 16.0314 20.8354 15.8701 21.2399 15.6628L20.521 8.0107C20.5469 7.84149 20.5661 7.7104 20.5787 7.60315C20.643 7.16541 20.6815 6.85002 20.6948 6.65697C20.8161 6.7809 20.9189 6.8961 20.9959 7.01924C21.0668 7.13443 21.1305 7.30365 21.1756 7.52609C21.214 7.74139 21.2843 8.31736 21.3679 9.24765C21.5344 11.2147 21.7015 13.173 21.8746 15.125V15.256C21.9648 15.2401 22.0735 15.1869 22.1956 15.1019C22.6253 14.7714 23.0935 14.3027 23.6061 13.7037C24.1195 13.1047 24.5366 12.5208 24.8635 11.944C24.8251 11.7827 24.78 11.6596 24.7349 11.5905C24.581 11.3299 24.3635 11.2068 24.0744 11.2068H23.0033C22.7274 11.2068 22.5159 11.0916 22.3746 10.8683C22.234 10.6459 22.1571 10.2383 22.1571 9.65441C22.1571 9.10942 22.2725 8.60177 22.5099 8.11795C22.7407 7.64129 23.0225 7.40216 23.3628 7.40216C23.7859 7.40216 24.1898 7.71835 24.5618 8.34834C25.0174 9.10942 25.2422 10.0771 25.2422 11.2528C25.2422 11.3219 25.223 11.6056 25.1845 12.1053C25.1461 12.597 25.1136 12.8663 25.0877 12.8894C25.0048 13.266 24.7548 13.7649 24.3376 14.3798C23.9782 14.9176 23.5425 15.4173 23.0418 15.863L22.0477 16.7234C22.4071 19.4968 23.0995 20.8879 24.1128 20.8879C24.203 20.872 24.2667 20.8648 24.3184 20.8648C23.8051 20.3341 23.4782 19.8352 23.3435 19.3506C23.2666 19.0964 23.2281 18.6674 23.2281 18.0676C23.2281 17.1532 23.4589 16.4469 23.9271 15.9551C24.325 15.5166 24.8125 15.3021 25.3895 15.3021C25.8895 15.3021 26.4028 15.4475 26.9287 15.7549C27.3584 15.9933 27.692 16.2697 27.9294 16.5851V16.7845C27.6536 16.6543 27.3651 16.5542 27.0633 16.485C26.7622 16.4159 26.422 16.3849 26.05 16.3849C25.7741 16.3849 25.3059 16.516 24.6454 16.7845C23.9915 17.0539 23.6638 17.2914 23.6638 17.4837C23.8243 18.0143 23.9848 18.3981 24.1513 18.6515C24.6779 19.4507 25.3828 19.8503 26.2748 19.8503C26.8644 19.8503 27.5256 19.643 28.263 19.2434C28.5641 19.0741 29.0071 18.7826 29.5841 18.3591L28.718 20.0966C28.468 20.4724 27.7948 20.957 26.7045 21.556C25.5048 22.217 24.5558 22.5474 23.8694 22.5474C23.1897 22.5474 22.6638 22.2321 22.2917 21.6021C22.0543 21.2104 21.8427 20.6185 21.6697 19.8273C21.3294 20.918 21.0668 21.6021 20.8805 21.8714C20.5787 22.3083 20.2007 22.6015 19.7325 22.7548C19.7325 24.0458 19.8545 25.0285 20.1045 25.6974C20.3479 26.3735 20.7717 26.7119 21.3871 26.7119C21.541 26.7119 21.8487 26.4577 22.3302 25.9508C22.6505 25.5902 22.9841 25.2208 23.3243 24.8442C23.3243 25.413 23.3495 25.7896 23.4079 25.9739C23.4656 26.151 23.6771 26.3965 24.0359 26.7119C24.6261 25.7356 25.223 24.752 25.8258 23.7685C26.4731 22.9852 27.1018 22.5935 27.7046 22.5935C28.2756 22.5935 28.7949 22.7929 29.2638 23.1925C29.7254 23.5921 29.9561 24.1149 29.9561 24.7743C29.9561 25.8587 29.4946 26.7652 28.5641 27.5032C27.641 28.2404 26.5699 28.6019 25.351 28.6019C24.9279 28.6019 24.5558 28.5328 24.2474 28.3787C24.1453 28.3326 24.0299 28.2563 23.9079 28.1554L23.2474 29.5084L23.2281 28.8784L23.51 27.9942C23.4715 27.9791 23.4463 27.964 23.4205 27.9489C23.2407 27.8027 23.061 27.411 22.8753 26.781C22.6571 27.1576 22.4197 27.4802 22.1571 27.7487C21.8235 28.0943 21.5218 28.2635 21.2591 28.2635C20.5787 28.2635 20.0913 27.956 19.7902 27.3419C19.694 27.1497 19.6038 26.8335 19.5269 26.3965C19.4181 26.8803 19.251 27.3491 19.0395 27.8027C18.8279 28.2635 18.6356 28.5789 18.4751 28.7632C18.6482 28.8704 18.9048 28.9777 19.2258 29.1008C19.7517 29.2931 20.0787 29.4933 20.2067 29.6847C20.2518 29.7308 20.2843 29.8158 20.2969 29.931C20.3095 30.0534 20.3161 30.2146 20.3161 30.4307V30.7684C20.3161 31.5294 19.8545 32.3048 18.9241 33.081C18.6614 33.3114 18.103 33.7269 17.2568 34.341C16.7754 34.6866 16.2753 34.9789 15.7494 35.2014C14.9735 35.5318 14.2161 35.6939 13.4787 35.6939C12.523 35.6939 11.8048 35.3015 11.3173 34.5253C10.8876 33.8492 10.676 32.9507 10.676 31.821C10.676 31.1068 10.7463 30.4148 10.881 29.7539C11.0222 29.0937 11.2404 28.4859 11.5422 27.933V28.6249C11.5037 28.7632 11.4201 29.1548 11.2981 29.8079C11.1701 30.4601 11.1124 30.8756 11.1124 31.0607C11.1124 32.0053 11.3684 32.7433 11.8817 33.2883C12.395 33.8262 13.0363 34.0955 13.8189 34.0955C14.1392 34.0955 14.5948 34.0105 15.1658 33.8262C16.8078 33.3193 18.302 32.4129 19.6423 31.1298C19.4758 30.9606 19.0972 30.7906 18.501 30.6214C17.9107 30.4458 17.3013 30.2687 16.6925 30.0923C16.6925 30.0001 16.7435 29.7308 16.8523 29.278C16.9551 28.8323 17.032 28.5622 17.0645 28.4708C17.1282 28.4097 17.3013 28.2794 17.5904 28.0871C18.0069 27.7876 18.3086 27.5103 18.4943 27.2569C18.7443 26.8653 18.9307 26.4807 19.0587 26.105C19.1807 25.7284 19.2451 25.3439 19.2451 24.9371C19.2451 24.7679 19.2384 24.6448 19.2258 24.5526L19.0779 22.862H19.001C18.3537 22.862 17.8656 22.5538 17.5579 21.9405C17.3397 21.2485 17.2117 20.8418 17.1607 20.7035C16.7243 21.3169 15.3581 22.0247 13.0622 22.816C13.0622 23.9608 13.1066 25.1445 13.1968 26.3655C13.2863 27.5874 13.3759 28.8633 13.4787 30.1765C13.4787 30.4538 13.4276 30.8915 13.3374 31.5064C13.2412 32.1205 13.1325 32.5511 13.0105 32.7894V32.3207C13.0105 32.0212 13.0045 31.6979 12.9912 31.3602C12.9786 31.0218 12.9528 30.7223 12.9143 30.4538L12.3499 23.0694C11.9712 23.1695 11.6251 23.2537 11.2981 23.3157C10.9712 23.3761 10.6568 23.4078 10.3551 23.4078C9.88089 23.4078 9.42528 23.3697 8.99554 23.2998C8.56579 23.2386 8.23221 23.1234 8.00806 22.9542C7.43042 22.5474 7.00731 21.9476 6.73143 21.1556C6.50661 20.5113 6.25659 20.1887 5.9807 20.1887C5.82684 20.1887 5.66702 20.273 5.49326 20.4422C5.3142 20.6185 5.15968 20.8251 5.01909 21.0642C4.92292 21.2875 4.70474 21.8865 4.36452 22.862C3.87708 24.3071 3.4029 25.0285 2.9347 25.0285C2.67141 25.0285 2.41476 24.8211 2.16474 24.4144C1.91472 24.0148 1.7224 23.492 1.58114 22.862C1.53007 22.4775 1.48498 22.0708 1.43325 21.6473C1.38218 21.2255 1.35632 20.895 1.35632 20.6575C1.35632 20.3111 1.39478 19.9425 1.45911 19.5587C1.53007 19.1663 1.60037 18.7595 1.6773 18.3369H1.94058C1.88886 18.7286 1.85039 19.1282 1.81856 19.5198C1.78606 19.9186 1.77346 20.2491 1.77346 20.5264C1.77346 21.3026 1.81856 21.8023 1.92135 22.0096C2.04935 22.3552 2.18397 22.6317 2.3312 22.839C2.54939 23.1385 2.72248 23.2926 2.86374 23.2926C3.18472 23.2926 3.5309 22.839 3.89631 21.9405C4.01834 21.6251 4.21066 21.1262 4.47395 20.4342C4.62781 20.0426 4.90966 19.612 5.32017 19.1512C5.80164 18.6134 6.18629 18.3369 6.48737 18.3369C6.69959 18.3369 6.88529 18.5824 7.05241 19.059C7.44966 20.288 7.8794 21.0181 8.32837 21.2406C8.59166 21.3796 8.86091 21.4718 9.13016 21.525C9.39942 21.579 9.88686 21.6021 10.6051 21.6021C11.1443 21.6021 11.6894 21.5329 12.2345 21.4019L11.8433 16.1776C11.8307 16.0163 11.7982 15.8241 11.7471 15.6096C11.696 15.3863 11.6768 15.2632 11.6768 15.2322C11.6768 15.1559 11.7279 14.9255 11.8307 14.5339C11.9394 14.1494 12.0097 13.8801 12.0482 13.7498C12.151 13.9571 12.3625 14.5259 12.6901 15.4554C12.7863 15.7629 12.9468 16.2086 13.1583 16.8076V17.2612L12.7094 16.7234L12.6324 17.0149L12.9528 21.2406Z" fill="white"/>
</svg>
