<svg width="51" height="52" viewBox="0 0 51 52" fill="none" xmlns="http://www.w3.org/2000/svg">
<path opacity="0.15" d="M27.6248 22.5059C27.6248 26.6052 30.9479 29.9283 35.0472 29.9283L42.4696 37.3507V22.5059C42.4696 18.4066 39.1465 15.0835 35.0472 15.0835C30.9479 15.0835 27.6248 18.4066 27.6248 22.5059Z" fill="#FEFEFE"/>
<path d="M27.6248 22.5059C27.6248 26.6052 30.9479 29.9283 35.0472 29.9283L42.4696 37.3507V22.5059C42.4696 18.4066 39.1465 15.0835 35.0472 15.0835C30.9479 15.0835 27.6248 18.4066 27.6248 22.5059Z" stroke="#FEFEFE" stroke-width="3.18104" stroke-linejoin="round"/>
<path d="M6.41626 22.5059C6.41626 26.6052 9.73938 29.9283 13.8387 29.9283L21.2611 37.3507L21.2611 22.5059C21.2611 18.4066 17.938 15.0835 13.8387 15.0835C9.73938 15.0835 6.41626 18.4066 6.41626 22.5059Z" stroke="#FEFEFE" stroke-width="3.18104" stroke-linejoin="round"/>
</svg>
