<svg width="51" height="51" viewBox="0 0 51 51" fill="none" xmlns="http://www.w3.org/2000/svg">
<path opacity="0.15" d="M23.3274 28.7187C23.3274 24.6194 20.0043 21.2963 15.905 21.2963L8.48255 13.8739L8.48255 28.7187C8.48255 32.818 11.8057 36.1411 15.905 36.1411C20.0043 36.1411 23.3274 32.818 23.3274 28.7187Z" fill="#FEFEFE"/>
<path d="M23.3274 28.7187C23.3274 24.6194 20.0043 21.2963 15.905 21.2963L8.48255 13.8739L8.48255 28.7187C8.48255 32.818 11.8057 36.1411 15.905 36.1411C20.0043 36.1411 23.3274 32.818 23.3274 28.7187Z" stroke="#FEFEFE" stroke-width="3.18104" stroke-linejoin="round"/>
<path d="M44.5359 28.7187C44.5359 24.6194 41.2128 21.2963 37.1135 21.2963L29.691 13.8739L29.691 28.7187C29.691 32.818 33.0142 36.1411 37.1135 36.1411C41.2128 36.1411 44.5359 32.818 44.5359 28.7187Z" stroke="#FEFEFE" stroke-width="3.18104" stroke-linejoin="round"/>
</svg>
