<svg width="28" height="28" viewBox="0 0 28 28" fill="none" xmlns="http://www.w3.org/2000/svg">
<path opacity="0.2" d="M22.4177 9.92822H5.45065C5.22565 9.92822 5.00987 10.0176 4.85077 10.1767C4.69167 10.3358 4.60229 10.5516 4.60229 10.7766V22.6535C4.60229 22.8785 4.69167 23.0943 4.85077 23.2534C5.00987 23.4125 5.22565 23.5019 5.45065 23.5019H22.4177C22.6427 23.5019 22.8585 23.4125 23.0176 23.2534C23.1767 23.0943 23.2661 22.8785 23.2661 22.6535V10.7766C23.2661 10.5516 23.1767 10.3358 23.0176 10.1767C22.8585 10.0176 22.6427 9.92822 22.4177 9.92822ZM13.9342 17.5634C13.5147 17.5634 13.1047 17.439 12.7559 17.206C12.4071 16.9729 12.1353 16.6417 11.9747 16.2542C11.8142 15.8666 11.7722 15.4402 11.8541 15.0288C11.9359 14.6173 12.1379 14.2394 12.4345 13.9428C12.7311 13.6462 13.109 13.4442 13.5204 13.3624C13.9318 13.2806 14.3583 13.3226 14.7458 13.4831C15.1334 13.6436 15.4646 13.9154 15.6976 14.2642C15.9307 14.613 16.0551 15.0231 16.0551 15.4425C16.0551 16.005 15.8316 16.5445 15.4339 16.9422C15.0361 17.34 14.4967 17.5634 13.9342 17.5634Z" fill="#737373"/>
<path d="M13.9344 17.5631C15.1057 17.5631 16.0552 16.6135 16.0552 15.4422C16.0552 14.2708 15.1057 13.3213 13.9344 13.3213C12.763 13.3213 11.8135 14.2708 11.8135 15.4422C11.8135 16.6135 12.763 17.5631 13.9344 17.5631Z" stroke="#737373" stroke-width="1.35737" stroke-linecap="round" stroke-linejoin="round"/>
<path d="M13.9343 17.5635V20.1085" stroke="#737373" stroke-width="1.35737" stroke-linecap="round" stroke-linejoin="round"/>
<path d="M22.4177 9.92822H5.45065C4.98212 9.92822 4.60229 10.308 4.60229 10.7766V22.6535C4.60229 23.1221 4.98212 23.5019 5.45065 23.5019H22.4177C22.8863 23.5019 23.2661 23.1221 23.2661 22.6535V10.7766C23.2661 10.308 22.8863 9.92822 22.4177 9.92822Z" stroke="#737373" stroke-width="1.35737" stroke-linecap="round" stroke-linejoin="round"/>
<path d="M10.1167 9.92816V6.11056C10.1167 5.09807 10.5189 4.12705 11.2348 3.41112C11.9508 2.69518 12.9218 2.29297 13.9343 2.29297C14.9468 2.29297 15.9178 2.69518 16.6337 3.41112C17.3497 4.12705 17.7519 5.09807 17.7519 6.11056V9.92816" stroke="#737373" stroke-width="1.35737" stroke-linecap="round" stroke-linejoin="round"/>
</svg>
