<svg width="28" height="28" viewBox="0 0 28 28" fill="none" xmlns="http://www.w3.org/2000/svg">
<path opacity="0.2" d="M13.9342 3.54785C11.8748 3.54787 9.86394 4.17242 8.16695 5.33906C6.46997 6.50569 5.16668 8.15954 4.42917 10.0823C3.69166 12.005 3.55459 14.1062 4.03607 16.1084C4.51756 18.1107 5.59494 19.9198 7.12599 21.297V21.2969C7.76474 20.0403 8.73891 18.985 9.94058 18.248C11.1423 17.511 12.5245 17.1211 13.9342 17.1215C13.0952 17.1215 12.2751 16.8727 11.5776 16.4067C10.88 15.9406 10.3363 15.2781 10.0153 14.503C9.69422 13.7279 9.61022 12.875 9.77389 12.0522C9.93756 11.2294 10.3416 10.4736 10.9348 9.88036C11.528 9.28714 12.2838 8.88315 13.1066 8.71948C13.9295 8.55581 14.7823 8.63981 15.5574 8.96086C16.3325 9.28191 16.995 9.82559 17.4611 10.5231C17.9272 11.2207 18.1759 12.0408 18.1759 12.8797C18.1759 14.0047 17.729 15.0836 16.9335 15.8791C16.1381 16.6746 15.0591 17.1215 13.9342 17.1215C15.3438 17.1211 16.7261 17.511 17.9277 18.248C19.1294 18.985 20.1036 20.0403 20.7423 21.2969C22.2734 19.9197 23.3508 18.1106 23.8322 16.1083C24.3137 14.1061 24.1767 12.0049 23.4391 10.0822C22.7016 8.15948 21.3983 6.50564 19.7014 5.33902C18.0044 4.1724 15.9935 3.54786 13.9342 3.54785Z" fill="#737373"/>
<path d="M13.9342 23.9084C19.5566 23.9084 24.1144 19.3505 24.1144 13.7281C24.1144 8.10571 19.5566 3.54785 13.9342 3.54785C8.31176 3.54785 3.75391 8.10571 3.75391 13.7281C3.75391 19.3505 8.31176 23.9084 13.9342 23.9084Z" stroke="#737373" stroke-width="1.35737" stroke-linecap="round" stroke-linejoin="round"/>
<path d="M13.9342 17.1212C16.2768 17.1212 18.1759 15.2221 18.1759 12.8795C18.1759 10.5368 16.2768 8.6377 13.9342 8.6377C11.5915 8.6377 9.69238 10.5368 9.69238 12.8795C9.69238 15.2221 11.5915 17.1212 13.9342 17.1212Z" stroke="#737373" stroke-width="1.35737" stroke-linecap="round" stroke-linejoin="round"/>
<path d="M7.12598 21.297C7.76501 20.0406 8.73925 18.9855 9.94085 18.2486C11.1424 17.5116 12.5245 17.1216 13.9341 17.1216C15.3437 17.1216 16.7258 17.5116 17.9274 18.2486C19.129 18.9855 20.1032 20.0405 20.7422 21.2969" stroke="#737373" stroke-width="1.35737" stroke-linecap="round" stroke-linejoin="round"/>
</svg>
