<svg width="53" height="53" viewBox="0 0 53 53" fill="none" xmlns="http://www.w3.org/2000/svg">
            <path d="M47.7 43.5395V38.2395C47.7 35.4282 46.5832 32.7321 44.5953 30.7442C42.6074 28.7563 39.9113 27.6395 37.1 27.6395C34.2887 27.6395 31.5926 28.7563 29.6047 30.7442C27.6168 32.7321 26.5 35.4282 26.5 38.2395V43.5395" stroke="#737373" stroke-width="3" stroke-miterlimit="10" stroke-linecap="square"/>
            <path d="M37.0998 22.3448C38.148 22.3448 39.1727 22.034 40.0443 21.4516C40.9159 20.8692 41.5952 20.0415 41.9964 19.073C42.3975 18.1046 42.5025 17.0389 42.298 16.0108C42.0935 14.9827 41.5887 14.0384 40.8475 13.2971C40.1063 12.5559 39.1619 12.0512 38.1338 11.8467C37.1057 11.6422 36.04 11.7471 35.0716 12.1483C34.1031 12.5494 33.2754 13.2287 32.693 14.1003C32.1106 14.9719 31.7998 15.9966 31.7998 17.0448C31.7998 17.7408 31.9369 18.43 32.2032 19.073C32.4696 19.7161 32.86 20.3003 33.3521 20.7925C34.3461 21.7864 35.6942 22.3448 37.0998 22.3448Z" stroke="#737373" stroke-width="3" stroke-miterlimit="10" stroke-linecap="square"/>
            <path d="M22.7527 18.9157V27.6448H5.2998V10.1919H14.0289" stroke="#737373" stroke-width="3" stroke-miterlimit="10"/>
            <path d="M9.7041 15.8788L14.6225 20.7972L25.9592 9.46051" stroke="#737373" stroke-width="3" stroke-miterlimit="10"/>
          </svg>