<svg width="113" height="34" viewBox="0 0 113 34" fill="none" xmlns="http://www.w3.org/2000/svg">
<rect x="0.5" y="0.5" width="112" height="33" rx="16.5" fill="#F8FFED"/>
<rect x="0.5" y="0.5" width="112" height="33" rx="16.5" stroke="#81BB26"/>
<path fill-rule="evenodd" clip-rule="evenodd" d="M10.8757 15.3125C10.5933 15.3124 10.404 15.3119 10.2742 15.3648C10.136 15.421 9.98114 15.4199 9.84369 15.362C9.70624 15.304 9.59742 15.1939 9.54114 15.0557C9.485 14.9175 9.48601 14.7627 9.54397 14.6252C9.60193 14.4878 9.71209 14.379 9.85024 14.3227C10.0759 14.2309 10.4035 14.1875 10.906 14.1875C11.1759 14.1875 11.4243 14.2215 11.656 14.2874C12.0955 13.8702 12.6209 13.625 13.3435 13.625C14.2038 13.625 14.8139 14.0561 15.2769 14.6436C15.6543 15.1227 15.924 15.7117 16.1773 16.1614L16.181 16.1682L16.7398 17.1928C16.8833 17.4444 17.0319 17.7592 17.2148 18.0614C17.228 18.047 17.2409 18.0324 17.2536 18.0178C17.4568 17.783 17.6133 17.5241 17.7685 17.3188L18.3303 16.5696C18.5696 16.2484 18.8395 15.8036 19.2114 15.4359C19.658 14.9941 20.235 14.6562 21.031 14.6562C21.4384 14.6562 21.769 14.7181 22.0525 14.8316C22.4629 14.5262 22.9211 14.375 23.4685 14.375C23.7391 14.375 23.9401 14.4347 24.127 14.5017C24.2674 14.5521 24.382 14.6562 24.4457 14.791C24.5094 14.9259 24.517 15.0806 24.4667 15.221C24.4163 15.3614 24.3123 15.476 24.1774 15.5398C24.0425 15.6035 23.8879 15.611 23.7475 15.5608C23.6679 15.5323 23.5838 15.5 23.4685 15.5C23.3114 15.5 23.1692 15.5242 23.0378 15.5707C23.2901 15.854 23.5338 16.1908 23.8204 16.5631L23.8247 16.5688L24.3872 17.3188C24.4766 17.4381 24.515 17.5881 24.4939 17.7358C24.4728 17.8834 24.394 18.0167 24.2747 18.1062C24.1553 18.1957 24.0053 18.2341 23.8577 18.213C23.71 18.1919 23.5768 18.113 23.4872 17.9937L22.9286 17.2488C22.6543 16.8925 22.435 16.5662 22.1968 16.302C22.1229 16.4082 22.0524 16.5168 21.9855 16.6275L21.341 17.7783C21.1173 18.2222 20.7007 18.9339 20.0936 19.4396C19.6341 19.8223 19.0714 20.0894 18.4096 20.0938C17.8102 20.0977 17.337 19.8729 16.9542 19.5289C16.7454 19.5912 16.5114 19.6263 16.2469 19.625C14.797 19.6178 13.8033 18.331 13.438 17.7808L12.3267 16.1141C12.2037 15.9627 12.0792 15.8283 11.9478 15.7149C11.7218 16.0649 11.5046 16.4727 11.2522 16.9068L10.5494 18.1248C10.4748 18.254 10.352 18.3483 10.208 18.3869C10.0639 18.4256 9.91038 18.4055 9.78114 18.331C9.65197 18.2564 9.55769 18.1336 9.51903 17.9895C9.48038 17.8454 9.5005 17.6919 9.57498 17.5627L10.2781 16.3439C10.2784 16.3433 10.2788 16.3427 10.2791 16.3422C10.4924 15.9755 10.6844 15.6273 10.8757 15.3125ZM16.1708 18.4975C16.0194 18.2315 15.8872 17.9683 15.7612 17.7476C15.7594 17.7444 15.7576 17.7413 15.7559 17.7381L15.1957 16.711C14.9677 16.3057 14.7328 15.771 14.3932 15.3399C14.1381 15.0162 13.8175 14.75 13.3435 14.75C13.1 14.75 12.898 14.8029 12.7224 14.8963C12.8941 15.0507 13.0585 15.2288 13.2194 15.4288C13.2298 15.4419 13.2398 15.4554 13.249 15.4692L14.374 17.1567L14.3745 17.1576C14.6189 17.5256 15.2221 18.4425 16.1708 18.4975ZM21.1877 15.7869C21.1376 15.7831 21.0854 15.7812 21.031 15.7812C20.4759 15.7812 20.1156 16.0872 19.8369 16.4153C19.5947 16.7003 19.4062 17.0087 19.2319 17.2424L19.231 17.2437L18.6685 17.9937C18.6681 17.9943 18.6677 17.9948 18.6672 17.9953C18.4651 18.2629 18.2532 18.5872 17.9779 18.8757C18.1104 18.9389 18.2556 18.9707 18.4023 18.9688C18.8936 18.9656 19.2815 18.693 19.5858 18.3767C19.9455 18.0029 20.1941 17.5554 20.3407 17.2633C20.3445 17.2557 20.3485 17.2482 20.3527 17.2407L21.0089 16.0689C21.0662 15.9734 21.1258 15.8794 21.1877 15.7869Z" fill="#004F2A"/>
<path d="M39.928 19.296H36.436L35.836 21H34.408L37.396 12.648H38.98L41.968 21H40.528L39.928 19.296ZM39.544 18.18L38.188 14.304L36.82 18.18H39.544ZM44.6352 12.66V21H43.2672V12.66H44.6352ZM54.5764 19.296H51.0844L50.4844 21H49.0564L52.0444 12.648H53.6284L56.6164 21H55.1764L54.5764 19.296ZM54.1924 18.18L52.8364 14.304L51.4684 18.18H54.1924ZM60.3156 21.108C59.7956 21.108 59.3276 21.016 58.9116 20.832C58.5036 20.64 58.1796 20.384 57.9396 20.064C57.6996 19.736 57.5716 19.372 57.5556 18.972H58.9716C58.9956 19.252 59.1276 19.488 59.3676 19.68C59.6156 19.864 59.9236 19.956 60.2916 19.956C60.6756 19.956 60.9716 19.884 61.1796 19.74C61.3956 19.588 61.5036 19.396 61.5036 19.164C61.5036 18.916 61.3836 18.732 61.1436 18.612C60.9116 18.492 60.5396 18.36 60.0276 18.216C59.5316 18.08 59.1276 17.948 58.8156 17.82C58.5036 17.692 58.2316 17.496 57.9996 17.232C57.7756 16.968 57.6636 16.62 57.6636 16.188C57.6636 15.836 57.7676 15.516 57.9756 15.228C58.1836 14.932 58.4796 14.7 58.8636 14.532C59.2556 14.364 59.7036 14.28 60.2076 14.28C60.9596 14.28 61.5636 14.472 62.0196 14.856C62.4836 15.232 62.7316 15.748 62.7636 16.404H61.3956C61.3716 16.108 61.2516 15.872 61.0356 15.696C60.8196 15.52 60.5276 15.432 60.1596 15.432C59.7996 15.432 59.5236 15.5 59.3316 15.636C59.1396 15.772 59.0436 15.952 59.0436 16.176C59.0436 16.352 59.1076 16.5 59.2356 16.62C59.3636 16.74 59.5196 16.836 59.7036 16.908C59.8876 16.972 60.1596 17.056 60.5196 17.16C60.9996 17.288 61.3916 17.42 61.6956 17.556C62.0076 17.684 62.2756 17.876 62.4996 18.132C62.7236 18.388 62.8396 18.728 62.8476 19.152C62.8476 19.528 62.7436 19.864 62.5356 20.16C62.3276 20.456 62.0316 20.688 61.6476 20.856C61.2716 21.024 60.8276 21.108 60.3156 21.108ZM66.7258 21.108C66.2058 21.108 65.7378 21.016 65.3218 20.832C64.9138 20.64 64.5898 20.384 64.3498 20.064C64.1098 19.736 63.9818 19.372 63.9658 18.972H65.3818C65.4058 19.252 65.5378 19.488 65.7778 19.68C66.0258 19.864 66.3338 19.956 66.7018 19.956C67.0858 19.956 67.3818 19.884 67.5898 19.74C67.8058 19.588 67.9138 19.396 67.9138 19.164C67.9138 18.916 67.7938 18.732 67.5538 18.612C67.3218 18.492 66.9498 18.36 66.4378 18.216C65.9418 18.08 65.5378 17.948 65.2258 17.82C64.9138 17.692 64.6418 17.496 64.4098 17.232C64.1858 16.968 64.0738 16.62 64.0738 16.188C64.0738 15.836 64.1778 15.516 64.3858 15.228C64.5938 14.932 64.8898 14.7 65.2738 14.532C65.6658 14.364 66.1138 14.28 66.6178 14.28C67.3698 14.28 67.9738 14.472 68.4298 14.856C68.8938 15.232 69.1418 15.748 69.1738 16.404H67.8058C67.7818 16.108 67.6618 15.872 67.4458 15.696C67.2298 15.52 66.9378 15.432 66.5698 15.432C66.2098 15.432 65.9338 15.5 65.7418 15.636C65.5498 15.772 65.4538 15.952 65.4538 16.176C65.4538 16.352 65.5178 16.5 65.6458 16.62C65.7738 16.74 65.9298 16.836 66.1138 16.908C66.2978 16.972 66.5698 17.056 66.9298 17.16C67.4098 17.288 67.8018 17.42 68.1058 17.556C68.4178 17.684 68.6858 17.876 68.9098 18.132C69.1338 18.388 69.2498 18.728 69.2578 19.152C69.2578 19.528 69.1538 19.864 68.9458 20.16C68.7378 20.456 68.4418 20.688 68.0578 20.856C67.6818 21.024 67.2378 21.108 66.7258 21.108ZM71.4319 13.512C71.1839 13.512 70.9759 13.428 70.8079 13.26C70.6399 13.092 70.5559 12.884 70.5559 12.636C70.5559 12.388 70.6399 12.18 70.8079 12.012C70.9759 11.844 71.1839 11.76 71.4319 11.76C71.6719 11.76 71.8759 11.844 72.0439 12.012C72.2119 12.18 72.2959 12.388 72.2959 12.636C72.2959 12.884 72.2119 13.092 72.0439 13.26C71.8759 13.428 71.6719 13.512 71.4319 13.512ZM72.1039 14.388V21H70.7359V14.388H72.1039ZM76.3 21.108C75.78 21.108 75.312 21.016 74.896 20.832C74.488 20.64 74.164 20.384 73.924 20.064C73.684 19.736 73.556 19.372 73.54 18.972H74.956C74.98 19.252 75.112 19.488 75.352 19.68C75.6 19.864 75.908 19.956 76.276 19.956C76.66 19.956 76.956 19.884 77.164 19.74C77.38 19.588 77.488 19.396 77.488 19.164C77.488 18.916 77.368 18.732 77.128 18.612C76.896 18.492 76.524 18.36 76.012 18.216C75.516 18.08 75.112 17.948 74.8 17.82C74.488 17.692 74.216 17.496 73.984 17.232C73.76 16.968 73.648 16.62 73.648 16.188C73.648 15.836 73.752 15.516 73.96 15.228C74.168 14.932 74.464 14.7 74.848 14.532C75.24 14.364 75.688 14.28 76.192 14.28C76.944 14.28 77.548 14.472 78.004 14.856C78.468 15.232 78.716 15.748 78.748 16.404H77.38C77.356 16.108 77.236 15.872 77.02 15.696C76.804 15.52 76.512 15.432 76.144 15.432C75.784 15.432 75.508 15.5 75.316 15.636C75.124 15.772 75.028 15.952 75.028 16.176C75.028 16.352 75.092 16.5 75.22 16.62C75.348 16.74 75.504 16.836 75.688 16.908C75.872 16.972 76.144 17.056 76.504 17.16C76.984 17.288 77.376 17.42 77.68 17.556C77.992 17.684 78.26 17.876 78.484 18.132C78.708 18.388 78.824 18.728 78.832 19.152C78.832 19.528 78.728 19.864 78.52 20.16C78.312 20.456 78.016 20.688 77.632 20.856C77.256 21.024 76.812 21.108 76.3 21.108ZM81.9062 15.504V19.164C81.9062 19.412 81.9622 19.592 82.0742 19.704C82.1942 19.808 82.3942 19.86 82.6742 19.86H83.5142V21H82.4342C81.8182 21 81.3462 20.856 81.0182 20.568C80.6902 20.28 80.5262 19.812 80.5262 19.164V15.504H79.7462V14.388H80.5262V12.744H81.9062V14.388H83.5142V15.504H81.9062ZM84.319 17.664C84.319 17 84.455 16.412 84.727 15.9C85.007 15.388 85.383 14.992 85.855 14.712C86.335 14.424 86.863 14.28 87.439 14.28C87.959 14.28 88.411 14.384 88.795 14.592C89.187 14.792 89.499 15.044 89.731 15.348V14.388H91.111V21H89.731V20.016C89.499 20.328 89.183 20.588 88.783 20.796C88.383 21.004 87.927 21.108 87.415 21.108C86.847 21.108 86.327 20.964 85.855 20.676C85.383 20.38 85.007 19.972 84.727 19.452C84.455 18.924 84.319 18.328 84.319 17.664ZM89.731 17.688C89.731 17.232 89.635 16.836 89.443 16.5C89.259 16.164 89.015 15.908 88.711 15.732C88.407 15.556 88.079 15.468 87.727 15.468C87.375 15.468 87.047 15.556 86.743 15.732C86.439 15.9 86.191 16.152 85.999 16.488C85.815 16.816 85.723 17.208 85.723 17.664C85.723 18.12 85.815 18.52 85.999 18.864C86.191 19.208 86.439 19.472 86.743 19.656C87.055 19.832 87.383 19.92 87.727 19.92C88.079 19.92 88.407 19.832 88.711 19.656C89.015 19.48 89.259 19.224 89.443 18.888C89.635 18.544 89.731 18.144 89.731 17.688ZM96.2438 14.28C96.7638 14.28 97.2278 14.388 97.6358 14.604C98.0518 14.82 98.3758 15.14 98.6078 15.564C98.8398 15.988 98.9558 16.5 98.9558 17.1V21H97.5998V17.304C97.5998 16.712 97.4518 16.26 97.1558 15.948C96.8598 15.628 96.4558 15.468 95.9438 15.468C95.4318 15.468 95.0238 15.628 94.7198 15.948C94.4238 16.26 94.2758 16.712 94.2758 17.304V21H92.9078V14.388H94.2758V15.144C94.4998 14.872 94.7838 14.66 95.1278 14.508C95.4798 14.356 95.8518 14.28 96.2438 14.28ZM102.297 15.504V19.164C102.297 19.412 102.353 19.592 102.465 19.704C102.585 19.808 102.785 19.86 103.065 19.86H103.905V21H102.825C102.209 21 101.737 20.856 101.409 20.568C101.081 20.28 100.917 19.812 100.917 19.164V15.504H100.137V14.388H100.917V12.744H102.297V14.388H103.905V15.504H102.297Z" fill="black"/>
</svg>
