<svg width="53" height="53" viewBox="0 0 53 53" fill="none" xmlns="http://www.w3.org/2000/svg">
<path d="M39.75 46.375C43.4089 46.375 46.375 43.4089 46.375 39.75C46.375 36.0911 43.4089 33.125 39.75 33.125C36.0911 33.125 33.125 36.0911 33.125 39.75C33.125 43.4089 36.0911 46.375 39.75 46.375Z" stroke="#737373" stroke-width="4.41667" stroke-linecap="round" stroke-linejoin="round"/>
<path d="M13.25 19.875C16.9089 19.875 19.875 16.9089 19.875 13.25C19.875 9.59111 16.9089 6.625 13.25 6.625C9.59111 6.625 6.625 9.59111 6.625 13.25C6.625 16.9089 9.59111 19.875 13.25 19.875Z" stroke="#737373" stroke-width="4.41667" stroke-linecap="round" stroke-linejoin="round"/>
<path d="M13.25 46.375V19.875C13.25 25.1462 15.344 30.2015 19.0713 33.9287C22.7985 37.656 27.8538 39.75 33.125 39.75" stroke="#737373" stroke-width="4.41667" stroke-linecap="round" stroke-linejoin="round"/>
</svg>
