<svg width="53" height="53" viewBox="0 0 53 53" fill="none" xmlns="http://www.w3.org/2000/svg">
<path d="M46.6853 29.0289V36.6003C46.6853 39.88 38.7756 44.1718 29.0186 44.1718C19.2616 44.1718 11.3519 39.88 11.3519 36.6003C11.3519 35.5213 11.3519 33.4182 11.3519 30.2908" stroke="#737373" stroke-width="2.52381" stroke-linecap="round" stroke-linejoin="round"/>
<path d="M12.0925 30.9468C14.2751 33.8447 21.0268 36.562 29.0176 36.562C38.7746 36.562 46.6842 32.5107 46.6842 29.0261C46.6842 27.0707 44.1937 24.9276 40.2838 23.4232" stroke="#737373" stroke-width="2.52381" stroke-linecap="round" stroke-linejoin="round"/>
<path d="M39.1147 16.41V23.9814C39.1147 27.2611 31.2051 31.5528 21.448 31.5528C11.691 31.5528 3.78137 27.2611 3.78137 23.9814C3.78137 22.3629 3.78137 18.0284 3.78137 16.41" stroke="#737373" stroke-width="2.52381" stroke-linecap="round" stroke-linejoin="round"/>
<path fill-rule="evenodd" clip-rule="evenodd" d="M21.448 23.9409C31.2051 23.9409 39.1147 19.8896 39.1147 16.405C39.1147 12.9203 31.2051 8.83939 21.448 8.83939C11.691 8.83939 3.78137 12.9203 3.78137 16.405C3.78137 19.8896 11.691 23.9409 21.448 23.9409Z" stroke="#737373" stroke-width="2.52381" stroke-linecap="round" stroke-linejoin="round"/>
</svg>
