<svg width="20" height="20" viewBox="0 0 20 20" fill="none" xmlns="http://www.w3.org/2000/svg">
<path d="M17.8668 9.20829L10.2085 16.8666C9.27029 17.8048 7.99781 18.3319 6.67099 18.3319C5.34417 18.3319 4.0717 17.8048 3.13349 16.8666C2.19529 15.9284 1.66821 14.6559 1.66821 13.3291C1.66821 12.0023 2.19529 10.7298 3.13349 9.79162L10.7918 2.13329C11.4173 1.50782 12.2656 1.15643 13.1502 1.15643C14.0347 1.15643 14.883 1.50782 15.5085 2.13329C16.134 2.75876 16.4853 3.60707 16.4853 4.49162C16.4853 5.37617 16.134 6.22449 15.5085 6.84995L7.84183 14.5083C7.52909 14.821 7.10493 14.9967 6.66266 14.9967C6.22039 14.9967 5.79623 14.821 5.48349 14.5083C5.17076 14.1956 4.99507 13.7714 4.99507 13.3291C4.99507 12.8868 5.17076 12.4627 5.48349 12.15L12.5585 5.08329" stroke="#FEFEFE" stroke-width="1.5" stroke-linecap="round" stroke-linejoin="round"/>
</svg>
