<svg width="20" height="20" viewBox="0 0 20 20" fill="none" xmlns="http://www.w3.org/2000/svg">
<path d="M5.28291 12.639V6.68666M13.021 14.4248H7.06862M14.8067 6.68666V12.639M7.06862 4.90095H13.021M15.9972 3.11523H13.6162C13.4584 3.11523 13.307 3.17795 13.1953 3.28958C13.0837 3.4012 13.021 3.55261 13.021 3.71047V6.09142C13.021 6.42095 13.2877 6.68666 13.6162 6.68666H15.9972C16.3258 6.68666 16.5924 6.42 16.5924 6.09142V3.71047C16.5924 3.55261 16.5297 3.4012 16.4181 3.28958C16.3065 3.17795 16.1551 3.11523 15.9972 3.11523V3.11523ZM6.47338 3.11523H4.09243C3.93456 3.11523 3.78316 3.17795 3.67153 3.28958C3.5599 3.4012 3.49719 3.55261 3.49719 3.71047V6.09142C3.49719 6.42095 3.76386 6.68666 4.09243 6.68666H6.47338C6.80291 6.68666 7.06862 6.42 7.06862 6.09142V3.71047C7.06862 3.55261 7.00591 3.4012 6.89428 3.28958C6.78265 3.17795 6.63125 3.11523 6.47338 3.11523ZM15.9972 12.639H13.6162C13.4584 12.639 13.307 12.7018 13.1953 12.8134C13.0837 12.925 13.021 13.0764 13.021 13.2343V15.6152C13.021 15.9448 13.2877 16.2105 13.6162 16.2105H15.9972C16.3258 16.2105 16.5924 15.9438 16.5924 15.6152V13.2343C16.5924 13.0764 16.5297 12.925 16.4181 12.8134C16.3065 12.7018 16.1551 12.639 15.9972 12.639V12.639ZM6.47338 12.639H4.09243C3.93456 12.639 3.78316 12.7018 3.67153 12.8134C3.5599 12.925 3.49719 13.0764 3.49719 13.2343V15.6152C3.49719 15.9448 3.76386 16.2105 4.09243 16.2105H6.47338C6.80291 16.2105 7.06862 15.9438 7.06862 15.6152V13.2343C7.06862 13.0764 7.00591 12.925 6.89428 12.8134C6.78265 12.7018 6.63125 12.639 6.47338 12.639Z" stroke="white" stroke-linecap="round" stroke-linejoin="round"/>
</svg>
