<svg width="53" height="53" viewBox="0 0 53 53" fill="none" xmlns="http://www.w3.org/2000/svg">
<path d="M28.7083 6.625H18.1083C15.6347 6.625 14.3979 6.625 13.4532 7.10639C12.6221 7.52982 11.9464 8.20548 11.523 9.03654C11.0416 9.98131 11.0416 11.2181 11.0416 13.6917V39.3083C11.0416 41.7819 11.0416 43.0188 11.523 43.9635C11.9464 44.7945 12.6221 45.4702 13.4532 45.8936C14.3979 46.375 15.6347 46.375 18.1083 46.375H28.7083M28.7083 6.625L41.9583 19.875M28.7083 6.625V16.3417C28.7083 17.5784 28.7083 18.1968 28.949 18.6692C29.1608 19.0847 29.4984 19.4226 29.914 19.6343C30.3864 19.875 31.0047 19.875 32.2416 19.875H41.9583M41.9583 19.875V22.0833M41.9585 33.125C37.5476 33.125 37.5454 34.1987 37.5418 36.0603V36.0676C37.5379 38.0558 37.5418 38.6458 41.9585 38.6458C46.3752 38.6458 46.3752 39.0996 46.3752 41.2223C46.3752 42.8174 46.3752 44.1667 41.9585 44.1667M41.9585 33.125H46.3752M41.9585 33.125L41.9583 30.9167M41.9585 44.1667H37.5418M41.9585 44.1667L41.9583 46.375" stroke="#737373" stroke-width="4" stroke-linecap="round" stroke-linejoin="round"/>
</svg>
