<svg width="53" height="53" viewBox="0 0 53 53" fill="none" xmlns="http://www.w3.org/2000/svg">
<g clip-path="url(#clip0_1006_99318)">
<path d="M22.0226 40.5901C20.8791 40.758 19.7868 41.1762 18.8235 41.8147C17.8602 42.4532 17.0496 43.2964 16.4496 44.2842C16.6313 42.4527 17.3462 40.7148 18.5058 39.2855C18.7185 38.9848 18.8058 38.613 18.7493 38.249C18.6927 37.885 18.4968 37.5573 18.2028 37.3352C17.9089 37.1132 17.5401 37.0142 17.1745 37.0593C16.8089 37.1044 16.4752 37.2899 16.244 37.5767C14.5796 39.6278 13.6465 42.1752 13.5922 44.816C13.5993 45.613 13.692 46.4069 13.8687 47.1842C13.6143 46.8693 13.4044 46.5209 13.2448 46.149C12.8695 45.2089 12.8695 44.1607 13.2448 43.2207C13.3681 42.8766 13.3538 42.4982 13.205 42.1645C13.0561 41.8307 12.7841 41.5672 12.4457 41.4291C12.1073 41.291 11.7287 41.2889 11.3888 41.4232C11.0489 41.5576 10.7739 41.8179 10.6213 42.15C9.95303 43.7861 9.95303 45.619 10.6213 47.2551C10.9965 48.145 11.547 48.9502 12.2402 49.6226C12.9334 50.295 13.7549 50.8209 14.6557 51.1689C14.8974 51.2412 15.148 51.2794 15.4002 51.2824C15.7209 51.286 16.0375 51.2105 16.322 51.0626C16.5486 51.2962 16.8487 51.4448 17.1719 51.4833C17.4951 51.5218 17.8217 51.448 18.0969 51.2743C18.3721 51.1005 18.5792 50.8373 18.6833 50.5289C18.7875 50.2206 18.7824 49.8857 18.6689 49.5807C18.4447 49.0044 18.3369 48.3894 18.3515 47.7712C18.3661 47.1531 18.5029 46.5439 18.754 45.9788C19.1145 45.297 19.6302 44.7094 20.2596 44.2635C20.8889 43.8177 21.6143 43.526 22.3771 43.4121C22.5651 43.3921 22.7472 43.3348 22.9128 43.2436C23.0784 43.1524 23.2241 43.0291 23.3415 42.8809C23.4589 42.7327 23.5455 42.5626 23.5964 42.3805C23.6472 42.1984 23.6613 42.008 23.6377 41.8205C23.6142 41.6329 23.5535 41.4519 23.4591 41.2881C23.3648 41.1243 23.2388 40.9809 23.0884 40.8663C22.938 40.7518 22.7663 40.6683 22.5833 40.6209C22.4003 40.5735 22.2097 40.563 22.0226 40.5901ZM29.2831 33.4502C29.6463 32.7704 30.1628 32.1846 30.7917 31.7391C31.4205 31.2935 32.1445 31.0006 32.9063 30.8835C33.2824 30.8355 33.624 30.6401 33.856 30.3403C34.0881 30.0404 34.1915 29.6607 34.1435 29.2846C34.0956 28.9085 33.9002 28.5669 33.6003 28.3348C33.3005 28.1028 32.9208 27.9994 32.5447 28.0473C31.4012 28.2152 30.3089 28.6334 29.3456 29.2719C28.3822 29.9104 27.5717 30.7536 26.9717 31.7414C27.1538 29.91 27.8687 28.1722 29.0279 26.7427C29.1471 26.5948 29.2354 26.4244 29.2875 26.2418C29.3396 26.0591 29.3545 25.8678 29.3312 25.6792C29.308 25.4907 29.2471 25.3087 29.1522 25.1442C29.0572 24.9796 28.9302 24.8358 28.7786 24.7213C28.627 24.6068 28.454 24.5239 28.2698 24.4775C28.0855 24.4312 27.8939 24.4223 27.7061 24.4515C27.5184 24.4807 27.3385 24.5472 27.177 24.6473C27.0155 24.7473 26.8757 24.8788 26.766 25.0339C25.0997 27.0893 24.1665 29.6418 24.1143 32.2873C24.1218 33.082 24.2145 33.8735 24.3908 34.6484C24.1364 34.3335 23.9265 33.9852 23.7668 33.6132C23.3894 32.6736 23.3894 31.6245 23.7668 30.6849C23.9097 30.337 23.9086 29.9466 23.7637 29.5996C23.6187 29.2525 23.3419 28.9773 22.994 28.8344C22.6461 28.6914 22.2557 28.6926 21.9086 28.8375C21.5616 28.9824 21.2863 29.2593 21.1434 29.6072C20.4728 31.2428 20.4728 33.0766 21.1434 34.7122C21.5126 35.6095 22.0599 36.4227 22.752 37.1027C23.4442 37.7827 24.267 38.3154 25.1707 38.6687C25.4123 38.7411 25.6629 38.7793 25.9152 38.7821C26.2358 38.7857 26.5524 38.7102 26.8369 38.5623C27.0636 38.7959 27.3637 38.9445 27.6869 38.983C28.0101 39.0216 28.3367 38.9478 28.6119 38.774C28.8871 38.6002 29.0942 38.337 29.1983 38.0287C29.3025 37.7203 29.2974 37.3855 29.1838 37.0804C28.958 36.4991 28.8505 35.8786 28.8676 35.2553C28.8846 34.6319 29.0259 34.0182 29.2831 33.4502ZM41.7196 40.9872C40.5761 41.1551 39.4838 41.5732 38.5205 42.2118C37.5572 42.8503 36.7466 43.6935 36.1466 44.6813C36.3287 42.8499 37.0436 41.112 38.2028 39.6826C38.322 39.5347 38.4103 39.3643 38.4624 39.1816C38.5145 38.9989 38.5294 38.8076 38.5061 38.6191C38.4829 38.4305 38.422 38.2486 38.3271 38.084C38.2321 37.9195 38.1051 37.7757 37.9535 37.6612C37.8019 37.5466 37.6289 37.4638 37.4447 37.4174C37.2604 37.3711 37.0688 37.3622 36.881 37.3914C36.6933 37.4205 36.5134 37.4871 36.3519 37.5872C36.1904 37.6872 36.0506 37.8187 35.9409 37.9738C34.2775 40.0254 33.3445 42.5724 33.2892 45.213C33.2963 46.0077 33.389 46.7993 33.5657 47.5741C33.3117 47.2615 33.1018 46.9156 32.9417 46.546C32.5672 45.6058 32.5672 44.5579 32.9417 43.6177C33.0154 43.4444 33.0539 43.2581 33.0549 43.0698C33.0559 42.8814 33.0195 42.6948 32.9477 42.5206C32.8759 42.3465 32.7702 42.1884 32.6367 42.0555C32.5032 41.9226 32.3446 41.8176 32.1701 41.7466C31.9957 41.6756 31.8088 41.64 31.6205 41.6419C31.4322 41.6438 31.2461 41.6832 31.0731 41.7576C30.9001 41.8321 30.7436 41.9403 30.6128 42.0758C30.482 42.2113 30.3795 42.3715 30.3112 42.5471C29.6437 44.1833 29.6437 46.0159 30.3112 47.6521C30.686 48.5422 31.2365 49.3476 31.9296 50.0201C32.6228 50.6926 33.4445 51.2184 34.3456 51.566C34.5872 51.6385 34.8379 51.6767 35.0901 51.6794C35.4107 51.6831 35.7273 51.6076 36.0118 51.4596C36.2385 51.6933 36.5386 51.8418 36.8618 51.8804C37.185 51.9189 37.5116 51.8451 37.7868 51.6713C38.062 51.4975 38.2691 51.2344 38.3732 50.926C38.4774 50.6176 38.4723 50.2828 38.3587 49.9777C38.135 49.4014 38.0273 48.7864 38.0419 48.1683C38.0565 47.5502 38.1931 46.941 38.4438 46.3759C38.807 45.6961 39.3235 45.1103 39.9524 44.6647C40.5813 44.2192 41.3053 43.9263 42.067 43.8092C42.4412 43.7631 42.7818 43.5702 43.0138 43.2731C43.2459 42.9759 43.3503 42.5987 43.3043 42.2245C43.2582 41.8502 43.0653 41.5097 42.7682 41.2776C42.471 41.0456 42.0938 40.9411 41.7196 40.9872ZM45.2789 26.9554L41.124 19.3191C40.6727 18.4908 40.0065 17.7994 39.1955 17.3178C38.3844 16.8361 37.4585 16.582 36.5153 16.5822H31.8924V20.8364H36.5153C36.6948 20.8358 36.8712 20.8836 37.0259 20.9746C37.1806 21.0657 37.3079 21.1968 37.3945 21.354L41.5494 28.9903C42.6711 31.0589 44.3302 32.7864 46.3519 33.9907C48.3735 35.1949 50.6826 35.8312 53.0358 35.8325V31.5783C51.4462 31.5782 49.8863 31.1485 48.5209 30.3348C47.1555 29.521 46.0353 28.3534 45.2789 26.9554ZM52.1566 18.2556L48.0016 10.6193C46.8787 8.55284 45.2188 6.82778 43.1972 5.62604C41.1756 4.42429 38.8671 3.79042 36.5153 3.79126H31.8924V8.04547H36.5153C38.1021 8.0455 39.6596 8.47363 41.0235 9.28475C42.3874 10.0959 43.5073 11.2599 44.265 12.6542L48.4199 20.2905C48.8718 21.1199 49.5391 21.812 50.3515 22.2937C51.1639 22.7754 52.0913 23.0288 53.0358 23.0274V18.7732C52.8562 18.7738 52.6799 18.726 52.5252 18.635C52.3705 18.5439 52.2431 18.4128 52.1566 18.2556ZM25.8018 1.08984H30.056V22.9139H25.8018V1.08984ZM1.41807 30.5715C1.04197 30.5715 0.681282 30.7209 0.415343 30.9868C0.149403 31.2528 0 31.6135 0 31.9896L0 35.5347C0 35.9108 0.149403 36.2715 0.415343 36.5374C0.681282 36.8034 1.04197 36.9528 1.41807 36.9528C1.79416 36.9528 2.15485 36.8034 2.42079 36.5374C2.68673 36.2715 2.83614 35.9108 2.83614 35.5347V31.9896C2.83614 31.6135 2.68673 31.2528 2.42079 30.9868C2.15485 30.7209 1.79416 30.5715 1.41807 30.5715ZM3.89969 14.0014C4.04585 14.1169 4.21334 14.2025 4.39259 14.2532C4.57184 14.304 4.75934 14.3189 4.94436 14.2972C5.12939 14.2755 5.30832 14.2175 5.47093 14.1266C5.63354 14.0357 5.77665 13.9136 5.89207 13.7674C6.56001 12.9255 7.32116 12.1619 8.16098 11.4914C8.44116 11.2521 8.61723 10.9132 8.65191 10.5464C8.68659 10.1796 8.57715 9.81376 8.34677 9.52624C8.11639 9.23873 7.78315 9.05217 7.41762 9.00605C7.05209 8.95994 6.68296 9.0579 6.3884 9.27919C5.37995 10.0852 4.46651 11.0034 3.66571 12.0161C3.43463 12.3108 3.32955 12.685 3.37338 13.0569C3.41722 13.4289 3.60642 13.7684 3.89969 14.0014ZM1.41807 22.7721C1.04197 22.7721 0.681282 22.9215 0.415343 23.1875C0.149403 23.4534 0 23.8141 0 24.1902L0 27.7353C0 28.1114 0.149403 28.4721 0.415343 28.7381C0.681282 29.004 1.04197 29.1534 1.41807 29.1534C1.79416 29.1534 2.15485 29.004 2.42079 28.7381C2.68673 28.4721 2.83614 28.1114 2.83614 27.7353V24.1902C2.83614 23.8141 2.68673 23.4534 2.42079 23.1875C2.15485 22.9215 1.79416 22.7721 1.41807 22.7721ZM10.8837 9.59825C11.0738 9.59789 11.2618 9.55931 11.4367 9.48481C12.4244 9.06729 13.457 8.76514 14.5139 8.58433C14.8718 8.50809 15.1864 8.29645 15.3918 7.99367C15.5973 7.69089 15.6778 7.3204 15.6164 6.95966C15.5551 6.59892 15.3567 6.27586 15.0627 6.05802C14.7687 5.84017 14.4018 5.7444 14.0389 5.79074C12.7651 6.00795 11.5207 6.37198 10.3306 6.87556C10.0301 7.00357 9.78304 7.23139 9.63109 7.52052C9.47915 7.80966 9.43168 8.14238 9.4967 8.46247C9.56172 8.78256 9.73524 9.07039 9.98795 9.27733C10.2407 9.48427 10.557 9.59763 10.8837 9.59825ZM18.52 8.41417H22.0013C22.1876 8.41417 22.372 8.37749 22.544 8.30622C22.716 8.23496 22.8724 8.1305 23.0041 7.99882C23.1357 7.86714 23.2402 7.71082 23.3115 7.53877C23.3827 7.36672 23.4194 7.18232 23.4194 6.9961C23.4194 6.80988 23.3827 6.62548 23.3115 6.45343C23.2402 6.28138 23.1357 6.12505 23.0041 5.99337C22.8724 5.86169 22.716 5.75724 22.544 5.68597C22.372 5.61471 22.1876 5.57803 22.0013 5.57803H18.52C18.1439 5.57803 17.7832 5.72743 17.5172 5.99337C17.2513 6.25931 17.1019 6.62 17.1019 6.9961C17.1019 7.37219 17.2513 7.73288 17.5172 7.99882C17.7832 8.26476 18.1439 8.41417 18.52 8.41417ZM3.14102 15.2705C2.96881 15.1985 2.78406 15.1611 2.59738 15.1606C2.4107 15.1601 2.22576 15.1965 2.05316 15.2676C1.88057 15.3388 1.72372 15.4433 1.59162 15.5752C1.45951 15.7071 1.35475 15.8638 1.28335 16.0363C0.787252 17.2297 0.43038 18.4764 0.219801 19.7516C0.189389 19.9355 0.195536 20.1236 0.237891 20.3052C0.280245 20.4867 0.357976 20.6581 0.466635 20.8096C0.575295 20.961 0.712752 21.0896 0.871142 21.1879C1.02953 21.2862 1.20575 21.3523 1.38971 21.3824H1.62369C1.96255 21.387 2.29187 21.2702 2.552 21.053C2.81213 20.8358 2.98587 20.5326 3.04176 20.1983C3.21728 19.1395 3.51469 18.1045 3.92805 17.114C4.06795 16.7652 4.06364 16.3751 3.91607 16.0294C3.76849 15.6837 3.48973 15.4108 3.14102 15.2705ZM11.7771 14.6466C12.6464 14.0772 13.6051 13.6578 14.6132 13.4058C14.9646 13.3006 15.2615 13.0634 15.4417 12.7439C15.6218 12.4244 15.6712 12.0476 15.5795 11.6925C15.4877 11.3374 15.262 11.0317 14.9496 10.8395C14.6372 10.6473 14.2625 10.5836 13.9042 10.6618C12.6034 10.994 11.367 11.5404 10.2455 12.2784C9.97328 12.4986 9.79209 12.8117 9.73686 13.1574C9.68163 13.5032 9.75628 13.8571 9.94642 14.1512C10.1366 14.4452 10.4288 14.6584 10.7667 14.7499C11.1047 14.8414 11.4646 14.8046 11.7771 14.6466ZM18.4562 13.1434H22.0013C22.3774 13.1434 22.7381 12.994 23.0041 12.7281C23.27 12.4621 23.4194 12.1015 23.4194 11.7254C23.4194 11.3493 23.27 10.9886 23.0041 10.7226C22.7381 10.4567 22.3774 10.3073 22.0013 10.3073H18.4562C18.2699 10.3073 18.0855 10.344 17.9135 10.4152C17.7414 10.4865 17.5851 10.591 17.4534 10.7226C17.3218 10.8543 17.2173 11.0106 17.146 11.1827C17.0748 11.3547 17.0381 11.5391 17.0381 11.7254C17.0381 11.9116 17.0748 12.096 17.146 12.268C17.2173 12.4401 17.3218 12.5964 17.4534 12.7281C17.5851 12.8598 17.7414 12.9642 17.9135 13.0355C18.0855 13.1067 18.2699 13.1434 18.4562 13.1434ZM6.11897 30.2311C5.74287 30.2311 5.38218 30.3806 5.11624 30.6465C4.8503 30.9124 4.7009 31.2731 4.7009 31.6492V35.1944C4.7009 35.5705 4.8503 35.9312 5.11624 36.1971C5.38218 36.4631 5.74287 36.6125 6.11897 36.6125C6.49506 36.6125 6.85575 36.4631 7.12169 36.1971C7.38763 35.9312 7.53703 35.5705 7.53703 35.1944V31.6492C7.53703 31.2731 7.38763 30.9124 7.12169 30.6465C6.85575 30.3806 6.49506 30.2311 6.11897 30.2311ZM6.11897 22.4318C5.74287 22.4318 5.38218 22.5812 5.11624 22.8471C4.8503 23.1131 4.7009 23.4737 4.7009 23.8498V27.395C4.7009 27.7711 4.8503 28.1318 5.11624 28.3977C5.38218 28.6637 5.74287 28.8131 6.11897 28.8131C6.49506 28.8131 6.85575 28.6637 7.12169 28.3977C7.38763 28.1318 7.53703 27.7711 7.53703 27.395V23.8498C7.53703 23.4737 7.38763 23.1131 7.12169 22.8471C6.85575 22.5812 6.49506 22.4318 6.11897 22.4318ZM8.78493 15.2705C8.63087 15.1657 8.45765 15.0922 8.27517 15.0543C8.0927 15.0165 7.90455 15.015 7.72148 15.0499C7.53842 15.0848 7.36403 15.1554 7.20828 15.2577C7.05254 15.3601 6.9185 15.4921 6.81382 15.6463C6.05748 16.753 5.48966 17.9773 5.13341 19.2695C5.08406 19.4492 5.07059 19.6369 5.09377 19.8218C5.11694 20.0067 5.17631 20.1852 5.26849 20.3472C5.45465 20.6743 5.76312 20.914 6.12606 21.0137C6.30576 21.0631 6.49343 21.0765 6.67834 21.0533C6.86325 21.0302 7.04178 20.9708 7.20375 20.8786C7.53086 20.6925 7.77061 20.384 7.87028 20.0211C8.14151 19.03 8.57517 18.0908 9.15363 17.2416C9.3661 16.9314 9.44661 16.5494 9.37747 16.1797C9.30833 15.8101 9.09519 15.483 8.78493 15.2705ZM18.4562 17.8231H22.0013C22.3774 17.8231 22.7381 17.6736 23.0041 17.4077C23.27 17.1418 23.4194 16.7811 23.4194 16.405C23.4194 16.0289 23.27 15.6682 23.0041 15.4023C22.7381 15.1363 22.3774 14.9869 22.0013 14.9869H18.4562C18.0801 14.9869 17.7194 15.1363 17.4534 15.4023C17.1875 15.6682 17.0381 16.0289 17.0381 16.405C17.0381 16.7811 17.1875 17.1418 17.4534 17.4077C17.7194 17.6736 18.0801 17.8231 18.4562 17.8231ZM12.245 34.7831V31.238C12.245 30.8619 12.0956 30.5012 11.8297 30.2353C11.5637 29.9693 11.203 29.8199 10.827 29.8199C10.4509 29.8199 10.0902 29.9693 9.82423 30.2353C9.55829 30.5012 9.40888 30.8619 9.40888 31.238V34.7831C9.40888 35.1592 9.55829 35.5199 9.82423 35.7859C10.0902 36.0518 10.4509 36.2012 10.827 36.2012C11.203 36.2012 11.5637 36.0518 11.8297 35.7859C12.0956 35.5199 12.245 35.1592 12.245 34.7831ZM10.827 28.4018C11.203 28.4018 11.5637 28.2524 11.8297 27.9865C12.0956 27.7206 12.245 27.3599 12.245 26.9838V23.4386C12.245 23.0625 12.0956 22.7018 11.8297 22.4359C11.5637 22.1699 11.203 22.0205 10.827 22.0205C10.4509 22.0205 10.0902 22.1699 9.82423 22.4359C9.55829 22.7018 9.40888 23.0625 9.40888 23.4386V26.9838C9.40888 27.3599 9.55829 27.7206 9.82423 27.9865C10.0902 28.2524 10.4509 28.4018 10.827 28.4018ZM10.99 20.5599C11.1492 20.6569 11.326 20.7215 11.5101 20.7501C11.6943 20.7787 11.8823 20.7708 12.0634 20.7266C12.2445 20.6825 12.4152 20.6031 12.5655 20.493C12.7159 20.3829 12.8431 20.2442 12.9399 20.0849C13.4122 19.3041 14.1022 18.6782 14.9252 18.2839C15.0978 18.2068 15.2533 18.0958 15.3825 17.9577C15.5117 17.8195 15.6119 17.6569 15.6772 17.4794C15.7426 17.302 15.7718 17.1132 15.7632 16.9243C15.7545 16.7353 15.7081 16.55 15.6268 16.3793C15.5454 16.2086 15.4307 16.0558 15.2895 15.9301C15.1482 15.8043 14.9832 15.7081 14.8042 15.647C14.6252 15.586 14.4358 15.5614 14.2471 15.5747C14.0584 15.5879 13.8743 15.6388 13.7056 15.7243C12.3826 16.3567 11.2736 17.3623 10.515 18.6172C10.3214 18.9381 10.2627 19.3225 10.3517 19.6866C10.4407 20.0506 10.6702 20.3646 10.99 20.5599Z" fill="#737373"/>
</g>
<defs>
<clipPath id="clip0_1006_99318">
<rect width="53" height="53" fill="white"/>
</clipPath>
</defs>
</svg>
