<svg width="53" height="53" viewBox="0 0 53 53" fill="none" xmlns="http://www.w3.org/2000/svg">
<path d="M36.4375 2.07031H16.5625C14.0483 2.07363 12.0111 4.11081 12.0078 6.625V46.375C12.0111 48.8892 14.0483 50.9264 16.5625 50.9297H36.4375C38.9517 50.9264 40.9889 48.8892 40.9922 46.375V6.625C40.9889 4.11081 38.9517 2.07363 36.4375 2.07031ZM38.5078 46.375C38.5062 47.5178 37.5803 48.4437 36.4375 48.4453H16.5625C15.4197 48.4437 14.4938 47.5178 14.4922 46.375V6.625C14.4938 5.48219 15.4197 4.55634 16.5625 4.55469H36.4375C37.5803 4.55634 38.5062 5.48219 38.5078 6.625V46.375ZM29.8125 42.6484H23.1875C22.5018 42.6484 21.9453 43.2049 21.9453 43.8906C21.9453 44.5763 22.5018 45.1328 23.1875 45.1328H29.8125C30.4982 45.1328 31.0547 44.5763 31.0547 43.8906C31.0547 43.2049 30.4982 42.6484 29.8125 42.6484Z" fill="#737373"/>
</svg>
