<svg width="32" height="32" viewBox="0 0 32 32" fill="none" xmlns="http://www.w3.org/2000/svg">
<rect x="0.5" y="0.5" width="31" height="31" rx="15.5" fill="#F8FFED"/>
<rect x="0.5" y="0.5" width="31" height="31" rx="15.5" stroke="#81BB26"/>
<g clip-path="url(#clip0_0_8510)">
<path d="M23.4996 19.6901V21.9401C23.5004 22.1489 23.4576 22.3557 23.374 22.5471C23.2903 22.7385 23.1676 22.9103 23.0136 23.0515C22.8597 23.1927 22.678 23.3002 22.4801 23.3671C22.2823 23.434 22.0726 23.4589 21.8646 23.4401C19.5567 23.1893 17.3398 22.4007 15.3921 21.1376C13.58 19.9861 12.0436 18.4497 10.8921 16.6376C9.62457 14.681 8.83577 12.4533 8.58958 10.1351C8.57084 9.92767 8.59549 9.71864 8.66196 9.52129C8.72843 9.32394 8.83526 9.14259 8.97566 8.98879C9.11605 8.83499 9.28694 8.7121 9.47743 8.62796C9.66792 8.54382 9.87384 8.50027 10.0821 8.50007H12.3321C12.6961 8.49649 13.0489 8.62538 13.3249 8.86272C13.6009 9.10006 13.7811 9.42966 13.8321 9.79007C13.9271 10.5101 14.1032 11.2171 14.3571 11.8976C14.458 12.166 14.4798 12.4578 14.42 12.7382C14.3602 13.0187 14.2212 13.2762 14.0196 13.4801L13.0671 14.4326C14.1348 16.3102 15.6894 17.8649 17.5671 18.9326L18.5196 17.9801C18.7235 17.7784 18.9809 17.6395 19.2614 17.5796C19.5419 17.5198 19.8336 17.5417 20.1021 17.6426C20.7825 17.8965 21.4895 18.0726 22.2096 18.1676C22.5739 18.219 22.9066 18.4025 23.1445 18.6832C23.3823 18.9639 23.5087 19.3223 23.4996 19.6901Z" stroke="#81BB26" stroke-width="1.5" stroke-linecap="round" stroke-linejoin="round"/>
</g>
<defs>
<clipPath id="clip0_0_8510">
<rect width="18" height="18" fill="white" transform="translate(7 7)"/>
</clipPath>
</defs>
</svg>
