<svg xmlns="http://www.w3.org/2000/svg" xmlns:xlink="http://www.w3.org/1999/xlink" width="16px" height="16px" viewBox="0 0 16 16" version="1.1">
<g id="surface1">
<path style=" stroke:none;fill-rule:evenodd;fill:#81bb26;fill-opacity:1;" d="M 4.667969 13.332031 C 5.035156 13.332031 5.332031 13.035156 5.332031 12.667969 C 5.332031 12.296875 5.035156 12 4.667969 12 C 4.296875 12 4 12.296875 4 12.667969 C 4 13.035156 4.296875 13.332031 4.667969 13.332031 Z M 4.667969 14 C 5.402344 14 6 13.402344 6 12.667969 C 6 11.929688 5.402344 11.332031 4.667969 11.332031 C 3.929688 11.332031 3.332031 11.929688 3.332031 12.667969 C 3.332031 13.402344 3.929688 14 4.667969 14 Z M 4.667969 14 "/>
<path style=" stroke:none;fill-rule:evenodd;fill:#81bb26;fill-opacity:1;" d="M 3.332031 7.332031 C 3.703125 7.332031 4 7.035156 4 6.667969 C 4 6.296875 3.703125 6 3.332031 6 C 2.964844 6 2.667969 6.296875 2.667969 6.667969 C 2.667969 7.035156 2.964844 7.332031 3.332031 7.332031 Z M 3.332031 8 C 4.070312 8 4.667969 7.402344 4.667969 6.667969 C 4.667969 5.929688 4.070312 5.332031 3.332031 5.332031 C 2.597656 5.332031 2 5.929688 2 6.667969 C 2 7.402344 2.597656 8 3.332031 8 Z M 3.332031 8 "/>
<path style=" stroke:none;fill-rule:evenodd;fill:#81bb26;fill-opacity:1;" d="M 12.667969 7.332031 C 13.035156 7.332031 13.332031 7.035156 13.332031 6.667969 C 13.332031 6.296875 13.035156 6 12.667969 6 C 12.296875 6 12 6.296875 12 6.667969 C 12 7.035156 12.296875 7.332031 12.667969 7.332031 Z M 12.667969 8 C 13.402344 8 14 7.402344 14 6.667969 C 14 5.929688 13.402344 5.332031 12.667969 5.332031 C 11.929688 5.332031 11.332031 5.929688 11.332031 6.667969 C 11.332031 7.402344 11.929688 8 12.667969 8 Z M 12.667969 8 "/>
<path style=" stroke:none;fill-rule:evenodd;fill:#81bb26;fill-opacity:1;" d="M 11.332031 13.332031 C 11.703125 13.332031 12 13.035156 12 12.667969 C 12 12.296875 11.703125 12 11.332031 12 C 10.964844 12 10.667969 12.296875 10.667969 12.667969 C 10.667969 13.035156 10.964844 13.332031 11.332031 13.332031 Z M 11.332031 14 C 12.070312 14 12.667969 13.402344 12.667969 12.667969 C 12.667969 11.929688 12.070312 11.332031 11.332031 11.332031 C 10.597656 11.332031 10 11.929688 10 12.667969 C 10 13.402344 10.597656 14 11.332031 14 Z M 11.332031 14 "/>
<path style=" stroke:none;fill-rule:evenodd;fill:#81bb26;fill-opacity:1;" d="M 8 4 C 8.367188 4 8.667969 3.703125 8.667969 3.332031 C 8.667969 2.964844 8.367188 2.667969 8 2.667969 C 7.632812 2.667969 7.332031 2.964844 7.332031 3.332031 C 7.332031 3.703125 7.632812 4 8 4 Z M 8 4.667969 C 8.738281 4.667969 9.332031 4.070312 9.332031 3.332031 C 9.332031 2.597656 8.738281 2 8 2 C 7.261719 2 6.667969 2.597656 6.667969 3.332031 C 6.667969 4.070312 7.261719 4.667969 8 4.667969 Z M 8 4.667969 "/>
<path style=" stroke:none;fill-rule:evenodd;fill:#81bb26;fill-opacity:1;" d="M 11.640625 6.34375 L 8.640625 4.199219 L 9.027344 3.65625 L 12.027344 5.800781 Z M 7.261719 4.269531 L 4.359375 6.34375 L 3.972656 5.800781 L 6.875 3.726562 Z M 3.882812 7.59375 L 4.769531 11.59375 L 4.117188 11.738281 L 3.230469 7.738281 Z M 11.230469 11.59375 L 12.082031 7.761719 L 12.734375 7.90625 L 11.882812 11.738281 Z M 5.667969 12.332031 L 10.332031 12.332031 L 10.332031 13 L 5.667969 13 Z M 5.667969 12.332031 "/>
</g>
</svg>