<svg width="53" height="53" viewBox="0 0 53 53" fill="none" xmlns="http://www.w3.org/2000/svg">
<g clip-path="url(#clip0_0_7657)">
<path d="M37.5404 46.375V41.9583C37.5404 39.6156 36.6097 37.3688 34.9531 35.7122C33.2966 34.0557 31.0498 33.125 28.707 33.125H11.0404C8.69762 33.125 6.45083 34.0557 4.79426 35.7122C3.13768 37.3688 2.20703 39.6156 2.20703 41.9583V46.375" stroke="#737373" stroke-width="4.41667" stroke-linecap="round" stroke-linejoin="round"/>
<path d="M19.8744 24.2917C24.7529 24.2917 28.7077 20.3369 28.7077 15.4583C28.7077 10.5798 24.7529 6.625 19.8744 6.625C14.9958 6.625 11.041 10.5798 11.041 15.4583C11.041 20.3369 14.9958 24.2917 19.8744 24.2917Z" stroke="#737373" stroke-width="4.41667" stroke-linecap="round" stroke-linejoin="round"/>
<path d="M50.791 46.3711V41.9545C50.7896 39.9973 50.1381 38.096 48.939 36.5491C47.7399 35.0023 46.0611 33.8975 44.166 33.4082" stroke="#737373" stroke-width="4.41667" stroke-linecap="round" stroke-linejoin="round"/>
<path d="M35.332 6.9082C37.2321 7.3947 38.9162 8.49975 40.1189 10.0491C41.3216 11.5985 41.9744 13.5041 41.9744 15.4655C41.9744 17.4269 41.3216 19.3325 40.1189 20.8818C38.9162 22.4312 37.2321 23.5363 35.332 24.0228" stroke="#737373" stroke-width="4.41667" stroke-linecap="round" stroke-linejoin="round"/>
</g>
<defs>
<clipPath id="clip0_0_7657">
<rect width="53" height="53" fill="white"/>
</clipPath>
</defs>
</svg>
