<svg width="19" height="19" viewBox="0 0 19 19" fill="none" xmlns="http://www.w3.org/2000/svg">
<path d="M14.8 11.75C14.7002 11.9762 14.6704 12.2271 14.7145 12.4704C14.7586 12.7137 14.8746 12.9382 15.0475 13.115L15.0925 13.16C15.232 13.2993 15.3426 13.4647 15.4181 13.6468C15.4936 13.8289 15.5324 14.0241 15.5324 14.2213C15.5324 14.4184 15.4936 14.6136 15.4181 14.7957C15.3426 14.9778 15.232 15.1432 15.0925 15.2825C14.9532 15.422 14.7878 15.5326 14.6057 15.6081C14.4236 15.6836 14.2284 15.7224 14.0312 15.7224C13.8341 15.7224 13.6389 15.6836 13.4568 15.6081C13.2747 15.5326 13.1093 15.422 12.97 15.2825L12.925 15.2375C12.7482 15.0646 12.5237 14.9486 12.2804 14.9045C12.0371 14.8604 11.7862 14.8902 11.56 14.99C11.3382 15.0851 11.149 15.2429 11.0157 15.4442C10.8825 15.6454 10.811 15.8812 10.81 16.1225V16.25C10.81 16.6478 10.652 17.0294 10.3707 17.3107C10.0894 17.592 9.70782 17.75 9.31 17.75C8.91218 17.75 8.53064 17.592 8.24934 17.3107C7.96804 17.0294 7.81 16.6478 7.81 16.25V16.1825C7.80419 15.9343 7.72384 15.6935 7.57938 15.4915C7.43493 15.2896 7.23305 15.1357 7 15.05C6.77379 14.9502 6.52286 14.9204 6.27956 14.9645C6.03626 15.0086 5.81176 15.1246 5.635 15.2975L5.59 15.3425C5.45069 15.482 5.28526 15.5926 5.10316 15.6681C4.92106 15.7436 4.72587 15.7824 4.52875 15.7824C4.33163 15.7824 4.13644 15.7436 3.95434 15.6681C3.77224 15.5926 3.60681 15.482 3.4675 15.3425C3.32804 15.2032 3.2174 15.0378 3.14191 14.8557C3.06642 14.6736 3.02757 14.4784 3.02757 14.2812C3.02757 14.0841 3.06642 13.8889 3.14191 13.7068C3.2174 13.5247 3.32804 13.3593 3.4675 13.22L3.5125 13.175C3.6854 12.9982 3.80139 12.7737 3.8455 12.5304C3.88962 12.2871 3.85984 12.0362 3.76 11.81C3.66493 11.5882 3.50707 11.399 3.30585 11.2657C3.10463 11.1325 2.86884 11.061 2.6275 11.06H2.5C2.10218 11.06 1.72064 10.902 1.43934 10.6207C1.15804 10.3394 1 9.95782 1 9.56C1 9.16218 1.15804 8.78064 1.43934 8.49934C1.72064 8.21804 2.10218 8.06 2.5 8.06H2.5675C2.81575 8.05419 3.0565 7.97384 3.25847 7.82938C3.46045 7.68493 3.61429 7.48305 3.7 7.25C3.79984 7.02379 3.82962 6.77286 3.7855 6.52956C3.74139 6.28626 3.6254 6.06176 3.4525 5.885L3.4075 5.84C3.26804 5.70069 3.1574 5.53526 3.08191 5.35316C3.00642 5.17106 2.96757 4.97587 2.96757 4.77875C2.96757 4.58163 3.00642 4.38644 3.08191 4.20434C3.1574 4.02224 3.26804 3.85681 3.4075 3.7175C3.54681 3.57804 3.71224 3.4674 3.89434 3.39191C4.07644 3.31642 4.27163 3.27757 4.46875 3.27757C4.66587 3.27757 4.86106 3.31642 5.04316 3.39191C5.22526 3.4674 5.39069 3.57804 5.53 3.7175L5.575 3.7625C5.75176 3.9354 5.97626 4.05139 6.21956 4.0955C6.46285 4.13962 6.71379 4.10984 6.94 4.01H7C7.22183 3.91493 7.41101 3.75707 7.54427 3.55585C7.67753 3.35463 7.74904 3.11884 7.75 2.8775V2.75C7.75 2.35218 7.90804 1.97064 8.18934 1.68934C8.47064 1.40804 8.85218 1.25 9.25 1.25C9.64782 1.25 10.0294 1.40804 10.3107 1.68934C10.592 1.97064 10.75 2.35218 10.75 2.75V2.8175C10.751 3.05884 10.8225 3.29463 10.9557 3.49585C11.089 3.69707 11.2782 3.85493 11.5 3.95C11.7262 4.04984 11.9771 4.07962 12.2204 4.0355C12.4637 3.99139 12.6882 3.8754 12.865 3.7025L12.91 3.6575C13.0493 3.51804 13.2147 3.4074 13.3968 3.33191C13.5789 3.25642 13.7741 3.21757 13.9713 3.21757C14.1684 3.21757 14.3636 3.25642 14.5457 3.33191C14.7278 3.4074 14.8932 3.51804 15.0325 3.6575C15.172 3.79681 15.2826 3.96224 15.3581 4.14434C15.4336 4.32644 15.4724 4.52163 15.4724 4.71875C15.4724 4.91587 15.4336 5.11106 15.3581 5.29316C15.2826 5.47526 15.172 5.64069 15.0325 5.78L14.9875 5.825C14.8146 6.00176 14.6986 6.22626 14.6545 6.46956C14.6104 6.71285 14.6402 6.96379 14.74 7.19V7.25C14.8351 7.47183 14.9929 7.66101 15.1942 7.79427C15.3954 7.92753 15.6312 7.99904 15.8725 8H16C16.3978 8 16.7794 8.15804 17.0607 8.43934C17.342 8.72064 17.5 9.10218 17.5 9.5C17.5 9.89782 17.342 10.2794 17.0607 10.5607C16.7794 10.842 16.3978 11 16 11H15.9325C15.6912 11.001 15.4554 11.0725 15.2542 11.2057C15.0529 11.339 14.8951 11.5282 14.8 11.75Z" stroke="#09510D" stroke-width="1.5" stroke-linecap="round" stroke-linejoin="round"/>
</svg>
