<svg width="20" height="20" viewBox="0 0 20 20" fill="none" xmlns="http://www.w3.org/2000/svg">
<rect width="20" height="20" rx="10" fill="white"/>
<path d="M14.0002 14.5V13.5C14.0002 12.9696 13.7895 12.4609 13.4145 12.0858C13.0394 11.7107 12.5307 11.5 12.0002 11.5H8.00024C7.46981 11.5 6.9611 11.7107 6.58603 12.0858C6.21096 12.4609 6.00024 12.9696 6.00024 13.5V14.5" stroke="black" stroke-linecap="round" stroke-linejoin="round"/>
<path d="M9.99976 9.49927C11.1043 9.49927 11.9998 8.60384 11.9998 7.49927C11.9998 6.3947 11.1043 5.49927 9.99976 5.49927C8.89519 5.49927 7.99976 6.3947 7.99976 7.49927C7.99976 8.60384 8.89519 9.49927 9.99976 9.49927Z" stroke="black" stroke-linecap="round" stroke-linejoin="round"/>
</svg>
