<svg version="1.1" id="Layer_1" xmlns="http://www.w3.org/2000/svg" xmlns:xlink="http://www.w3.org/1999/xlink" viewBox="0 0 370.204 370.204" xml:space="preserve" fill="#000000"><g id="SVGRepo_bgCarrier" stroke-width="0"></g><g id="SVGRepo_tracerCarrier" stroke-linecap="round" stroke-linejoin="round"></g><g id="SVGRepo_iconCarrier"> <g> <g> <path style="fill:#81bb26;" d="M0,293.745c0,13.75,11.25,25,25,25h312.703c13.75,0,25-11.25,25-25V76.458c0-13.75-11.25-25-25-25 H25c-13.75,0-25,11.25-25,25V293.745z"></path> <path style="fill:#81bb26;" d="M362.703,81.229v-4.771c0-13.75-11.25-25-25-25H25c-13.75,0-25,11.25-25,25v4.771 C0,81.229,362.703,81.229,362.703,81.229z"></path> <rect y="81.229" style="fill:#81bb26;" width="7.5" height="23.576"></rect> <polygon style="fill:#C3C6C8;" points="7.5,102.49 3.75,104.805 7.5,104.805 "></polygon> </g> <path style="fill:#81bb26;" d="M370.203,293.745c0,13.75-11.25,25-25,25H32.5c-13.75,0-25-11.25-25-25V76.458 c0-13.75,11.25-25,25-25h312.703c13.75,0,25,11.25,25,25V293.745z"></path> <g> <circle style="fill:#FFFFFF;" cx="188.852" cy="209.834" r="76"></circle> <path style="fill:#81bb26;" d="M178.145,245.685c-6.927,4.482-12.594,1.399-12.594-6.851v-58c0-8.25,5.667-11.333,12.594-6.852 l42.812,27.702c6.927,4.482,6.927,11.816,0,16.298L178.145,245.685z"></path> </g> <path style="fill:#81bb26;" d="M7.5,81.229v-4.771c0-13.75,11.25-25,25-25h312.703c13.75,0,25,11.25,25,25v4.771 C370.203,81.229,7.5,81.229,7.5,81.229z"></path> <g> <rect x="7.5" y="81.229" style="fill:#81bb26;" width="362.703" height="23.576"></rect> <path style="fill:#FFFFFF;" d="M166.51,81.229l-23.575,23.576h22.341l23.575-23.576C188.851,81.229,166.51,81.229,166.51,81.229z M120.593,81.229l-23.575,23.576h22.341l23.576-23.576C142.935,81.229,120.593,81.229,120.593,81.229z M74.677,81.229 l-23.576,23.576h22.342l23.575-23.576C97.018,81.229,74.677,81.229,74.677,81.229z M28.76,81.229L7.5,102.49v2.315h20.026 l23.575-23.576C51.101,81.229,28.76,81.229,28.76,81.229z M304.261,81.229l-23.576,23.576h22.342l23.575-23.576 C326.602,81.229,304.261,81.229,304.261,81.229z M350.177,81.229l-23.575,23.576h22.341l21.261-21.261v-2.315 C370.204,81.229,350.177,81.229,350.177,81.229z M212.428,81.229l-23.576,23.576h22.342l23.574-23.576 C234.768,81.229,212.428,81.229,212.428,81.229z M258.344,81.229l-23.576,23.576h22.342l23.575-23.576 C280.685,81.229,258.344,81.229,258.344,81.229z"></path> </g> </g> </g></svg>
