<svg width="40" height="40" viewBox="0 0 40 40" fill="none" xmlns="http://www.w3.org/2000/svg">
<rect x="0.5" y="0.5" width="39" height="39" rx="19.5" stroke="#D8D8D8"/>
<path d="M30.5396 14.42C30.4208 13.9454 30.1789 13.5106 29.8382 13.1594C29.4976 12.8082 29.0703 12.5532 28.5996 12.42C26.8796 12 19.9996 12 19.9996 12C19.9996 12 13.1196 12 11.3996 12.46C10.9288 12.5932 10.5016 12.8482 10.1609 13.1994C9.82031 13.5506 9.57838 13.9854 9.4596 14.46C9.14481 16.2056 8.99083 17.9763 8.9996 19.75C8.98837 21.537 9.14236 23.3213 9.4596 25.08C9.59055 25.5398 9.8379 25.9581 10.1777 26.2945C10.5176 26.6308 10.9384 26.8738 11.3996 27C13.1196 27.46 19.9996 27.46 19.9996 27.46C19.9996 27.46 26.8796 27.46 28.5996 27C29.0703 26.8668 29.4976 26.6118 29.8382 26.2606C30.1789 25.9094 30.4208 25.4746 30.5396 25C30.852 23.2676 31.0059 21.5103 30.9996 19.75C31.0108 17.963 30.8568 16.1787 30.5396 14.42Z" stroke="#797979" stroke-width="1.5" stroke-linecap="round" stroke-linejoin="round"/>
<path d="M17.75 23.02L23.5 19.75L17.75 16.48V23.02Z" stroke="#797979" stroke-width="1.5" stroke-linecap="round" stroke-linejoin="round"/>
</svg>
